M48
;GenerationSoftware,Autodesk,EAGLE,9.7.0*%
;CreationDate,2026-04-10T21:10:51Z*%
FMAT,2
ICI,OFF
METRIC,TZ,000.000
T9C0.100
T8C0.200
T7C0.250
T6C0.350
T5C0.559
T4C0.650
T3C0.700
T2C1.067
T1C2.451
%
G90
M71
T1
X9515Y13630
X12690Y13630
X12690Y8550
X9515Y8550
T2
X14595Y12106
X14595Y10074
X9515Y11090
T3
X-3852Y11598
X1928Y11598
T4
X-5282Y11098
X3358Y11098
X-5282Y15248
X3358Y15248
T5
X12208Y-14672
X-2805Y-14679
X890Y-14679
X-13574Y-14677
X-9879Y-14677
X8512Y-14672
T6
X3127Y-14584
X-7468Y-14818
X-18650Y-13244
X14449Y-14692
X4026Y6699
X500Y-10149
X-11066Y8003
X6285Y-7719
X4803Y117
X-3113Y3731
X-7518Y15552
X3738Y5094
X-2244Y7948
X-286Y8099
X2476Y-9032
X-7040Y8959
X-10199Y15425
X-3577Y-6145
X-3329Y4503
X4840Y-953
X-3670Y3151
X-11568Y11640
X-7003Y-2843
X-17901Y9508
X-3363Y-1974
X6342Y13435
X-3363Y-2988
X6352Y14857
X-13241Y-7950
X-4948Y7262
T7
X-3661Y-4905
X-4763Y-13347
T8
X-4454Y5500
X-7242Y5642
X-12631Y9553
X5561Y-3965
X4802Y-3788
X-9015Y13450
X-6393Y3590
X6172Y-4855
X-5789Y5021
X-9126Y-1562
X-10253Y716
X3345Y-9770
X5507Y-9505
X-11098Y-1562
X1577Y-10777
X-10546Y-1562
X2680Y-11034
X524Y-111
X-11026Y6381
X-5251Y-412
X-4468Y-4987
X-11174Y1456
X-9168Y-12610
X-10239Y-9858
X-11427Y-8023
X-21855Y-13095
X-17646Y-16175
X-9904Y4408
X-10515Y3797
X-15346Y-14938
X968Y-740
X-122Y2717
X-9598Y37
X-89Y918
X-7477Y7347
X-12847Y13564
X-7707Y4932
X4540Y-5773
X-9144Y12595
X1342Y139
X2228Y-689
X-6092Y1258
X8818Y-12026
X2071Y1392
X-1740Y4604
X2095Y4470
X3364Y1769
T9
X3421Y-3459
X3420Y-4418
X656Y-2152
X5403Y5667
X17519Y12069
X5978Y5658
X1147Y-2140
X2175Y-2136
X-4977Y2325
X3412Y-4944
X-2117Y-2414
X659Y-7691
X3421Y-5452
X-2122Y-5448
M30