G04 EAGLE Gerber RS-274X export*
G75*
%MOMM*%
%FSLAX34Y34*%
%LPD*%
%INCopper Layer 63*%
%IPPOS*%
%AMOC8*
5,1,8,0,0,1.08239X$1,22.5*%
G01*
G04 Define Apertures*
%ADD10C,1.158000*%
%ADD11C,1.066800*%
%ADD12C,0.550000*%
%ADD13C,0.400000*%
%ADD14C,0.300000*%
%ADD15C,0.450000*%
G36*
X-44204Y-170256D02*
X-44501Y-170315D01*
X-83610Y-170156D01*
X-83882Y-170105D01*
X-84137Y-169942D01*
X-84309Y-169691D01*
X-84369Y-169394D01*
X-84369Y-163054D01*
X-84359Y-160883D01*
X-85190Y-158876D01*
X-85191Y-158873D01*
X-86013Y-156862D01*
X-87550Y-155326D01*
X-87553Y-155323D01*
X-89080Y-153782D01*
X-91087Y-152950D01*
X-91090Y-152949D01*
X-92984Y-152154D01*
X-93211Y-152007D01*
X-93386Y-151760D01*
X-93451Y-151464D01*
X-93395Y-151166D01*
X-93228Y-150913D01*
X-92974Y-150659D01*
X-91930Y-148139D01*
X-91930Y-145410D01*
X-92974Y-142890D01*
X-94904Y-140960D01*
X-97424Y-139916D01*
X-100152Y-139916D01*
X-102673Y-140960D01*
X-104602Y-142890D01*
X-105646Y-145410D01*
X-105646Y-148139D01*
X-104602Y-150659D01*
X-104498Y-150763D01*
X-104344Y-150986D01*
X-104275Y-151281D01*
X-104328Y-151580D01*
X-104492Y-151835D01*
X-104743Y-152005D01*
X-105041Y-152064D01*
X-129387Y-151952D01*
X-129647Y-151905D01*
X-129905Y-151745D01*
X-130080Y-151498D01*
X-130145Y-151202D01*
X-130090Y-150904D01*
X-129935Y-150670D01*
X-128886Y-148139D01*
X-128886Y-145410D01*
X-129930Y-142890D01*
X-131860Y-140960D01*
X-134380Y-139916D01*
X-137108Y-139916D01*
X-139629Y-140960D01*
X-141558Y-142890D01*
X-142602Y-145410D01*
X-142602Y-148139D01*
X-141525Y-150738D01*
X-141479Y-150804D01*
X-141410Y-151099D01*
X-141461Y-151398D01*
X-141624Y-151654D01*
X-141874Y-151825D01*
X-142171Y-151886D01*
X-143712Y-151886D01*
X-145886Y-151876D01*
X-147892Y-152707D01*
X-147896Y-152708D01*
X-149906Y-153530D01*
X-151443Y-155067D01*
X-151445Y-155069D01*
X-152986Y-156597D01*
X-153818Y-158604D01*
X-153819Y-158607D01*
X-154659Y-160609D01*
X-154659Y-162784D01*
X-154670Y-165051D01*
X-154659Y-165104D01*
X-154659Y-169124D01*
X-154710Y-169398D01*
X-154874Y-169654D01*
X-155124Y-169825D01*
X-155421Y-169886D01*
X-163974Y-169886D01*
X-166298Y-169886D01*
X-166383Y-169881D01*
X-179360Y-168419D01*
X-179526Y-168381D01*
X-191852Y-164068D01*
X-192006Y-163994D01*
X-203063Y-157046D01*
X-203196Y-156940D01*
X-212430Y-147706D01*
X-212537Y-147572D01*
X-219484Y-136515D01*
X-219558Y-136362D01*
X-219864Y-135488D01*
X-219906Y-135261D01*
X-219855Y-134962D01*
X-219692Y-134707D01*
X-219442Y-134535D01*
X-219145Y-134475D01*
X-217087Y-134475D01*
X-215023Y-132410D01*
X-215023Y-129491D01*
X-217087Y-127427D01*
X-220007Y-127427D01*
X-221133Y-128553D01*
X-221397Y-128725D01*
X-221696Y-128776D01*
X-221991Y-128706D01*
X-222236Y-128527D01*
X-222391Y-128266D01*
X-223871Y-124036D01*
X-223909Y-123869D01*
X-225371Y-110893D01*
X-225376Y-110808D01*
X-225376Y-86492D01*
X-225325Y-86217D01*
X-225162Y-85961D01*
X-224911Y-85790D01*
X-224614Y-85730D01*
X-164126Y-85730D01*
X-160111Y-84067D01*
X-157039Y-80994D01*
X-155376Y-76980D01*
X-155376Y65365D01*
X-157039Y69379D01*
X-160111Y72452D01*
X-160418Y72579D01*
X-160657Y72736D01*
X-160829Y72986D01*
X-160889Y73283D01*
X-160889Y157508D01*
X-160838Y157783D01*
X-160674Y158039D01*
X-160424Y158210D01*
X-160127Y158270D01*
X-105860Y158270D01*
X-105597Y158223D01*
X-105339Y158064D01*
X-105163Y157817D01*
X-105098Y157521D01*
X-105154Y157222D01*
X-105321Y156970D01*
X-106268Y156023D01*
X-106268Y152482D01*
X-103764Y149979D01*
X-100224Y149979D01*
X-97720Y152482D01*
X-97720Y156023D01*
X-98666Y156970D01*
X-98819Y157189D01*
X-98889Y157484D01*
X-98838Y157783D01*
X-98675Y158039D01*
X-98425Y158210D01*
X-98128Y158270D01*
X-80219Y158270D01*
X-79944Y158219D01*
X-79689Y158056D01*
X-79517Y157806D01*
X-79457Y157508D01*
X-79457Y153750D01*
X-76953Y151246D01*
X-73412Y151246D01*
X-70909Y153750D01*
X-70909Y157508D01*
X-70857Y157783D01*
X-70694Y158039D01*
X-70444Y158210D01*
X-70147Y158270D01*
X-60583Y158270D01*
X-60314Y158221D01*
X-60057Y158060D01*
X-59884Y157811D01*
X-59821Y157514D01*
X-59879Y157217D01*
X-61155Y154137D01*
X-61155Y153242D01*
X-44495Y153242D01*
X-44495Y154137D01*
X-45770Y157217D01*
X-45828Y157484D01*
X-45777Y157783D01*
X-45614Y158039D01*
X-45364Y158210D01*
X-45066Y158270D01*
X25817Y158270D01*
X26086Y158221D01*
X26343Y158060D01*
X26516Y157811D01*
X26579Y157514D01*
X26521Y157217D01*
X25245Y154137D01*
X25245Y153242D01*
X41905Y153242D01*
X41905Y154137D01*
X40630Y157217D01*
X40572Y157484D01*
X40623Y157783D01*
X40786Y158039D01*
X41036Y158210D01*
X41334Y158270D01*
X85783Y158270D01*
X86041Y158226D01*
X86300Y158068D01*
X86477Y157822D01*
X86545Y157527D01*
X86491Y157228D01*
X86326Y156974D01*
X86074Y156804D01*
X82456Y155306D01*
X76151Y149000D01*
X72739Y140762D01*
X72739Y131845D01*
X76151Y123606D01*
X81089Y118668D01*
X81249Y118432D01*
X81312Y118135D01*
X81254Y117838D01*
X79659Y113985D01*
X79659Y107821D01*
X81254Y103969D01*
X81312Y103689D01*
X81257Y103391D01*
X81089Y103138D01*
X76151Y98200D01*
X72739Y89962D01*
X72739Y81045D01*
X76151Y72806D01*
X82456Y66501D01*
X90695Y63088D01*
X99612Y63088D01*
X107851Y66501D01*
X110490Y69140D01*
X110720Y69298D01*
X111016Y69363D01*
X111314Y69307D01*
X111567Y69140D01*
X114206Y66501D01*
X122445Y63088D01*
X131362Y63088D01*
X139601Y66501D01*
X145906Y72806D01*
X149319Y81045D01*
X149319Y84856D01*
X149372Y85137D01*
X149537Y85391D01*
X149789Y85560D01*
X154731Y87607D01*
X159090Y91966D01*
X161449Y97661D01*
X161449Y103825D01*
X159090Y109520D01*
X158246Y110364D01*
X158088Y110595D01*
X158022Y110891D01*
X158078Y111189D01*
X158246Y111442D01*
X159090Y112286D01*
X161449Y117981D01*
X161449Y124145D01*
X159090Y129840D01*
X154731Y134199D01*
X149789Y136246D01*
X149550Y136403D01*
X149379Y136653D01*
X149319Y136950D01*
X149319Y140762D01*
X145906Y149000D01*
X139601Y155306D01*
X135983Y156804D01*
X135762Y156944D01*
X135582Y157189D01*
X135513Y157484D01*
X135563Y157783D01*
X135727Y158039D01*
X135977Y158210D01*
X136274Y158270D01*
X153702Y158270D01*
X153787Y158266D01*
X166764Y156804D01*
X166930Y156766D01*
X179256Y152453D01*
X179410Y152379D01*
X190467Y145431D01*
X190600Y145325D01*
X199834Y136091D01*
X199940Y135957D01*
X206888Y124900D01*
X206962Y124746D01*
X211275Y112421D01*
X211313Y112254D01*
X212775Y99278D01*
X212780Y99192D01*
X212780Y-110808D01*
X212775Y-110893D01*
X211313Y-123869D01*
X211275Y-124036D01*
X206962Y-136362D01*
X206888Y-136515D01*
X199940Y-147572D01*
X199834Y-147706D01*
X190600Y-156940D01*
X190467Y-157046D01*
X179410Y-163994D01*
X179256Y-164068D01*
X166930Y-168381D01*
X166764Y-168419D01*
X153787Y-169881D01*
X153702Y-169886D01*
X153693Y-169886D01*
X136992Y-169877D01*
X136718Y-169825D01*
X136462Y-169662D01*
X136291Y-169412D01*
X136231Y-169115D01*
X136231Y-165112D01*
X136232Y-165104D01*
X136231Y-162793D01*
X136231Y-160616D01*
X135399Y-158611D01*
X135398Y-158611D01*
X134566Y-156602D01*
X133037Y-155075D01*
X133036Y-155074D01*
X131493Y-153530D01*
X129483Y-152700D01*
X129482Y-152699D01*
X127927Y-152055D01*
X127697Y-151907D01*
X127522Y-151660D01*
X127457Y-151363D01*
X127513Y-151065D01*
X127680Y-150812D01*
X127889Y-150603D01*
X128933Y-148083D01*
X128933Y-145354D01*
X127889Y-142834D01*
X125960Y-140904D01*
X123440Y-139860D01*
X120711Y-139860D01*
X118191Y-140904D01*
X116262Y-142834D01*
X115217Y-145354D01*
X115217Y-148083D01*
X116273Y-150631D01*
X116388Y-150795D01*
X116458Y-151091D01*
X116407Y-151390D01*
X116244Y-151645D01*
X115994Y-151817D01*
X115697Y-151877D01*
X91482Y-151895D01*
X91218Y-151848D01*
X90960Y-151689D01*
X90784Y-151441D01*
X90719Y-151145D01*
X90775Y-150847D01*
X90928Y-150615D01*
X91977Y-148083D01*
X91977Y-145354D01*
X90933Y-142834D01*
X89004Y-140904D01*
X86484Y-139860D01*
X83755Y-139860D01*
X81235Y-140904D01*
X79306Y-142834D01*
X78261Y-145354D01*
X78261Y-148083D01*
X79306Y-150603D01*
X79306Y-150603D01*
X79458Y-150822D01*
X79528Y-151117D01*
X79478Y-151416D01*
X79315Y-151672D01*
X79065Y-151844D01*
X78767Y-151904D01*
X77188Y-151905D01*
X75009Y-151905D01*
X73004Y-152737D01*
X73004Y-152737D01*
X70995Y-153570D01*
X69468Y-155099D01*
X69467Y-155099D01*
X67924Y-156643D01*
X67093Y-158653D01*
X67093Y-158653D01*
X66262Y-160659D01*
X66264Y-162835D01*
X66264Y-169184D01*
X66213Y-169457D01*
X66051Y-169713D01*
X65801Y-169885D01*
X65504Y-169946D01*
X26888Y-170083D01*
X26610Y-170032D01*
X26355Y-169868D01*
X26183Y-169618D01*
X26123Y-169321D01*
X26123Y-165340D01*
X26134Y-165283D01*
X26123Y-163020D01*
X26123Y-160845D01*
X25283Y-158846D01*
X25281Y-158842D01*
X24449Y-156833D01*
X22908Y-155307D01*
X22905Y-155304D01*
X21368Y-153767D01*
X19356Y-152945D01*
X19352Y-152944D01*
X17347Y-152113D01*
X15174Y-152124D01*
X15107Y-152124D01*
X14844Y-152077D01*
X14586Y-151918D01*
X14411Y-151670D01*
X14346Y-151374D01*
X14401Y-151076D01*
X14569Y-150823D01*
X14717Y-150675D01*
X15761Y-148154D01*
X15761Y-145426D01*
X14717Y-142905D01*
X12788Y-140976D01*
X10267Y-139932D01*
X7539Y-139932D01*
X5018Y-140976D01*
X3089Y-142905D01*
X2045Y-145426D01*
X2045Y-148154D01*
X3089Y-150675D01*
X3299Y-150885D01*
X3451Y-151101D01*
X3522Y-151396D01*
X3472Y-151695D01*
X3310Y-151951D01*
X3061Y-152124D01*
X2764Y-152186D01*
X-22030Y-152309D01*
X-22297Y-152262D01*
X-22555Y-152102D01*
X-22730Y-151855D01*
X-22795Y-151559D01*
X-22740Y-151261D01*
X-22572Y-151008D01*
X-22239Y-150675D01*
X-21195Y-148154D01*
X-21195Y-145426D01*
X-22239Y-142905D01*
X-24168Y-140976D01*
X-26689Y-139932D01*
X-29417Y-139932D01*
X-31938Y-140976D01*
X-33867Y-142905D01*
X-34911Y-145426D01*
X-34911Y-148154D01*
X-33867Y-150675D01*
X-33480Y-151062D01*
X-33327Y-151281D01*
X-33257Y-151576D01*
X-33308Y-151875D01*
X-33472Y-152131D01*
X-33722Y-152302D01*
X-34019Y-152362D01*
X-35015Y-152362D01*
X-37015Y-153202D01*
X-37018Y-153204D01*
X-39027Y-154036D01*
X-40554Y-155578D01*
X-40556Y-155580D01*
X-42093Y-157118D01*
X-42915Y-159130D01*
X-42917Y-159133D01*
X-43747Y-161138D01*
X-43736Y-163310D01*
X-43736Y-169553D01*
X-43789Y-169830D01*
X-43953Y-170085D01*
X-44204Y-170256D01*
G37*
%LPC*%
G36*
X61745Y144294D02*
X65286Y144294D01*
X67790Y146798D01*
X67790Y150338D01*
X65286Y152842D01*
X61745Y152842D01*
X59242Y150338D01*
X59242Y146798D01*
X61745Y144294D01*
G37*
G36*
X31918Y144150D02*
X32813Y144150D01*
X32813Y151718D01*
X25245Y151718D01*
X25245Y150824D01*
X26513Y147762D01*
X28857Y145419D01*
X31918Y144150D01*
G37*
G36*
X-52063Y144150D02*
X-51168Y144150D01*
X-48106Y145419D01*
X-45763Y147762D01*
X-44495Y150824D01*
X-44495Y151718D01*
X-52063Y151718D01*
X-52063Y144150D01*
G37*
G36*
X-54482Y144150D02*
X-53587Y144150D01*
X-53587Y151718D01*
X-61155Y151718D01*
X-61155Y150824D01*
X-59887Y147762D01*
X-57543Y145419D01*
X-54482Y144150D01*
G37*
G36*
X34337Y144150D02*
X35232Y144150D01*
X38294Y145419D01*
X40637Y147762D01*
X41905Y150824D01*
X41905Y151718D01*
X34337Y151718D01*
X34337Y144150D01*
G37*
G36*
X-129927Y132114D02*
X-127008Y132114D01*
X-124944Y134178D01*
X-124944Y137097D01*
X-127008Y139162D01*
X-129927Y139162D01*
X-131992Y137097D01*
X-131992Y134178D01*
X-129927Y132114D01*
G37*
G36*
X61646Y130076D02*
X65187Y130076D01*
X67691Y132580D01*
X67691Y136121D01*
X65187Y138624D01*
X61646Y138624D01*
X59143Y136121D01*
X59143Y132580D01*
X61646Y130076D01*
G37*
G36*
X-92905Y122423D02*
X-89985Y122423D01*
X-87921Y124488D01*
X-87921Y127407D01*
X-90185Y129671D01*
X-90338Y129890D01*
X-90407Y130185D01*
X-90356Y130484D01*
X-90193Y130739D01*
X-89943Y130911D01*
X-89646Y130971D01*
X-88689Y130971D01*
X-86625Y133036D01*
X-86625Y135955D01*
X-88689Y138019D01*
X-91609Y138019D01*
X-93673Y135955D01*
X-93673Y133036D01*
X-91409Y130772D01*
X-91256Y130553D01*
X-91186Y130258D01*
X-91237Y129959D01*
X-91401Y129703D01*
X-91651Y129532D01*
X-91948Y129471D01*
X-92905Y129471D01*
X-94969Y127407D01*
X-94969Y124488D01*
X-92905Y122423D01*
G37*
G36*
X-41242Y102320D02*
X-35808Y102320D01*
X-30787Y104400D01*
X-26944Y108243D01*
X-24865Y113263D01*
X-24865Y118698D01*
X-26944Y123718D01*
X-30787Y127561D01*
X-35808Y129640D01*
X-41242Y129640D01*
X-46263Y127561D01*
X-50105Y123718D01*
X-51736Y119781D01*
X-51893Y119542D01*
X-52063Y119426D01*
X-52063Y102650D01*
X-51168Y102650D01*
X-48106Y103919D01*
X-47483Y104542D01*
X-47252Y104700D01*
X-46956Y104765D01*
X-46658Y104710D01*
X-46405Y104542D01*
X-46263Y104400D01*
X-41242Y102320D01*
G37*
G36*
X16558Y102320D02*
X21992Y102320D01*
X27013Y104400D01*
X27155Y104542D01*
X27386Y104700D01*
X27682Y104765D01*
X27980Y104710D01*
X28233Y104542D01*
X28857Y103919D01*
X31918Y102650D01*
X32813Y102650D01*
X32813Y119427D01*
X32656Y119529D01*
X32487Y119781D01*
X30856Y123718D01*
X27013Y127561D01*
X21992Y129640D01*
X16558Y129640D01*
X11537Y127561D01*
X7695Y123718D01*
X5615Y118698D01*
X5615Y113263D01*
X7695Y108243D01*
X11537Y104400D01*
X16558Y102320D01*
G37*
G36*
X173941Y117665D02*
X176446Y117665D01*
X178218Y119437D01*
X178218Y121942D01*
X176446Y123713D01*
X173941Y123713D01*
X172170Y121942D01*
X172170Y119437D01*
X173941Y117665D01*
G37*
G36*
X34337Y111742D02*
X41905Y111742D01*
X41905Y112637D01*
X40637Y115699D01*
X38294Y118042D01*
X35232Y119310D01*
X34337Y119310D01*
X34337Y111742D01*
G37*
G36*
X-61155Y111742D02*
X-53587Y111742D01*
X-53587Y119310D01*
X-54482Y119310D01*
X-57543Y118042D01*
X-59887Y115699D01*
X-61155Y112637D01*
X-61155Y111742D01*
G37*
G36*
X-54482Y102650D02*
X-53587Y102650D01*
X-53587Y110218D01*
X-61155Y110218D01*
X-61155Y109324D01*
X-59887Y106262D01*
X-57543Y103919D01*
X-54482Y102650D01*
G37*
G36*
X34337Y102650D02*
X35232Y102650D01*
X38294Y103919D01*
X40637Y106262D01*
X41905Y109324D01*
X41905Y110218D01*
X34337Y110218D01*
X34337Y102650D01*
G37*
G36*
X-127772Y92005D02*
X-124853Y92005D01*
X-122788Y94069D01*
X-122788Y96988D01*
X-124853Y99053D01*
X-127772Y99053D01*
X-129836Y96988D01*
X-129836Y94069D01*
X-127772Y92005D01*
G37*
G36*
X-72174Y85312D02*
X-68633Y85312D01*
X-66130Y87816D01*
X-66130Y91356D01*
X-68633Y93860D01*
X-72174Y93860D01*
X-74678Y91356D01*
X-74678Y87816D01*
X-72174Y85312D01*
G37*
G36*
X-76230Y69949D02*
X-73310Y69949D01*
X-71246Y72014D01*
X-71246Y74933D01*
X-73310Y76997D01*
X-76230Y76997D01*
X-78294Y74933D01*
X-78294Y72014D01*
X-76230Y69949D01*
G37*
G36*
X-51255Y68342D02*
X-47715Y68342D01*
X-45211Y70845D01*
X-45211Y74386D01*
X-47715Y76890D01*
X-51255Y76890D01*
X-53759Y74386D01*
X-53759Y70845D01*
X-51255Y68342D01*
G37*
G36*
X-111720Y60290D02*
X-108801Y60290D01*
X-106737Y62354D01*
X-106737Y65273D01*
X-108801Y67338D01*
X-111720Y67338D01*
X-113785Y65273D01*
X-113785Y62354D01*
X-111720Y60290D01*
G37*
G36*
X58530Y53560D02*
X61035Y53560D01*
X62807Y55331D01*
X62807Y57837D01*
X61035Y59608D01*
X58530Y59608D01*
X57491Y58569D01*
X57261Y58411D01*
X56965Y58346D01*
X56667Y58402D01*
X56414Y58569D01*
X55287Y59696D01*
X52782Y59696D01*
X51010Y57925D01*
X51010Y55420D01*
X52782Y53648D01*
X55287Y53648D01*
X56325Y54687D01*
X56556Y54845D01*
X56852Y54910D01*
X57150Y54855D01*
X57403Y54687D01*
X58530Y53560D01*
G37*
G36*
X35614Y46665D02*
X39155Y46665D01*
X41659Y49168D01*
X41659Y52709D01*
X39155Y55213D01*
X35614Y55213D01*
X33111Y52709D01*
X33111Y49168D01*
X35614Y46665D01*
G37*
G36*
X-59346Y46690D02*
X-56426Y46690D01*
X-54362Y48755D01*
X-54362Y51674D01*
X-56426Y53738D01*
X-59346Y53738D01*
X-61410Y51674D01*
X-61410Y48755D01*
X-59346Y46690D01*
G37*
G36*
X-78527Y45795D02*
X-75608Y45795D01*
X-73544Y47860D01*
X-73544Y50779D01*
X-75608Y52843D01*
X-78527Y52843D01*
X-80592Y50779D01*
X-80592Y47860D01*
X-78527Y45795D01*
G37*
G36*
X-18861Y42511D02*
X-15941Y42511D01*
X-13877Y44576D01*
X-13877Y47495D01*
X-15941Y49559D01*
X-18861Y49559D01*
X-20925Y47495D01*
X-20925Y44576D01*
X-18861Y42511D01*
G37*
G36*
X-35058Y40757D02*
X-31517Y40757D01*
X-29014Y43261D01*
X-29014Y46801D01*
X-31517Y49305D01*
X-35058Y49305D01*
X-37562Y46801D01*
X-37562Y43261D01*
X-35058Y40757D01*
G37*
G36*
X19489Y41177D02*
X22408Y41177D01*
X24473Y43241D01*
X24473Y46160D01*
X22408Y48225D01*
X19489Y48225D01*
X17425Y46160D01*
X17425Y43241D01*
X19489Y41177D01*
G37*
G36*
X-100503Y40552D02*
X-97583Y40552D01*
X-95519Y42616D01*
X-95519Y45535D01*
X-97583Y47600D01*
X-100503Y47600D01*
X-102567Y45535D01*
X-102567Y42616D01*
X-100503Y40552D01*
G37*
G36*
X-106612Y34442D02*
X-103693Y34442D01*
X-101628Y36507D01*
X-101628Y39426D01*
X-103693Y41490D01*
X-106612Y41490D01*
X-108676Y39426D01*
X-108676Y36507D01*
X-106612Y34442D01*
G37*
G36*
X-65392Y32374D02*
X-62473Y32374D01*
X-60408Y34438D01*
X-60408Y37358D01*
X-62473Y39422D01*
X-65392Y39422D01*
X-67456Y37358D01*
X-67456Y34438D01*
X-65392Y32374D01*
G37*
G36*
X-38467Y27234D02*
X-34927Y27234D01*
X-32423Y29737D01*
X-32423Y33278D01*
X-34927Y35782D01*
X-38467Y35782D01*
X-40971Y33278D01*
X-40971Y29737D01*
X-38467Y27234D01*
G37*
G36*
X-2677Y23649D02*
X242Y23649D01*
X2307Y25713D01*
X2307Y28632D01*
X242Y30697D01*
X-2677Y30697D01*
X-4741Y28632D01*
X-4741Y25713D01*
X-2677Y23649D01*
G37*
G36*
X-51022Y20230D02*
X-48517Y20230D01*
X-46746Y22001D01*
X-46746Y24506D01*
X-48517Y26278D01*
X-51022Y26278D01*
X-52794Y24506D01*
X-52794Y22001D01*
X-51022Y20230D01*
G37*
G36*
X32185Y14171D02*
X35104Y14171D01*
X37169Y16235D01*
X37169Y19154D01*
X35104Y21219D01*
X32185Y21219D01*
X30121Y19154D01*
X30121Y16235D01*
X32185Y14171D01*
G37*
G36*
X-113204Y11031D02*
X-110285Y11031D01*
X-108221Y13095D01*
X-108221Y16015D01*
X-110285Y18079D01*
X-113204Y18079D01*
X-115269Y16015D01*
X-115269Y13095D01*
X-113204Y11031D01*
G37*
G36*
X19252Y10395D02*
X22171Y10395D01*
X24236Y12459D01*
X24236Y15379D01*
X22171Y17443D01*
X19252Y17443D01*
X17188Y15379D01*
X17188Y12459D01*
X19252Y10395D01*
G37*
G36*
X-62380Y9054D02*
X-59461Y9054D01*
X-57397Y11119D01*
X-57397Y14038D01*
X-59461Y16102D01*
X-62380Y16102D01*
X-64445Y14038D01*
X-64445Y11119D01*
X-62380Y9054D01*
G37*
G36*
X-2350Y5655D02*
X570Y5655D01*
X2634Y7720D01*
X2634Y10639D01*
X570Y12703D01*
X-2350Y12703D01*
X-4414Y10639D01*
X-4414Y7720D01*
X-2350Y5655D01*
G37*
G36*
X-103994Y3632D02*
X-101074Y3632D01*
X-99010Y5697D01*
X-99010Y8616D01*
X-101074Y10680D01*
X-103994Y10680D01*
X-106058Y8616D01*
X-106058Y5697D01*
X-103994Y3632D01*
G37*
G36*
X8215Y-10927D02*
X11135Y-10927D01*
X13199Y-8862D01*
X13199Y-5943D01*
X11135Y-3879D01*
X9300Y-3879D01*
X9036Y-3832D01*
X8778Y-3672D01*
X8603Y-3425D01*
X8538Y-3129D01*
X8593Y-2831D01*
X8761Y-2578D01*
X8769Y-2570D01*
X8769Y-783D01*
X8816Y-520D01*
X8975Y-262D01*
X9222Y-86D01*
X9518Y-21D01*
X9817Y-77D01*
X10069Y-244D01*
X11956Y-2130D01*
X14875Y-2130D01*
X16939Y-66D01*
X16939Y2853D01*
X14875Y4918D01*
X11956Y4918D01*
X9891Y2853D01*
X9891Y1066D01*
X9844Y803D01*
X9685Y545D01*
X9438Y370D01*
X9141Y305D01*
X8843Y360D01*
X8590Y528D01*
X6704Y2414D01*
X3785Y2414D01*
X1721Y349D01*
X1721Y-2570D01*
X3785Y-4634D01*
X5620Y-4634D01*
X5884Y-4681D01*
X6142Y-4841D01*
X6317Y-5088D01*
X6382Y-5384D01*
X6327Y-5682D01*
X6159Y-5935D01*
X6151Y-5943D01*
X6151Y-8862D01*
X8215Y-10927D01*
G37*
G36*
X-97437Y-3151D02*
X-94517Y-3151D01*
X-92453Y-1087D01*
X-92453Y1832D01*
X-94517Y3897D01*
X-97437Y3897D01*
X-99501Y1832D01*
X-99501Y-1087D01*
X-97437Y-3151D01*
G37*
G36*
X-53970Y-7646D02*
X-51050Y-7646D01*
X-48986Y-5582D01*
X-48986Y-2662D01*
X-51050Y-598D01*
X-53970Y-598D01*
X-56034Y-2662D01*
X-56034Y-5582D01*
X-53970Y-7646D01*
G37*
G36*
X20819Y-10419D02*
X23739Y-10419D01*
X25803Y-8355D01*
X25803Y-5435D01*
X23739Y-3371D01*
X20819Y-3371D01*
X18755Y-5435D01*
X18755Y-8355D01*
X20819Y-10419D01*
G37*
G36*
X46626Y-13807D02*
X50166Y-13807D01*
X52670Y-11304D01*
X52670Y-7763D01*
X50166Y-5259D01*
X46626Y-5259D01*
X44122Y-7763D01*
X44122Y-11304D01*
X46626Y-13807D01*
G37*
G36*
X-92723Y-19147D02*
X-89804Y-19147D01*
X-87740Y-17083D01*
X-87740Y-14163D01*
X-89804Y-12099D01*
X-92723Y-12099D01*
X-94788Y-14163D01*
X-94788Y-17083D01*
X-92723Y-19147D01*
G37*
G36*
X-112440Y-19147D02*
X-109521Y-19147D01*
X-108757Y-18383D01*
X-108527Y-18225D01*
X-108231Y-18160D01*
X-107933Y-18216D01*
X-107680Y-18383D01*
X-106916Y-19147D01*
X-103997Y-19147D01*
X-101933Y-17083D01*
X-101933Y-14163D01*
X-103997Y-12099D01*
X-106916Y-12099D01*
X-107680Y-12862D01*
X-107910Y-13020D01*
X-108206Y-13086D01*
X-108505Y-13030D01*
X-108757Y-12862D01*
X-109521Y-12099D01*
X-112440Y-12099D01*
X-114505Y-14163D01*
X-114505Y-17083D01*
X-112440Y-19147D01*
G37*
G36*
X-35401Y-24010D02*
X-31861Y-24010D01*
X-29357Y-21507D01*
X-29357Y-17966D01*
X-31861Y-15462D01*
X-35401Y-15462D01*
X-37905Y-17966D01*
X-37905Y-21507D01*
X-35401Y-24010D01*
G37*
G36*
X20501Y-24387D02*
X23007Y-24387D01*
X24778Y-22615D01*
X24778Y-20110D01*
X23007Y-18339D01*
X20501Y-18339D01*
X18730Y-20110D01*
X18730Y-22615D01*
X20501Y-24387D01*
G37*
G36*
X5305Y-24544D02*
X7810Y-24544D01*
X8538Y-23816D01*
X8768Y-23658D01*
X9065Y-23593D01*
X9363Y-23648D01*
X9616Y-23816D01*
X10221Y-24421D01*
X12726Y-24421D01*
X14497Y-22650D01*
X14497Y-20144D01*
X12726Y-18373D01*
X10221Y-18373D01*
X9493Y-19101D01*
X9262Y-19259D01*
X8966Y-19324D01*
X8668Y-19268D01*
X8415Y-19101D01*
X7810Y-18496D01*
X5305Y-18496D01*
X3534Y-20267D01*
X3534Y-22772D01*
X5305Y-24544D01*
G37*
G36*
X-22427Y-27164D02*
X-19922Y-27164D01*
X-18150Y-25393D01*
X-18150Y-22888D01*
X-19922Y-21116D01*
X-22427Y-21116D01*
X-24198Y-22888D01*
X-24198Y-25393D01*
X-22427Y-27164D01*
G37*
G36*
X-71804Y-32703D02*
X-68264Y-32703D01*
X-65760Y-30200D01*
X-65760Y-26659D01*
X-68264Y-24155D01*
X-71804Y-24155D01*
X-74308Y-26659D01*
X-74308Y-30200D01*
X-71804Y-32703D01*
G37*
G36*
X-35401Y-34157D02*
X-31861Y-34157D01*
X-29357Y-31653D01*
X-29357Y-28112D01*
X-31861Y-25609D01*
X-35401Y-25609D01*
X-37905Y-28112D01*
X-37905Y-31653D01*
X-35401Y-34157D01*
G37*
G36*
X32957Y-37618D02*
X35462Y-37618D01*
X37233Y-35847D01*
X37233Y-33342D01*
X35462Y-31570D01*
X32957Y-31570D01*
X31185Y-33342D01*
X31185Y-35847D01*
X32957Y-37618D01*
G37*
G36*
X54152Y-43169D02*
X57071Y-43169D01*
X59135Y-41105D01*
X59135Y-38186D01*
X57071Y-36121D01*
X54152Y-36121D01*
X52848Y-37425D01*
X52629Y-37578D01*
X52334Y-37648D01*
X52035Y-37597D01*
X51779Y-37433D01*
X51608Y-37183D01*
X51547Y-36886D01*
X51547Y-36422D01*
X49483Y-34358D01*
X46564Y-34358D01*
X44499Y-36422D01*
X44499Y-39341D01*
X46564Y-41406D01*
X49483Y-41406D01*
X50787Y-40102D01*
X51006Y-39949D01*
X51301Y-39879D01*
X51600Y-39930D01*
X51856Y-40094D01*
X52027Y-40344D01*
X52087Y-40641D01*
X52087Y-41105D01*
X54152Y-43169D01*
G37*
G36*
X32957Y-57543D02*
X35462Y-57543D01*
X37233Y-55772D01*
X37233Y-53267D01*
X36440Y-52473D01*
X36282Y-52242D01*
X36216Y-51946D01*
X36272Y-51648D01*
X36440Y-51395D01*
X37142Y-50693D01*
X37142Y-48188D01*
X36343Y-47389D01*
X36185Y-47158D01*
X36120Y-46862D01*
X36175Y-46564D01*
X36343Y-46311D01*
X37220Y-45434D01*
X37220Y-42929D01*
X35449Y-41157D01*
X32944Y-41157D01*
X31172Y-42929D01*
X31172Y-45434D01*
X31971Y-46233D01*
X32129Y-46463D01*
X32194Y-46759D01*
X32139Y-47058D01*
X31971Y-47310D01*
X31094Y-48188D01*
X31094Y-50693D01*
X31888Y-51487D01*
X32046Y-51717D01*
X32111Y-52013D01*
X32055Y-52312D01*
X31888Y-52564D01*
X31185Y-53267D01*
X31185Y-55772D01*
X32957Y-57543D01*
G37*
G36*
X60259Y-52070D02*
X63178Y-52070D01*
X65243Y-50005D01*
X65243Y-47086D01*
X63178Y-45022D01*
X60259Y-45022D01*
X58195Y-47086D01*
X58195Y-50005D01*
X60259Y-52070D01*
G37*
G36*
X-46138Y-53395D02*
X-43218Y-53395D01*
X-40952Y-51129D01*
X-40722Y-50971D01*
X-40426Y-50906D01*
X-40127Y-50961D01*
X-39875Y-51129D01*
X-38176Y-52827D01*
X-35050Y-52827D01*
X-32839Y-50617D01*
X-32839Y-47490D01*
X-35050Y-45279D01*
X-38176Y-45279D01*
X-40420Y-47523D01*
X-40434Y-47602D01*
X-40593Y-47860D01*
X-40840Y-48036D01*
X-41137Y-48101D01*
X-41435Y-48045D01*
X-41688Y-47878D01*
X-43218Y-46347D01*
X-46138Y-46347D01*
X-48202Y-48411D01*
X-48202Y-51331D01*
X-46138Y-53395D01*
G37*
G36*
X-22468Y-57505D02*
X-19963Y-57505D01*
X-18192Y-55733D01*
X-18192Y-53228D01*
X-19963Y-51457D01*
X-22468Y-51457D01*
X-24240Y-53228D01*
X-24240Y-55733D01*
X-22468Y-57505D01*
G37*
G36*
X43936Y-61250D02*
X46856Y-61250D01*
X48920Y-59186D01*
X48920Y-56266D01*
X46856Y-54202D01*
X43936Y-54202D01*
X41872Y-56266D01*
X41872Y-59186D01*
X43936Y-61250D01*
G37*
G36*
X-37540Y-65725D02*
X-33999Y-65725D01*
X-31496Y-63222D01*
X-31496Y-59681D01*
X-33999Y-57177D01*
X-37540Y-57177D01*
X-40044Y-59681D01*
X-40044Y-63222D01*
X-37540Y-65725D01*
G37*
G36*
X5340Y-79930D02*
X7846Y-79930D01*
X9617Y-78159D01*
X9617Y-75653D01*
X7846Y-73882D01*
X5340Y-73882D01*
X3569Y-75653D01*
X3569Y-78159D01*
X5340Y-79930D01*
G37*
G36*
X-134185Y-83777D02*
X-130644Y-83777D01*
X-128141Y-81273D01*
X-128141Y-77733D01*
X-130644Y-75229D01*
X-134185Y-75229D01*
X-136689Y-77733D01*
X-136689Y-81273D01*
X-134185Y-83777D01*
G37*
G36*
X-115725Y-83750D02*
X-112806Y-83750D01*
X-110741Y-81686D01*
X-110741Y-78767D01*
X-112806Y-76702D01*
X-115725Y-76702D01*
X-117789Y-78767D01*
X-117789Y-81686D01*
X-115725Y-83750D01*
G37*
G36*
X22991Y-94595D02*
X26532Y-94595D01*
X29035Y-92091D01*
X29035Y-88550D01*
X26532Y-86047D01*
X22991Y-86047D01*
X20487Y-88550D01*
X20487Y-92091D01*
X22991Y-94595D01*
G37*
G36*
X53611Y-98573D02*
X56530Y-98573D01*
X58594Y-96508D01*
X58594Y-93589D01*
X56530Y-91525D01*
X53611Y-91525D01*
X51546Y-93589D01*
X51546Y-96508D01*
X53611Y-98573D01*
G37*
G36*
X31988Y-101227D02*
X34907Y-101227D01*
X36971Y-99162D01*
X36971Y-96243D01*
X34907Y-94179D01*
X31988Y-94179D01*
X29923Y-96243D01*
X29923Y-99162D01*
X31988Y-101227D01*
G37*
G36*
X-103851Y-102102D02*
X-100932Y-102102D01*
X-98867Y-100038D01*
X-98867Y-97118D01*
X-100932Y-95054D01*
X-103851Y-95054D01*
X-105915Y-97118D01*
X-105915Y-100038D01*
X-103851Y-102102D01*
G37*
G36*
X14311Y-111293D02*
X17230Y-111293D01*
X19294Y-109229D01*
X19294Y-106309D01*
X17230Y-104245D01*
X14311Y-104245D01*
X12246Y-106309D01*
X12246Y-109229D01*
X14311Y-111293D01*
G37*
G36*
X25336Y-113859D02*
X28255Y-113859D01*
X30319Y-111795D01*
X30319Y-108876D01*
X28255Y-106811D01*
X25336Y-106811D01*
X23271Y-108876D01*
X23271Y-111795D01*
X25336Y-113859D01*
G37*
G36*
X86721Y-123784D02*
X89640Y-123784D01*
X91704Y-121720D01*
X91704Y-118800D01*
X89640Y-116736D01*
X86721Y-116736D01*
X84656Y-118800D01*
X84656Y-121720D01*
X86721Y-123784D01*
G37*
G36*
X-93143Y-129623D02*
X-90223Y-129623D01*
X-88159Y-127558D01*
X-88159Y-124639D01*
X-90223Y-122575D01*
X-93143Y-122575D01*
X-95207Y-124639D01*
X-95207Y-127558D01*
X-93143Y-129623D01*
G37*
G36*
X-49194Y-137241D02*
X-46068Y-137241D01*
X-43857Y-135030D01*
X-43857Y-131903D01*
X-46068Y-129693D01*
X-49194Y-129693D01*
X-51405Y-131903D01*
X-51405Y-135030D01*
X-49194Y-137241D01*
G37*
G36*
X-154917Y-152902D02*
X-151998Y-152902D01*
X-149934Y-150838D01*
X-149934Y-147918D01*
X-151998Y-145854D01*
X-154917Y-145854D01*
X-156982Y-147918D01*
X-156982Y-150838D01*
X-154917Y-152902D01*
G37*
G36*
X-177923Y-165274D02*
X-175004Y-165274D01*
X-172939Y-163209D01*
X-172939Y-160290D01*
X-175004Y-158226D01*
X-177923Y-158226D01*
X-179987Y-160290D01*
X-179987Y-163209D01*
X-177923Y-165274D01*
G37*
%LPD*%
D10*
X33575Y152480D03*
X-52825Y152480D03*
X33575Y110980D03*
X-52825Y110980D03*
D11*
X-98788Y-146774D03*
X-135744Y-146774D03*
X8903Y-146790D03*
X-28053Y-146790D03*
X122075Y-146718D03*
X85119Y-146718D03*
D12*
X31265Y-145843D03*
X-74683Y-148185D03*
X-186499Y-132437D03*
X144488Y-146925D03*
X40263Y66993D03*
X5001Y-101488D03*
X-110665Y80025D03*
X62851Y-77190D03*
X48032Y1168D03*
X-31130Y37312D03*
D13*
X-44538Y55002D03*
X-72423Y56416D03*
D12*
X-22443Y79477D03*
X-2857Y80988D03*
X-115680Y116403D03*
D13*
X-126312Y95529D03*
D12*
X-70404Y89586D03*
X-101994Y154253D03*
D13*
X55611Y-39645D03*
D14*
X34209Y-34594D03*
D13*
X-90149Y134495D03*
X-63932Y35898D03*
X61719Y-48546D03*
X-57886Y50214D03*
D14*
X34196Y-44181D03*
D12*
X-33631Y-19736D03*
X63417Y134350D03*
X-33631Y-29883D03*
X63516Y148568D03*
D14*
X6558Y-21520D03*
X54034Y56672D03*
X175194Y120689D03*
X59783Y56584D03*
D12*
X24761Y-90321D03*
X-35770Y-61451D03*
D13*
X15770Y-107769D03*
X-105457Y-15623D03*
X26795Y-110335D03*
D14*
X6593Y-76906D03*
D13*
X-110981Y-15623D03*
X55070Y-95049D03*
X33447Y-97703D03*
D14*
X34209Y-54519D03*
D13*
X-91264Y-15623D03*
X48023Y-37882D03*
D12*
X-36697Y31508D03*
D13*
X33645Y17695D03*
X20949Y44701D03*
X-17401Y46035D03*
X20712Y13919D03*
X88180Y-120260D03*
X22279Y-6895D03*
D14*
X21754Y-21363D03*
D15*
X-47631Y-133467D03*
D13*
X13415Y1394D03*
X-95977Y373D03*
X-102534Y7156D03*
D14*
X11473Y-21397D03*
D13*
X5245Y-1110D03*
X-111745Y14555D03*
X9675Y-7403D03*
X-1217Y27173D03*
X-890Y9179D03*
D15*
X-36613Y-49053D03*
D14*
X-21216Y-54481D03*
D12*
X-70034Y-28429D03*
X-179010Y95085D03*
D13*
X-110261Y63814D03*
X-52510Y-4122D03*
X-44678Y-49871D03*
X-60921Y12578D03*
D12*
X-132415Y-79503D03*
D14*
X-21174Y-24140D03*
D13*
X-91683Y-126099D03*
X-102391Y-98578D03*
X-114265Y-80226D03*
X-218547Y-130951D03*
X-176463Y-161750D03*
X-99043Y44076D03*
X-105152Y37966D03*
X-153458Y-149378D03*
D12*
X-49485Y72616D03*
X-75183Y155520D03*
X48396Y-9533D03*
X37385Y50939D03*
D14*
X34118Y-49440D03*
D12*
X-33288Y45031D03*
D13*
X-74770Y73473D03*
X-128468Y135638D03*
X-77068Y49319D03*
X45396Y-57726D03*
D14*
X-49770Y23254D03*
D13*
X-91445Y125947D03*
M02*
