G04 EAGLE Gerber RS-274X export*
G75*
%MOMM*%
%FSLAX34Y34*%
%LPD*%
%INCopper Layer 2*%
%IPPOS*%
%AMOC8*
5,1,8,0,0,1.08239X$1,22.5*%
G01*
G04 Define Apertures*
%ADD10C,1.158000*%
%ADD11C,1.066800*%
%ADD12C,0.550000*%
%ADD13C,0.400000*%
%ADD14C,0.300000*%
%ADD15C,0.150000*%
%ADD16C,0.300000*%
%ADD17C,0.450000*%
%ADD18C,0.152400*%
G36*
X-44204Y-170256D02*
X-44501Y-170315D01*
X-83610Y-170156D01*
X-83882Y-170105D01*
X-84137Y-169942D01*
X-84309Y-169691D01*
X-84369Y-169394D01*
X-84369Y-163054D01*
X-84359Y-160883D01*
X-85190Y-158876D01*
X-85191Y-158873D01*
X-86013Y-156862D01*
X-87550Y-155326D01*
X-87553Y-155323D01*
X-89080Y-153782D01*
X-91087Y-152950D01*
X-91090Y-152949D01*
X-92984Y-152154D01*
X-93211Y-152007D01*
X-93386Y-151760D01*
X-93451Y-151464D01*
X-93395Y-151166D01*
X-93228Y-150913D01*
X-92974Y-150659D01*
X-91930Y-148139D01*
X-91930Y-145410D01*
X-92974Y-142890D01*
X-94904Y-140960D01*
X-97424Y-139916D01*
X-100152Y-139916D01*
X-102673Y-140960D01*
X-104602Y-142890D01*
X-105646Y-145410D01*
X-105646Y-148139D01*
X-104602Y-150659D01*
X-104498Y-150763D01*
X-104344Y-150986D01*
X-104275Y-151281D01*
X-104328Y-151580D01*
X-104492Y-151835D01*
X-104743Y-152005D01*
X-105041Y-152064D01*
X-129387Y-151952D01*
X-129647Y-151905D01*
X-129905Y-151745D01*
X-130080Y-151498D01*
X-130145Y-151202D01*
X-130090Y-150904D01*
X-129935Y-150670D01*
X-128886Y-148139D01*
X-128886Y-145410D01*
X-129930Y-142890D01*
X-131860Y-140960D01*
X-134380Y-139916D01*
X-137108Y-139916D01*
X-139629Y-140960D01*
X-141558Y-142890D01*
X-142602Y-145410D01*
X-142602Y-148139D01*
X-141525Y-150738D01*
X-141479Y-150804D01*
X-141410Y-151099D01*
X-141461Y-151398D01*
X-141624Y-151654D01*
X-141874Y-151825D01*
X-142171Y-151886D01*
X-143712Y-151886D01*
X-145886Y-151876D01*
X-147892Y-152707D01*
X-147896Y-152708D01*
X-149906Y-153530D01*
X-151443Y-155067D01*
X-151445Y-155069D01*
X-152986Y-156597D01*
X-153818Y-158604D01*
X-153819Y-158607D01*
X-154659Y-160609D01*
X-154659Y-162784D01*
X-154670Y-165051D01*
X-154659Y-165104D01*
X-154659Y-169124D01*
X-154710Y-169398D01*
X-154874Y-169654D01*
X-155124Y-169825D01*
X-155421Y-169886D01*
X-163974Y-169886D01*
X-166298Y-169886D01*
X-166383Y-169881D01*
X-179360Y-168419D01*
X-179526Y-168381D01*
X-191852Y-164068D01*
X-192006Y-163994D01*
X-203063Y-157046D01*
X-203196Y-156940D01*
X-212430Y-147706D01*
X-212537Y-147572D01*
X-219484Y-136515D01*
X-219558Y-136362D01*
X-219864Y-135488D01*
X-219906Y-135261D01*
X-219855Y-134962D01*
X-219692Y-134707D01*
X-219442Y-134535D01*
X-219145Y-134475D01*
X-217087Y-134475D01*
X-215023Y-132410D01*
X-215023Y-129491D01*
X-217087Y-127427D01*
X-220007Y-127427D01*
X-221133Y-128553D01*
X-221397Y-128725D01*
X-221696Y-128776D01*
X-221991Y-128706D01*
X-222236Y-128527D01*
X-222391Y-128266D01*
X-223871Y-124036D01*
X-223909Y-123869D01*
X-225371Y-110893D01*
X-225376Y-110808D01*
X-225376Y-86492D01*
X-225325Y-86217D01*
X-225162Y-85961D01*
X-224911Y-85790D01*
X-224614Y-85730D01*
X-164126Y-85730D01*
X-160111Y-84067D01*
X-157039Y-80994D01*
X-155376Y-76980D01*
X-155376Y65365D01*
X-157039Y69379D01*
X-160111Y72452D01*
X-160821Y72745D01*
X-161059Y72902D01*
X-161231Y73152D01*
X-161291Y73449D01*
X-161291Y157508D01*
X-161240Y157783D01*
X-161076Y158039D01*
X-160826Y158210D01*
X-160529Y158270D01*
X-124634Y158270D01*
X-124371Y158223D01*
X-124113Y158064D01*
X-123938Y157817D01*
X-123872Y157521D01*
X-123928Y157222D01*
X-124096Y156970D01*
X-142310Y138755D01*
X-142310Y107250D01*
X-130059Y94999D01*
X-129897Y94758D01*
X-129836Y94461D01*
X-129836Y94069D01*
X-127772Y92005D01*
X-124853Y92005D01*
X-122788Y94069D01*
X-122788Y96988D01*
X-124853Y99053D01*
X-125244Y99053D01*
X-125530Y99108D01*
X-125783Y99276D01*
X-136039Y109532D01*
X-136202Y109774D01*
X-136262Y110071D01*
X-136262Y135934D01*
X-136207Y136220D01*
X-136039Y136473D01*
X-121764Y150748D01*
X-121523Y150910D01*
X-121226Y150971D01*
X-105072Y150971D01*
X-104786Y150915D01*
X-104533Y150748D01*
X-103764Y149979D01*
X-100224Y149979D01*
X-99455Y150748D01*
X-99213Y150910D01*
X-98916Y150971D01*
X-85035Y150971D01*
X-84749Y150915D01*
X-84496Y150748D01*
X-74800Y141052D01*
X-74690Y140912D01*
X-74585Y140627D01*
X-67632Y94736D01*
X-67674Y94347D01*
X-67838Y94092D01*
X-68088Y93920D01*
X-68385Y93860D01*
X-72174Y93860D01*
X-74678Y91356D01*
X-74678Y87816D01*
X-72174Y85312D01*
X-68633Y85312D01*
X-67607Y86339D01*
X-67365Y86502D01*
X-67068Y86562D01*
X-64251Y86562D01*
X-62759Y88053D01*
X-62619Y88164D01*
X-62335Y88268D01*
X-62326Y88269D01*
X-61752Y89048D01*
X-61678Y89135D01*
X-60994Y89819D01*
X-60994Y89827D01*
X-60973Y90004D01*
X-60845Y90279D01*
X-60840Y90286D01*
X-60985Y91242D01*
X-60994Y91357D01*
X-60994Y92324D01*
X-61000Y92330D01*
X-61110Y92470D01*
X-61214Y92755D01*
X-62584Y101792D01*
X-62545Y102170D01*
X-62386Y102428D01*
X-62139Y102603D01*
X-61842Y102668D01*
X-61544Y102613D01*
X-61292Y102445D01*
X-52732Y93886D01*
X-52569Y93644D01*
X-52509Y93347D01*
X-52509Y75951D01*
X-52565Y75666D01*
X-52732Y75413D01*
X-53759Y74386D01*
X-53759Y70845D01*
X-53570Y70656D01*
X-53414Y70431D01*
X-53347Y70135D01*
X-53400Y69837D01*
X-53566Y69583D01*
X-53817Y69413D01*
X-59758Y66953D01*
X-69997Y56714D01*
X-71597Y52851D01*
X-71597Y49391D01*
X-70548Y46860D01*
X-64411Y40723D01*
X-64258Y40503D01*
X-64188Y40208D01*
X-64239Y39909D01*
X-64403Y39654D01*
X-64653Y39482D01*
X-64950Y39422D01*
X-65392Y39422D01*
X-67456Y37358D01*
X-67456Y34438D01*
X-65392Y32374D01*
X-65053Y32374D01*
X-64849Y32346D01*
X-64579Y32209D01*
X-64384Y31977D01*
X-51146Y7709D01*
X-51053Y7344D01*
X-51053Y7176D01*
X-50696Y6819D01*
X-50566Y6645D01*
X-50325Y6202D01*
X-50164Y6155D01*
X-49840Y5963D01*
X-49721Y5844D01*
X-49217Y5844D01*
X-49002Y5813D01*
X-48517Y5671D01*
X-48370Y5751D01*
X-48005Y5844D01*
X-40123Y5844D01*
X-39837Y5788D01*
X-39585Y5621D01*
X-24311Y-9653D01*
X-24158Y-9872D01*
X-24088Y-10167D01*
X-24139Y-10466D01*
X-24303Y-10722D01*
X-24553Y-10893D01*
X-24850Y-10954D01*
X-25063Y-10954D01*
X-25158Y-10948D01*
X-25925Y-10851D01*
X-25996Y-10893D01*
X-26169Y-10928D01*
X-26726Y-11485D01*
X-26798Y-11548D01*
X-31630Y-15302D01*
X-31800Y-15402D01*
X-32097Y-15462D01*
X-35401Y-15462D01*
X-37905Y-17966D01*
X-37905Y-21507D01*
X-35401Y-24010D01*
X-33112Y-24010D01*
X-32886Y-24045D01*
X-32620Y-24190D01*
X-32432Y-24428D01*
X-32352Y-24721D01*
X-32392Y-25021D01*
X-32546Y-25283D01*
X-32613Y-25357D01*
X-32882Y-25548D01*
X-33179Y-25609D01*
X-35401Y-25609D01*
X-37905Y-28112D01*
X-37905Y-31653D01*
X-37194Y-32364D01*
X-37041Y-32583D01*
X-36971Y-32878D01*
X-37022Y-33177D01*
X-37186Y-33433D01*
X-37436Y-33604D01*
X-37733Y-33665D01*
X-67385Y-33665D01*
X-67649Y-33618D01*
X-67907Y-33458D01*
X-68082Y-33211D01*
X-68147Y-32915D01*
X-68092Y-32617D01*
X-67924Y-32364D01*
X-65760Y-30200D01*
X-65760Y-26659D01*
X-68264Y-24155D01*
X-71804Y-24155D01*
X-74308Y-26659D01*
X-74308Y-30200D01*
X-72144Y-32364D01*
X-71991Y-32583D01*
X-71921Y-32878D01*
X-71972Y-33177D01*
X-72135Y-33433D01*
X-72385Y-33604D01*
X-72683Y-33665D01*
X-89792Y-33665D01*
X-131133Y-75006D01*
X-131375Y-75169D01*
X-131672Y-75229D01*
X-134185Y-75229D01*
X-136689Y-77733D01*
X-136689Y-81273D01*
X-134185Y-83777D01*
X-130644Y-83777D01*
X-128141Y-81273D01*
X-128141Y-78761D01*
X-128085Y-78475D01*
X-127917Y-78222D01*
X-88131Y-38436D01*
X-87890Y-38273D01*
X-87593Y-38213D01*
X-30181Y-38213D01*
X-25301Y-33333D01*
X-25301Y-31858D01*
X-25247Y-31576D01*
X-25081Y-31322D01*
X-21191Y-27390D01*
X-20947Y-27225D01*
X-20649Y-27164D01*
X-19922Y-27164D01*
X-18266Y-25508D01*
X-18035Y-25350D01*
X-17739Y-25285D01*
X-17441Y-25341D01*
X-17188Y-25508D01*
X30712Y-73408D01*
X64926Y-73408D01*
X81951Y-56383D01*
X81951Y-7678D01*
X70938Y3335D01*
X70775Y3577D01*
X70715Y3874D01*
X70715Y137373D01*
X65290Y142798D01*
X65127Y143039D01*
X65067Y143336D01*
X65067Y143759D01*
X65123Y144045D01*
X65290Y144298D01*
X67790Y146798D01*
X67790Y150338D01*
X65286Y152842D01*
X61745Y152842D01*
X59242Y150338D01*
X59242Y146798D01*
X60296Y145744D01*
X60459Y145502D01*
X60519Y145205D01*
X60519Y141137D01*
X61800Y139856D01*
X61958Y139625D01*
X62023Y139329D01*
X61968Y139031D01*
X61800Y138778D01*
X59143Y136121D01*
X59143Y132580D01*
X61059Y130663D01*
X61222Y130421D01*
X61283Y130124D01*
X61283Y60370D01*
X61231Y60095D01*
X61068Y59840D01*
X60818Y59668D01*
X60521Y59608D01*
X58530Y59608D01*
X57491Y58569D01*
X57261Y58411D01*
X56965Y58346D01*
X56667Y58402D01*
X56414Y58569D01*
X55287Y59696D01*
X52782Y59696D01*
X52715Y59630D01*
X52322Y59421D01*
X52019Y59423D01*
X38536Y62277D01*
X38339Y62348D01*
X38229Y62438D01*
X37412Y62519D01*
X37330Y62532D01*
X36542Y62699D01*
X36486Y62673D01*
X36184Y62642D01*
X-30722Y69335D01*
X-30932Y69387D01*
X-31034Y69454D01*
X-31875Y69454D01*
X-31951Y69458D01*
X-32771Y69540D01*
X-32813Y69514D01*
X-33110Y69454D01*
X-44763Y69454D01*
X-45026Y69501D01*
X-45284Y69660D01*
X-45459Y69908D01*
X-45524Y70204D01*
X-45469Y70502D01*
X-45301Y70755D01*
X-45211Y70845D01*
X-45211Y74386D01*
X-46238Y75413D01*
X-46401Y75654D01*
X-46461Y75951D01*
X-46461Y96168D01*
X-51643Y101350D01*
X-51796Y101569D01*
X-51866Y101864D01*
X-51815Y102163D01*
X-51651Y102419D01*
X-51401Y102590D01*
X-51229Y102625D01*
X-48106Y103919D01*
X-47483Y104542D01*
X-47252Y104700D01*
X-46956Y104765D01*
X-46658Y104710D01*
X-46405Y104542D01*
X-46263Y104400D01*
X-41242Y102320D01*
X-35808Y102320D01*
X-30787Y104400D01*
X-26944Y108243D01*
X-24865Y113263D01*
X-24865Y118698D01*
X-26944Y123718D01*
X-30787Y127561D01*
X-35808Y129640D01*
X-41242Y129640D01*
X-46263Y127561D01*
X-50105Y123718D01*
X-51736Y119781D01*
X-51893Y119542D01*
X-52063Y119426D01*
X-52063Y110218D01*
X-53587Y110218D01*
X-53587Y119310D01*
X-54482Y119310D01*
X-57543Y118042D01*
X-57575Y118011D01*
X-57794Y117858D01*
X-58089Y117788D01*
X-58388Y117839D01*
X-58643Y118003D01*
X-58815Y118253D01*
X-58875Y118550D01*
X-58875Y143490D01*
X-70686Y155300D01*
X-70848Y155541D01*
X-70909Y155839D01*
X-70909Y157508D01*
X-70857Y157783D01*
X-70694Y158039D01*
X-70444Y158210D01*
X-70147Y158270D01*
X-60583Y158270D01*
X-60314Y158221D01*
X-60057Y158060D01*
X-59884Y157811D01*
X-59821Y157514D01*
X-59879Y157217D01*
X-61155Y154137D01*
X-61155Y153242D01*
X-44495Y153242D01*
X-44495Y154137D01*
X-45770Y157217D01*
X-45828Y157484D01*
X-45777Y157783D01*
X-45614Y158039D01*
X-45364Y158210D01*
X-45066Y158270D01*
X25817Y158270D01*
X26086Y158221D01*
X26343Y158060D01*
X26516Y157811D01*
X26579Y157514D01*
X26521Y157217D01*
X25245Y154137D01*
X25245Y153242D01*
X41905Y153242D01*
X41905Y154137D01*
X40630Y157217D01*
X40572Y157484D01*
X40623Y157783D01*
X40786Y158039D01*
X41036Y158210D01*
X41334Y158270D01*
X85783Y158270D01*
X86041Y158226D01*
X86300Y158068D01*
X86477Y157822D01*
X86545Y157527D01*
X86491Y157228D01*
X86326Y156974D01*
X86074Y156804D01*
X82456Y155306D01*
X76151Y149000D01*
X72739Y140762D01*
X72739Y131845D01*
X76151Y123606D01*
X81089Y118668D01*
X81249Y118432D01*
X81312Y118135D01*
X81254Y117838D01*
X79659Y113985D01*
X79659Y107821D01*
X81254Y103969D01*
X81312Y103689D01*
X81257Y103391D01*
X81089Y103138D01*
X76151Y98200D01*
X72739Y89962D01*
X72739Y81045D01*
X76151Y72806D01*
X82456Y66501D01*
X90695Y63088D01*
X99612Y63088D01*
X107851Y66501D01*
X110490Y69140D01*
X110720Y69298D01*
X111016Y69363D01*
X111314Y69307D01*
X111567Y69140D01*
X114206Y66501D01*
X122445Y63088D01*
X131362Y63088D01*
X139601Y66501D01*
X145906Y72806D01*
X149319Y81045D01*
X149319Y84856D01*
X149372Y85137D01*
X149537Y85391D01*
X149789Y85560D01*
X154731Y87607D01*
X159090Y91966D01*
X161449Y97661D01*
X161449Y103825D01*
X159090Y109520D01*
X158246Y110364D01*
X158088Y110595D01*
X158022Y110891D01*
X158078Y111189D01*
X158246Y111442D01*
X159090Y112286D01*
X161449Y117981D01*
X161449Y124145D01*
X159090Y129840D01*
X154731Y134199D01*
X149789Y136246D01*
X149550Y136403D01*
X149379Y136653D01*
X149319Y136950D01*
X149319Y140762D01*
X145906Y149000D01*
X139601Y155306D01*
X135983Y156804D01*
X135762Y156944D01*
X135582Y157189D01*
X135513Y157484D01*
X135563Y157783D01*
X135727Y158039D01*
X135977Y158210D01*
X136274Y158270D01*
X153702Y158270D01*
X153787Y158266D01*
X166764Y156804D01*
X166930Y156766D01*
X179256Y152453D01*
X179410Y152379D01*
X190467Y145431D01*
X190600Y145325D01*
X199834Y136091D01*
X199940Y135957D01*
X206888Y124900D01*
X206962Y124746D01*
X211275Y112421D01*
X211313Y112254D01*
X212775Y99278D01*
X212780Y99192D01*
X212780Y-110808D01*
X212775Y-110893D01*
X211313Y-123869D01*
X211275Y-124036D01*
X206962Y-136362D01*
X206888Y-136515D01*
X199940Y-147572D01*
X199834Y-147706D01*
X190600Y-156940D01*
X190467Y-157046D01*
X179410Y-163994D01*
X179256Y-164068D01*
X166930Y-168381D01*
X166764Y-168419D01*
X153787Y-169881D01*
X153702Y-169886D01*
X153693Y-169886D01*
X136992Y-169877D01*
X136718Y-169825D01*
X136462Y-169662D01*
X136291Y-169412D01*
X136231Y-169115D01*
X136231Y-165112D01*
X136232Y-165104D01*
X136231Y-162793D01*
X136231Y-160616D01*
X135399Y-158611D01*
X135398Y-158611D01*
X134566Y-156602D01*
X133037Y-155075D01*
X133036Y-155074D01*
X131493Y-153530D01*
X129483Y-152700D01*
X129482Y-152699D01*
X127927Y-152055D01*
X127697Y-151907D01*
X127522Y-151660D01*
X127457Y-151363D01*
X127513Y-151065D01*
X127680Y-150812D01*
X127889Y-150603D01*
X128933Y-148083D01*
X128933Y-145354D01*
X127889Y-142834D01*
X125960Y-140904D01*
X123440Y-139860D01*
X120711Y-139860D01*
X118191Y-140904D01*
X116262Y-142834D01*
X115217Y-145354D01*
X115217Y-148083D01*
X116273Y-150631D01*
X116388Y-150795D01*
X116458Y-151091D01*
X116407Y-151390D01*
X116244Y-151645D01*
X115994Y-151817D01*
X115697Y-151877D01*
X91482Y-151895D01*
X91218Y-151848D01*
X90960Y-151689D01*
X90784Y-151441D01*
X90719Y-151145D01*
X90775Y-150847D01*
X90928Y-150615D01*
X91977Y-148083D01*
X91977Y-145354D01*
X90933Y-142834D01*
X89004Y-140904D01*
X86484Y-139860D01*
X83755Y-139860D01*
X81235Y-140904D01*
X79306Y-142834D01*
X78261Y-145354D01*
X78261Y-148083D01*
X79306Y-150603D01*
X79306Y-150603D01*
X79458Y-150822D01*
X79528Y-151117D01*
X79478Y-151416D01*
X79315Y-151672D01*
X79065Y-151844D01*
X78767Y-151904D01*
X77188Y-151905D01*
X75009Y-151905D01*
X73004Y-152737D01*
X73004Y-152737D01*
X70995Y-153570D01*
X69468Y-155099D01*
X69467Y-155099D01*
X67924Y-156643D01*
X67093Y-158653D01*
X67093Y-158653D01*
X66262Y-160659D01*
X66264Y-162835D01*
X66264Y-169184D01*
X66213Y-169457D01*
X66051Y-169713D01*
X65801Y-169885D01*
X65504Y-169946D01*
X26888Y-170083D01*
X26610Y-170032D01*
X26355Y-169868D01*
X26183Y-169618D01*
X26123Y-169321D01*
X26123Y-165340D01*
X26134Y-165283D01*
X26123Y-163020D01*
X26123Y-160845D01*
X25283Y-158846D01*
X25281Y-158842D01*
X24449Y-156833D01*
X22908Y-155307D01*
X22905Y-155304D01*
X21368Y-153767D01*
X19356Y-152945D01*
X19352Y-152944D01*
X17347Y-152113D01*
X15174Y-152124D01*
X15107Y-152124D01*
X14844Y-152077D01*
X14586Y-151918D01*
X14411Y-151670D01*
X14346Y-151374D01*
X14401Y-151076D01*
X14569Y-150823D01*
X14717Y-150675D01*
X15761Y-148154D01*
X15761Y-145426D01*
X14717Y-142905D01*
X12788Y-140976D01*
X10267Y-139932D01*
X7539Y-139932D01*
X5018Y-140976D01*
X3089Y-142905D01*
X2045Y-145426D01*
X2045Y-148154D01*
X3089Y-150675D01*
X3299Y-150885D01*
X3451Y-151101D01*
X3522Y-151396D01*
X3472Y-151695D01*
X3310Y-151951D01*
X3061Y-152124D01*
X2764Y-152186D01*
X-22030Y-152309D01*
X-22297Y-152262D01*
X-22555Y-152102D01*
X-22730Y-151855D01*
X-22795Y-151559D01*
X-22740Y-151261D01*
X-22572Y-151008D01*
X-22239Y-150675D01*
X-21195Y-148154D01*
X-21195Y-145426D01*
X-22239Y-142905D01*
X-24168Y-140976D01*
X-26689Y-139932D01*
X-29417Y-139932D01*
X-31938Y-140976D01*
X-33867Y-142905D01*
X-34911Y-145426D01*
X-34911Y-148154D01*
X-33867Y-150675D01*
X-33480Y-151062D01*
X-33327Y-151281D01*
X-33257Y-151576D01*
X-33308Y-151875D01*
X-33472Y-152131D01*
X-33722Y-152302D01*
X-34019Y-152362D01*
X-35015Y-152362D01*
X-37015Y-153202D01*
X-37018Y-153204D01*
X-39027Y-154036D01*
X-40554Y-155578D01*
X-40556Y-155580D01*
X-42093Y-157118D01*
X-42915Y-159130D01*
X-42917Y-159133D01*
X-43747Y-161138D01*
X-43736Y-163310D01*
X-43736Y-169553D01*
X-43789Y-169830D01*
X-43953Y-170085D01*
X-44204Y-170256D01*
G37*
%LPC*%
G36*
X-54482Y144150D02*
X-53587Y144150D01*
X-53587Y151718D01*
X-61155Y151718D01*
X-61155Y150824D01*
X-59887Y147762D01*
X-57543Y145419D01*
X-54482Y144150D01*
G37*
G36*
X34337Y144150D02*
X35232Y144150D01*
X38294Y145419D01*
X40637Y147762D01*
X41905Y150824D01*
X41905Y151718D01*
X34337Y151718D01*
X34337Y144150D01*
G37*
G36*
X31918Y144150D02*
X32813Y144150D01*
X32813Y151718D01*
X25245Y151718D01*
X25245Y150824D01*
X26513Y147762D01*
X28857Y145419D01*
X31918Y144150D01*
G37*
G36*
X-52063Y144150D02*
X-51168Y144150D01*
X-48106Y145419D01*
X-45763Y147762D01*
X-44495Y150824D01*
X-44495Y151718D01*
X-52063Y151718D01*
X-52063Y144150D01*
G37*
G36*
X-129927Y132114D02*
X-127008Y132114D01*
X-124944Y134178D01*
X-124944Y137097D01*
X-127008Y139162D01*
X-129927Y139162D01*
X-131992Y137097D01*
X-131992Y134178D01*
X-129927Y132114D01*
G37*
G36*
X-92905Y122423D02*
X-89985Y122423D01*
X-87921Y124488D01*
X-87921Y127407D01*
X-90185Y129671D01*
X-90338Y129890D01*
X-90407Y130185D01*
X-90356Y130484D01*
X-90193Y130739D01*
X-89943Y130911D01*
X-89646Y130971D01*
X-88689Y130971D01*
X-86625Y133036D01*
X-86625Y135955D01*
X-88689Y138019D01*
X-91609Y138019D01*
X-93673Y135955D01*
X-93673Y133036D01*
X-91409Y130772D01*
X-91256Y130553D01*
X-91186Y130258D01*
X-91237Y129959D01*
X-91401Y129703D01*
X-91651Y129532D01*
X-91948Y129471D01*
X-92905Y129471D01*
X-94969Y127407D01*
X-94969Y124488D01*
X-92905Y122423D01*
G37*
G36*
X16558Y102320D02*
X21992Y102320D01*
X27013Y104400D01*
X27155Y104542D01*
X27386Y104700D01*
X27682Y104765D01*
X27980Y104710D01*
X28233Y104542D01*
X28857Y103919D01*
X31918Y102650D01*
X32813Y102650D01*
X32813Y119427D01*
X32656Y119529D01*
X32487Y119781D01*
X30856Y123718D01*
X27013Y127561D01*
X21992Y129640D01*
X16558Y129640D01*
X11537Y127561D01*
X7695Y123718D01*
X5615Y118698D01*
X5615Y113263D01*
X7695Y108243D01*
X11537Y104400D01*
X16558Y102320D01*
G37*
G36*
X173941Y117665D02*
X176446Y117665D01*
X178218Y119437D01*
X178218Y121942D01*
X176446Y123713D01*
X173941Y123713D01*
X172170Y121942D01*
X172170Y119437D01*
X173941Y117665D01*
G37*
G36*
X34337Y111742D02*
X41905Y111742D01*
X41905Y112637D01*
X40637Y115699D01*
X38294Y118042D01*
X35232Y119310D01*
X34337Y119310D01*
X34337Y111742D01*
G37*
G36*
X34337Y102650D02*
X35232Y102650D01*
X38294Y103919D01*
X40637Y106262D01*
X41905Y109324D01*
X41905Y110218D01*
X34337Y110218D01*
X34337Y102650D01*
G37*
G36*
X-76230Y69949D02*
X-73310Y69949D01*
X-71246Y72014D01*
X-71246Y74933D01*
X-73310Y76997D01*
X-76230Y76997D01*
X-78294Y74933D01*
X-78294Y72014D01*
X-76230Y69949D01*
G37*
G36*
X-111720Y60290D02*
X-108801Y60290D01*
X-106737Y62354D01*
X-106737Y65273D01*
X-108801Y67338D01*
X-111720Y67338D01*
X-113785Y65273D01*
X-113785Y62354D01*
X-111720Y60290D01*
G37*
G36*
X-78527Y45795D02*
X-75608Y45795D01*
X-73544Y47860D01*
X-73544Y50779D01*
X-75608Y52843D01*
X-78527Y52843D01*
X-80592Y50779D01*
X-80592Y47860D01*
X-78527Y45795D01*
G37*
G36*
X-100503Y40552D02*
X-97583Y40552D01*
X-95519Y42616D01*
X-95519Y45535D01*
X-97583Y47600D01*
X-100503Y47600D01*
X-102567Y45535D01*
X-102567Y42616D01*
X-100503Y40552D01*
G37*
G36*
X-106612Y34442D02*
X-103693Y34442D01*
X-101628Y36507D01*
X-101628Y39426D01*
X-103693Y41490D01*
X-106612Y41490D01*
X-108676Y39426D01*
X-108676Y36507D01*
X-106612Y34442D01*
G37*
G36*
X-113204Y11031D02*
X-110285Y11031D01*
X-108221Y13095D01*
X-108221Y16015D01*
X-110285Y18079D01*
X-113204Y18079D01*
X-115269Y16015D01*
X-115269Y13095D01*
X-113204Y11031D01*
G37*
G36*
X-62380Y9054D02*
X-59461Y9054D01*
X-57397Y11119D01*
X-57397Y14038D01*
X-59461Y16102D01*
X-62380Y16102D01*
X-64445Y14038D01*
X-64445Y11119D01*
X-62380Y9054D01*
G37*
G36*
X-103994Y3632D02*
X-101074Y3632D01*
X-99010Y5697D01*
X-99010Y8616D01*
X-101074Y10680D01*
X-103994Y10680D01*
X-106058Y8616D01*
X-106058Y5697D01*
X-103994Y3632D01*
G37*
G36*
X-97437Y-3151D02*
X-94517Y-3151D01*
X-92453Y-1087D01*
X-92453Y1832D01*
X-94517Y3897D01*
X-97437Y3897D01*
X-99501Y1832D01*
X-99501Y-1087D01*
X-97437Y-3151D01*
G37*
G36*
X-53970Y-7646D02*
X-51050Y-7646D01*
X-48986Y-5582D01*
X-48986Y-2662D01*
X-51050Y-598D01*
X-53970Y-598D01*
X-56034Y-2662D01*
X-56034Y-5582D01*
X-53970Y-7646D01*
G37*
G36*
X-92723Y-19147D02*
X-89804Y-19147D01*
X-87740Y-17083D01*
X-87740Y-14163D01*
X-89804Y-12099D01*
X-92723Y-12099D01*
X-94788Y-14163D01*
X-94788Y-17083D01*
X-92723Y-19147D01*
G37*
G36*
X-112440Y-19147D02*
X-109521Y-19147D01*
X-108757Y-18383D01*
X-108527Y-18225D01*
X-108231Y-18160D01*
X-107933Y-18216D01*
X-107680Y-18383D01*
X-106916Y-19147D01*
X-103997Y-19147D01*
X-101933Y-17083D01*
X-101933Y-14163D01*
X-103997Y-12099D01*
X-106916Y-12099D01*
X-107680Y-12862D01*
X-107910Y-13020D01*
X-108206Y-13086D01*
X-108505Y-13030D01*
X-108757Y-12862D01*
X-109521Y-12099D01*
X-112440Y-12099D01*
X-114505Y-14163D01*
X-114505Y-17083D01*
X-112440Y-19147D01*
G37*
G36*
X-46138Y-53395D02*
X-43218Y-53395D01*
X-40952Y-51129D01*
X-40722Y-50971D01*
X-40426Y-50906D01*
X-40127Y-50961D01*
X-39875Y-51129D01*
X-38176Y-52827D01*
X-35050Y-52827D01*
X-32839Y-50617D01*
X-32839Y-47490D01*
X-35050Y-45279D01*
X-38176Y-45279D01*
X-40420Y-47523D01*
X-40434Y-47602D01*
X-40593Y-47860D01*
X-40840Y-48036D01*
X-41137Y-48101D01*
X-41435Y-48045D01*
X-41688Y-47878D01*
X-43218Y-46347D01*
X-46138Y-46347D01*
X-48202Y-48411D01*
X-48202Y-51331D01*
X-46138Y-53395D01*
G37*
G36*
X-22468Y-57505D02*
X-19963Y-57505D01*
X-18192Y-55733D01*
X-18192Y-53228D01*
X-19963Y-51457D01*
X-22468Y-51457D01*
X-24240Y-53228D01*
X-24240Y-55733D01*
X-22468Y-57505D01*
G37*
G36*
X-37540Y-65725D02*
X-33999Y-65725D01*
X-31496Y-63222D01*
X-31496Y-59681D01*
X-33999Y-57177D01*
X-37540Y-57177D01*
X-40044Y-59681D01*
X-40044Y-63222D01*
X-37540Y-65725D01*
G37*
G36*
X5340Y-79930D02*
X7846Y-79930D01*
X9617Y-78159D01*
X9617Y-75653D01*
X7846Y-73882D01*
X5340Y-73882D01*
X3569Y-75653D01*
X3569Y-78159D01*
X5340Y-79930D01*
G37*
G36*
X-115725Y-83750D02*
X-112806Y-83750D01*
X-110741Y-81686D01*
X-110741Y-78767D01*
X-112806Y-76702D01*
X-115725Y-76702D01*
X-117789Y-78767D01*
X-117789Y-81686D01*
X-115725Y-83750D01*
G37*
G36*
X22991Y-94595D02*
X26532Y-94595D01*
X29035Y-92091D01*
X29035Y-88550D01*
X26532Y-86047D01*
X22991Y-86047D01*
X20487Y-88550D01*
X20487Y-92091D01*
X22991Y-94595D01*
G37*
G36*
X53611Y-98573D02*
X56530Y-98573D01*
X58594Y-96508D01*
X58594Y-93589D01*
X56530Y-91525D01*
X53611Y-91525D01*
X51546Y-93589D01*
X51546Y-96508D01*
X53611Y-98573D01*
G37*
G36*
X31988Y-101227D02*
X34907Y-101227D01*
X36971Y-99162D01*
X36971Y-96243D01*
X34907Y-94179D01*
X31988Y-94179D01*
X29923Y-96243D01*
X29923Y-99162D01*
X31988Y-101227D01*
G37*
G36*
X-103851Y-102102D02*
X-100932Y-102102D01*
X-98867Y-100038D01*
X-98867Y-97118D01*
X-100932Y-95054D01*
X-103851Y-95054D01*
X-105915Y-97118D01*
X-105915Y-100038D01*
X-103851Y-102102D01*
G37*
G36*
X14311Y-111293D02*
X17230Y-111293D01*
X19294Y-109229D01*
X19294Y-106309D01*
X17230Y-104245D01*
X14311Y-104245D01*
X12246Y-106309D01*
X12246Y-109229D01*
X14311Y-111293D01*
G37*
G36*
X25336Y-113859D02*
X28255Y-113859D01*
X30319Y-111795D01*
X30319Y-108876D01*
X28255Y-106811D01*
X25336Y-106811D01*
X23271Y-108876D01*
X23271Y-111795D01*
X25336Y-113859D01*
G37*
G36*
X86721Y-123784D02*
X89640Y-123784D01*
X91704Y-121720D01*
X91704Y-118800D01*
X89640Y-116736D01*
X86721Y-116736D01*
X84656Y-118800D01*
X84656Y-121720D01*
X86721Y-123784D01*
G37*
G36*
X-93143Y-129623D02*
X-90223Y-129623D01*
X-88159Y-127558D01*
X-88159Y-124639D01*
X-90223Y-122575D01*
X-93143Y-122575D01*
X-95207Y-124639D01*
X-95207Y-127558D01*
X-93143Y-129623D01*
G37*
G36*
X-49194Y-137241D02*
X-46068Y-137241D01*
X-43857Y-135030D01*
X-43857Y-131903D01*
X-46068Y-129693D01*
X-49194Y-129693D01*
X-51405Y-131903D01*
X-51405Y-135030D01*
X-49194Y-137241D01*
G37*
G36*
X-154917Y-152902D02*
X-151998Y-152902D01*
X-149934Y-150838D01*
X-149934Y-147918D01*
X-151998Y-145854D01*
X-154917Y-145854D01*
X-156982Y-147918D01*
X-156982Y-150838D01*
X-154917Y-152902D01*
G37*
G36*
X-177923Y-165274D02*
X-175004Y-165274D01*
X-172939Y-163209D01*
X-172939Y-160290D01*
X-175004Y-158226D01*
X-177923Y-158226D01*
X-179987Y-160290D01*
X-179987Y-163209D01*
X-177923Y-165274D01*
G37*
%LPD*%
G36*
X61099Y-60698D02*
X60802Y-60758D01*
X49187Y-60758D01*
X48924Y-60711D01*
X48666Y-60552D01*
X48491Y-60304D01*
X48426Y-60008D01*
X48481Y-59710D01*
X48649Y-59457D01*
X48920Y-59186D01*
X48920Y-56266D01*
X46856Y-54202D01*
X43936Y-54202D01*
X41677Y-56462D01*
X41657Y-56492D01*
X41407Y-56664D01*
X41110Y-56724D01*
X37995Y-56724D01*
X37721Y-56673D01*
X37465Y-56509D01*
X37294Y-56259D01*
X37233Y-55962D01*
X37233Y-53267D01*
X36440Y-52473D01*
X36282Y-52242D01*
X36216Y-51946D01*
X36272Y-51648D01*
X36440Y-51395D01*
X37142Y-50693D01*
X37142Y-48188D01*
X36343Y-47389D01*
X36185Y-47158D01*
X36120Y-46862D01*
X36175Y-46564D01*
X36343Y-46311D01*
X37220Y-45434D01*
X37220Y-45217D01*
X37269Y-44948D01*
X37431Y-44691D01*
X37679Y-44517D01*
X37976Y-44455D01*
X38274Y-44513D01*
X41881Y-46007D01*
X49323Y-46007D01*
X49465Y-46020D01*
X50110Y-46143D01*
X50115Y-46139D01*
X50544Y-46007D01*
X50551Y-46007D01*
X51015Y-45543D01*
X51125Y-45452D01*
X54282Y-43301D01*
X54711Y-43169D01*
X57071Y-43169D01*
X59135Y-41105D01*
X59135Y-38186D01*
X57071Y-36121D01*
X54152Y-36121D01*
X52848Y-37425D01*
X52629Y-37578D01*
X52334Y-37648D01*
X52035Y-37597D01*
X51779Y-37433D01*
X51608Y-37183D01*
X51547Y-36886D01*
X51547Y-36422D01*
X49483Y-34358D01*
X46564Y-34358D01*
X44499Y-36422D01*
X44499Y-39341D01*
X45163Y-40005D01*
X45365Y-40365D01*
X45376Y-40668D01*
X45268Y-40952D01*
X45057Y-41170D01*
X44779Y-41290D01*
X44475Y-41291D01*
X40519Y-40504D01*
X40244Y-40390D01*
X37026Y-38240D01*
X36769Y-37949D01*
X36689Y-37656D01*
X36634Y-36813D01*
X36688Y-36477D01*
X36856Y-36225D01*
X37233Y-35847D01*
X37233Y-33342D01*
X35462Y-31570D01*
X32957Y-31570D01*
X31185Y-33342D01*
X31185Y-35119D01*
X31138Y-35382D01*
X30979Y-35640D01*
X30732Y-35815D01*
X30436Y-35880D01*
X30137Y-35825D01*
X29885Y-35657D01*
X29373Y-35146D01*
X29210Y-34905D01*
X29150Y-34607D01*
X29150Y-2934D01*
X14435Y11782D01*
X11661Y11782D01*
X11375Y11837D01*
X11122Y12005D01*
X399Y22728D01*
X241Y22958D01*
X176Y23254D01*
X232Y23552D01*
X399Y23805D01*
X2307Y25713D01*
X2307Y28632D01*
X242Y30697D01*
X-2677Y30697D01*
X-4585Y28789D01*
X-4815Y28631D01*
X-5111Y28566D01*
X-5409Y28622D01*
X-5662Y28789D01*
X-18084Y41210D01*
X-18237Y41430D01*
X-18306Y41725D01*
X-18256Y42024D01*
X-18092Y42279D01*
X-17842Y42451D01*
X-17545Y42511D01*
X-15941Y42511D01*
X-13877Y44576D01*
X-13877Y47495D01*
X-15941Y49559D01*
X-18861Y49559D01*
X-20143Y48277D01*
X-20374Y48119D01*
X-20670Y48054D01*
X-20968Y48110D01*
X-21221Y48277D01*
X-29978Y57035D01*
X-29995Y57045D01*
X-33147Y60198D01*
X-35255Y62306D01*
X-37993Y63440D01*
X-38214Y63580D01*
X-38394Y63824D01*
X-38463Y64120D01*
X-38413Y64419D01*
X-38249Y64674D01*
X-37999Y64846D01*
X-37702Y64906D01*
X-32178Y64906D01*
X-32102Y64902D01*
X36629Y58027D01*
X36711Y58014D01*
X51337Y54919D01*
X51718Y54712D01*
X52782Y53648D01*
X55287Y53648D01*
X56325Y54687D01*
X56556Y54845D01*
X56852Y54910D01*
X57150Y54855D01*
X57403Y54687D01*
X58530Y53560D01*
X60521Y53560D01*
X60795Y53509D01*
X61051Y53345D01*
X61222Y53095D01*
X61283Y52798D01*
X61283Y2282D01*
X74156Y-10591D01*
X74319Y-10833D01*
X74379Y-11130D01*
X74379Y-44621D01*
X74289Y-44981D01*
X74095Y-45214D01*
X73826Y-45354D01*
X73524Y-45377D01*
X73236Y-45281D01*
X69922Y-43368D01*
X68507Y-43368D01*
X68245Y-43321D01*
X67865Y-43182D01*
X67619Y-43297D01*
X67298Y-43368D01*
X67027Y-43368D01*
X66741Y-43654D01*
X66524Y-43806D01*
X63893Y-45028D01*
X63584Y-45099D01*
X63286Y-45043D01*
X63253Y-45022D01*
X60259Y-45022D01*
X58195Y-47086D01*
X58195Y-50005D01*
X60259Y-52070D01*
X63178Y-52070D01*
X65243Y-50005D01*
X65243Y-49902D01*
X65285Y-49652D01*
X65440Y-49391D01*
X65684Y-49211D01*
X68074Y-48101D01*
X68289Y-48037D01*
X68592Y-48056D01*
X69156Y-48207D01*
X69498Y-48404D01*
X70222Y-49129D01*
X70419Y-49470D01*
X70685Y-50460D01*
X70711Y-50657D01*
X70711Y-50849D01*
X70655Y-51135D01*
X70487Y-51388D01*
X61341Y-60535D01*
X61099Y-60698D01*
G37*
%LPC*%
G36*
X35614Y46665D02*
X39155Y46665D01*
X41659Y49168D01*
X41659Y52709D01*
X39155Y55213D01*
X35614Y55213D01*
X33111Y52709D01*
X33111Y49168D01*
X35614Y46665D01*
G37*
G36*
X19489Y41177D02*
X22408Y41177D01*
X24473Y43241D01*
X24473Y46160D01*
X22408Y48225D01*
X19489Y48225D01*
X17425Y46160D01*
X17425Y43241D01*
X19489Y41177D01*
G37*
G36*
X32185Y14171D02*
X35104Y14171D01*
X37169Y16235D01*
X37169Y19154D01*
X35104Y21219D01*
X32185Y21219D01*
X30121Y19154D01*
X30121Y16235D01*
X32185Y14171D01*
G37*
G36*
X19252Y10395D02*
X22171Y10395D01*
X24236Y12459D01*
X24236Y15379D01*
X22171Y17443D01*
X19252Y17443D01*
X17188Y15379D01*
X17188Y12459D01*
X19252Y10395D01*
G37*
G36*
X46626Y-13807D02*
X50166Y-13807D01*
X52670Y-11304D01*
X52670Y-7763D01*
X50166Y-5259D01*
X46626Y-5259D01*
X44122Y-7763D01*
X44122Y-11304D01*
X46626Y-13807D01*
G37*
%LPD*%
G36*
X-52288Y45276D02*
X-52437Y45262D01*
X-56015Y45262D01*
X-56279Y45309D01*
X-56537Y45468D01*
X-56712Y45715D01*
X-56777Y46011D01*
X-56722Y46310D01*
X-56554Y46562D01*
X-54362Y48755D01*
X-54362Y51699D01*
X-54468Y51856D01*
X-54531Y52152D01*
X-54473Y52450D01*
X-53246Y55412D01*
X-53081Y55659D01*
X-50179Y58561D01*
X-49932Y58726D01*
X-46902Y59981D01*
X-46611Y60039D01*
X-43742Y60039D01*
X-43594Y60024D01*
X-39892Y59288D01*
X-39617Y59174D01*
X-37605Y57830D01*
X-37337Y57515D01*
X-37267Y57220D01*
X-37318Y56921D01*
X-37481Y56666D01*
X-37731Y56494D01*
X-38028Y56434D01*
X-39318Y56434D01*
X-39408Y56374D01*
X-40851Y55776D01*
X-40957Y55755D01*
X-50753Y45959D01*
X-50868Y45864D01*
X-51394Y45513D01*
X-51669Y45400D01*
X-52288Y45276D01*
G37*
G36*
X-27082Y10687D02*
X-27378Y10622D01*
X-27676Y10678D01*
X-27929Y10845D01*
X-43562Y26479D01*
X-43725Y26720D01*
X-43785Y27017D01*
X-43785Y31002D01*
X-43730Y31288D01*
X-43562Y31541D01*
X-42272Y32831D01*
X-42052Y32984D01*
X-41757Y33054D01*
X-41458Y33003D01*
X-41203Y32840D01*
X-41031Y32589D01*
X-40971Y32292D01*
X-40971Y29737D01*
X-38467Y27234D01*
X-34927Y27234D01*
X-32423Y29737D01*
X-32423Y33278D01*
X-34927Y35782D01*
X-37481Y35782D01*
X-37745Y35829D01*
X-38003Y35988D01*
X-38178Y36235D01*
X-38243Y36532D01*
X-38188Y36830D01*
X-38020Y37083D01*
X-34569Y40534D01*
X-34327Y40697D01*
X-34030Y40757D01*
X-31517Y40757D01*
X-29680Y42594D01*
X-29461Y42747D01*
X-29166Y42817D01*
X-28867Y42766D01*
X-28612Y42602D01*
X-28440Y42352D01*
X-28380Y42055D01*
X-28380Y18021D01*
X-26654Y11582D01*
X-26629Y11421D01*
X-26675Y11121D01*
X-26835Y10863D01*
X-27082Y10687D01*
G37*
D10*
X33575Y152480D03*
X-52825Y152480D03*
X33575Y110980D03*
X-52825Y110980D03*
D11*
X-98788Y-146774D03*
X-135744Y-146774D03*
X8903Y-146790D03*
X-28053Y-146790D03*
X122075Y-146718D03*
X85119Y-146718D03*
D12*
X31265Y-145843D03*
X-74683Y-148185D03*
X-186499Y-132437D03*
X144488Y-146925D03*
X40263Y66993D03*
X5001Y-101488D03*
X-110665Y80025D03*
X62851Y-77190D03*
X48032Y1168D03*
X-31130Y37312D03*
D13*
X-44538Y55002D03*
X-72423Y56416D03*
D12*
X-22443Y79477D03*
X-2857Y80988D03*
X-115680Y116403D03*
D13*
X-126312Y95529D03*
D14*
X-64018Y91071D02*
X-71782Y142310D01*
X-83467Y153995D02*
X-101736Y153995D01*
X-122794Y153995D01*
X-139286Y137502D01*
X-139286Y108503D01*
X-126312Y95529D01*
D12*
X-70404Y89586D03*
D14*
X-65503Y89586D02*
X-64018Y91071D01*
X-65503Y89586D02*
X-70404Y89586D01*
X-71782Y142310D02*
X-83467Y153995D01*
D12*
X-101994Y154253D03*
D14*
X-101736Y153995D01*
D13*
X55611Y-39645D03*
D15*
X45394Y-43733D02*
X45028Y-43729D01*
X44662Y-43716D01*
X44296Y-43694D01*
X43931Y-43663D01*
X43567Y-43624D01*
X43204Y-43576D01*
X42842Y-43520D01*
X42482Y-43455D01*
X42123Y-43381D01*
X41766Y-43299D01*
X41411Y-43209D01*
X41059Y-43110D01*
X40709Y-43002D01*
X40361Y-42887D01*
X40016Y-42763D01*
X39675Y-42631D01*
X39337Y-42491D01*
X39002Y-42342D01*
X38670Y-42186D01*
X38343Y-42022D01*
X38019Y-41851D01*
X37700Y-41671D01*
X37385Y-41485D01*
X37075Y-41290D01*
X36769Y-41089D01*
X36468Y-40880D01*
X36172Y-40664D01*
X35882Y-40441D01*
X35597Y-40211D01*
X35317Y-39974D01*
X35043Y-39731D01*
X34775Y-39482D01*
X34513Y-39226D01*
X45395Y-43733D02*
X49609Y-43733D01*
X55611Y-39645D01*
D16*
X34209Y-34594D03*
D15*
X34514Y-39226D01*
D13*
X-90149Y134495D03*
X-63932Y35898D03*
D15*
X-48779Y8118D01*
X72985Y-50657D02*
X72985Y-52107D01*
X72984Y-50657D02*
X72982Y-50516D01*
X72976Y-50376D01*
X72966Y-50235D01*
X72952Y-50095D01*
X72935Y-49956D01*
X72913Y-49817D01*
X72888Y-49679D01*
X72858Y-49541D01*
X72825Y-49404D01*
X72788Y-49269D01*
X72747Y-49134D01*
X72703Y-49001D01*
X72654Y-48869D01*
X72602Y-48738D01*
X72547Y-48609D01*
X72487Y-48481D01*
X72425Y-48355D01*
X72358Y-48231D01*
X72288Y-48109D01*
X72215Y-47989D01*
X72139Y-47871D01*
X72059Y-47755D01*
X71976Y-47641D01*
X71890Y-47530D01*
X71801Y-47421D01*
X71708Y-47315D01*
X71613Y-47212D01*
X71515Y-47111D01*
X71414Y-47013D01*
X71311Y-46918D01*
X71205Y-46825D01*
X71096Y-46736D01*
X70985Y-46650D01*
X70871Y-46567D01*
X70755Y-46487D01*
X70637Y-46411D01*
X70517Y-46338D01*
X70395Y-46268D01*
X70271Y-46201D01*
X70145Y-46139D01*
X70017Y-46079D01*
X69888Y-46024D01*
X69757Y-45972D01*
X69625Y-45923D01*
X69492Y-45879D01*
X69357Y-45838D01*
X69222Y-45801D01*
X69085Y-45768D01*
X68947Y-45738D01*
X68809Y-45713D01*
X68670Y-45691D01*
X68531Y-45674D01*
X68391Y-45660D01*
X68250Y-45650D01*
X68110Y-45644D01*
X67969Y-45642D01*
D13*
X61719Y-48546D03*
D15*
X72985Y-52107D02*
X62059Y-63032D01*
X61719Y-48546D02*
X67969Y-45642D01*
X-38866Y8118D02*
X-48779Y8118D01*
X-38866Y8118D02*
X32284Y-63032D01*
X62059Y-63032D01*
D13*
X-57886Y50214D03*
D16*
X34196Y-44181D03*
D15*
X34196Y-43185D01*
X-57610Y50214D02*
X-57886Y50214D01*
X26876Y-35865D02*
X34196Y-43185D01*
X26876Y-35865D02*
X26876Y-3876D01*
X13493Y9508D01*
X-34755Y58590D02*
X-34971Y58802D01*
X-35192Y59008D01*
X-35419Y59209D01*
X-35650Y59404D01*
X-35885Y59594D01*
X-36125Y59778D01*
X-36369Y59956D01*
X-36618Y60129D01*
X-36870Y60295D01*
X-37127Y60456D01*
X-37387Y60610D01*
X-37651Y60758D01*
X-37918Y60900D01*
X-38188Y61036D01*
X-38462Y61164D01*
X-38739Y61287D01*
X-39018Y61403D01*
X-39300Y61512D01*
X-39585Y61614D01*
X-39872Y61709D01*
X-40161Y61798D01*
X-40452Y61880D01*
X-40746Y61955D01*
X-41040Y62023D01*
X-41337Y62083D01*
X-41634Y62137D01*
X-41933Y62184D01*
X-42233Y62223D01*
X-42534Y62255D01*
X-42835Y62281D01*
X-43137Y62299D01*
X-43440Y62309D01*
X-43742Y62313D01*
X-46611Y62313D01*
X-56833Y52090D02*
X-56902Y52018D01*
X-56968Y51945D01*
X-57031Y51868D01*
X-57092Y51789D01*
X-57149Y51708D01*
X-57203Y51625D01*
X-57255Y51540D01*
X-57303Y51454D01*
X-57347Y51365D01*
X-57389Y51275D01*
X-57427Y51183D01*
X-57461Y51090D01*
X-57492Y50996D01*
X-57520Y50901D01*
X-57543Y50804D01*
X-57564Y50707D01*
X-57580Y50609D01*
X-57593Y50511D01*
X-57603Y50412D01*
X-57608Y50313D01*
X-57610Y50214D01*
X-51788Y60169D02*
X-51659Y60294D01*
X-51527Y60417D01*
X-51393Y60536D01*
X-51255Y60651D01*
X-51115Y60763D01*
X-50972Y60872D01*
X-50826Y60978D01*
X-50678Y61079D01*
X-50528Y61177D01*
X-50375Y61271D01*
X-50220Y61362D01*
X-50062Y61449D01*
X-49903Y61531D01*
X-49741Y61610D01*
X-49578Y61685D01*
X-49413Y61756D01*
X-49246Y61822D01*
X-49077Y61885D01*
X-48907Y61943D01*
X-48736Y61998D01*
X-48564Y62048D01*
X-48390Y62094D01*
X-48215Y62135D01*
X-48039Y62172D01*
X-47863Y62205D01*
X-47685Y62234D01*
X-47507Y62258D01*
X-47329Y62278D01*
X-47150Y62293D01*
X-46970Y62304D01*
X-46791Y62311D01*
X-46611Y62313D01*
X-51787Y60169D02*
X-54689Y57267D01*
X-54814Y57138D01*
X-54937Y57006D01*
X-55056Y56872D01*
X-55171Y56734D01*
X-55283Y56594D01*
X-55392Y56451D01*
X-55498Y56305D01*
X-55599Y56157D01*
X-55697Y56007D01*
X-55791Y55854D01*
X-55882Y55699D01*
X-55969Y55541D01*
X-56051Y55382D01*
X-56130Y55220D01*
X-56205Y55057D01*
X-56276Y54892D01*
X-56342Y54725D01*
X-56405Y54556D01*
X-56463Y54386D01*
X-56518Y54215D01*
X-56568Y54043D01*
X-56614Y53869D01*
X-56655Y53694D01*
X-56692Y53518D01*
X-56725Y53342D01*
X-56754Y53164D01*
X-56778Y52986D01*
X-56798Y52808D01*
X-56813Y52629D01*
X-56824Y52449D01*
X-56831Y52270D01*
X-56833Y52090D01*
X10403Y9508D02*
X13493Y9508D01*
X10403Y9508D02*
X-23082Y42993D01*
X-23082Y46922D01*
X-30708Y54548D02*
X-30713Y54548D01*
X-34755Y58590D01*
X-30708Y54548D02*
X-23082Y46922D01*
D12*
X-33631Y-19736D03*
D15*
X-25253Y-13228D01*
X-25253Y-13227D02*
X-25065Y-13229D01*
X-24877Y-13236D01*
X-24689Y-13247D01*
X-24501Y-13263D01*
X-24314Y-13283D01*
X-24127Y-13308D01*
X-23941Y-13337D01*
X-23756Y-13370D01*
X-23571Y-13408D01*
X-23388Y-13450D01*
X-23205Y-13497D01*
X-23024Y-13547D01*
X-22844Y-13603D01*
X-22666Y-13662D01*
X-22488Y-13726D01*
X-22313Y-13794D01*
X-22139Y-13866D01*
X-21967Y-13942D01*
X-21796Y-14022D01*
X-21628Y-14106D01*
X-21462Y-14195D01*
X-21297Y-14287D01*
X-21136Y-14383D01*
X-20976Y-14483D01*
X-20819Y-14587D01*
X-20664Y-14694D01*
X-20512Y-14805D01*
X-20363Y-14920D01*
X-20216Y-15038D01*
X-20072Y-15159D01*
X-19932Y-15284D01*
X-19794Y-15413D01*
X-19659Y-15544D01*
X-19659Y-15545D02*
X32907Y-68110D01*
X62731Y-68110D01*
X76653Y-54189D01*
X76653Y-9873D01*
D12*
X63417Y134350D03*
D15*
X63557Y134210D01*
X63557Y3224D01*
X76653Y-9873D01*
D12*
X-33631Y-29883D03*
D15*
X-28391Y-24069D01*
X-25347Y-20692D01*
X63984Y-71134D02*
X79677Y-55441D01*
X79677Y-8620D01*
D12*
X63516Y148568D03*
D15*
X63514Y148516D01*
X63509Y148465D01*
X63499Y148414D01*
X63487Y148364D01*
X63470Y148315D01*
X63451Y148268D01*
X63428Y148222D01*
X63401Y148177D01*
X63372Y148135D01*
X63339Y148095D01*
X63304Y148057D01*
X63266Y148022D01*
X63226Y147989D01*
X63184Y147960D01*
X63139Y147933D01*
X63093Y147910D01*
X63046Y147891D01*
X62997Y147874D01*
X62947Y147862D01*
X62896Y147852D01*
X62845Y147847D01*
X62793Y147845D01*
X63984Y-71134D02*
X31654Y-71134D01*
X-25021Y-20366D02*
X-25347Y-20692D01*
X-25021Y-20366D02*
X-19114Y-20366D01*
X31654Y-71134D01*
X62793Y142079D02*
X62793Y147845D01*
X62793Y142079D02*
X68441Y136431D01*
X68441Y2617D02*
X79677Y-8620D01*
X68441Y2617D02*
X68441Y136431D01*
D16*
X6558Y-21520D03*
D15*
X-18666Y3704D01*
X-18667Y3703D02*
X-19089Y4136D01*
X-19501Y4578D01*
X-19902Y5031D01*
X-20292Y5492D01*
X-20672Y5963D01*
X-21040Y6442D01*
X-21396Y6931D01*
X-21741Y7427D01*
X-22074Y7932D01*
X-22395Y8444D01*
X-22703Y8964D01*
X-22999Y9491D01*
X-23282Y10025D01*
X-23553Y10566D01*
X-23811Y11112D01*
X-24055Y11665D01*
X-24287Y12224D01*
X-24505Y12788D01*
X-24709Y13356D01*
X-24900Y13930D01*
X-25077Y14508D01*
X-25241Y15090D01*
X-25390Y15676D01*
X-25526Y16265D01*
X-25647Y16857D01*
X-25754Y17452D01*
X-25847Y18049D01*
X-25926Y18649D01*
X-25991Y19250D01*
X-26041Y19852D01*
X-26077Y20455D01*
X-26099Y21060D01*
X-26106Y21664D01*
X-26106Y45669D01*
X-31961Y51524D01*
X-32114Y51674D01*
X-32271Y51820D01*
X-32431Y51962D01*
X-32594Y52100D01*
X-32761Y52235D01*
X-32931Y52365D01*
X-33104Y52491D01*
X-33280Y52614D01*
X-33459Y52731D01*
X-33640Y52845D01*
X-33825Y52954D01*
X-34011Y53059D01*
X-34200Y53160D01*
X-34392Y53255D01*
X-34586Y53347D01*
X-34782Y53433D01*
X-34979Y53515D01*
X-35179Y53593D01*
X-35381Y53665D01*
X-35584Y53733D01*
X-35789Y53795D01*
X-35995Y53853D01*
X-36202Y53906D01*
X-36411Y53954D01*
X-36621Y53997D01*
X-36832Y54035D01*
X-37043Y54068D01*
X-37256Y54096D01*
X-37469Y54119D01*
X-37682Y54137D01*
X-37896Y54150D01*
X-38110Y54157D01*
X-38324Y54160D01*
X-38420Y54158D01*
X-38516Y54152D01*
X-38611Y54143D01*
X-38706Y54130D01*
X-38801Y54113D01*
X-38895Y54092D01*
X-38988Y54068D01*
X-39080Y54040D01*
X-39170Y54009D01*
X-39260Y53974D01*
X-39348Y53935D01*
X-39434Y53894D01*
X-39519Y53848D01*
X-39602Y53800D01*
X-39682Y53748D01*
X-39761Y53693D01*
X-39838Y53635D01*
X-39912Y53574D01*
X-39984Y53510D01*
X-40053Y53444D01*
X-40052Y53444D02*
X-49145Y44351D01*
X-49242Y44256D01*
X-49342Y44165D01*
X-49444Y44076D01*
X-49549Y43991D01*
X-49657Y43908D01*
X-49766Y43829D01*
X-49878Y43753D01*
X-49993Y43680D01*
X-50109Y43611D01*
X-50227Y43545D01*
X-50347Y43482D01*
X-50469Y43423D01*
X-50593Y43368D01*
X-50718Y43316D01*
X-50845Y43268D01*
X-50972Y43223D01*
X-51102Y43183D01*
X-51232Y43146D01*
X-51363Y43113D01*
X-51495Y43083D01*
X-51628Y43058D01*
X-51762Y43036D01*
X-51896Y43018D01*
X-52031Y43005D01*
X-52166Y42995D01*
X-52302Y42989D01*
X-52437Y42987D01*
X-52437Y42988D02*
X-63460Y42988D01*
X-67972Y47499D01*
X-67971Y47500D02*
X-68065Y47596D01*
X-68155Y47695D01*
X-68243Y47796D01*
X-68328Y47900D01*
X-68409Y48007D01*
X-68488Y48116D01*
X-68563Y48227D01*
X-68635Y48340D01*
X-68704Y48455D01*
X-68769Y48572D01*
X-68831Y48691D01*
X-68890Y48812D01*
X-68945Y48934D01*
X-68996Y49058D01*
X-69044Y49184D01*
X-69088Y49310D01*
X-69128Y49438D01*
X-69165Y49567D01*
X-69198Y49697D01*
X-69227Y49828D01*
X-69252Y49960D01*
X-69273Y50093D01*
X-69291Y50226D01*
X-69304Y50359D01*
X-69314Y50493D01*
X-69320Y50627D01*
X-69322Y50761D01*
X-69320Y50957D01*
X-69313Y51153D01*
X-69301Y51348D01*
X-69285Y51544D01*
X-69264Y51739D01*
X-69238Y51933D01*
X-69208Y52127D01*
X-69173Y52319D01*
X-69134Y52511D01*
X-69090Y52702D01*
X-69041Y52892D01*
X-68988Y53081D01*
X-68931Y53268D01*
X-68869Y53454D01*
X-68803Y53639D01*
X-68732Y53822D01*
X-68657Y54003D01*
X-68578Y54182D01*
X-68494Y54359D01*
X-68407Y54534D01*
X-68315Y54708D01*
X-68219Y54878D01*
X-68119Y55047D01*
X-68015Y55213D01*
X-67907Y55377D01*
X-67795Y55538D01*
X-67679Y55696D01*
X-67560Y55852D01*
X-67437Y56004D01*
X-67311Y56154D01*
X-67181Y56300D01*
X-67047Y56444D01*
X-66910Y56584D01*
X-66911Y56584D02*
X-60461Y63034D01*
X-60462Y63034D02*
X-60220Y63269D01*
X-59974Y63498D01*
X-59722Y63722D01*
X-59465Y63940D01*
X-59202Y64151D01*
X-58935Y64356D01*
X-58663Y64555D01*
X-58386Y64747D01*
X-58105Y64933D01*
X-57819Y65111D01*
X-57530Y65283D01*
X-57236Y65448D01*
X-56938Y65606D01*
X-56637Y65757D01*
X-56332Y65901D01*
X-56024Y66037D01*
X-55713Y66166D01*
X-55398Y66287D01*
X-55081Y66401D01*
X-54762Y66508D01*
X-54439Y66607D01*
X-54115Y66698D01*
X-53789Y66781D01*
X-53460Y66856D01*
X-53130Y66924D01*
X-52799Y66984D01*
X-52466Y67036D01*
X-52132Y67080D01*
X-51797Y67116D01*
X-51461Y67144D01*
X-51125Y67164D01*
X-50788Y67176D01*
X-50451Y67180D01*
X-32027Y67180D01*
X37021Y60273D01*
X54034Y56672D01*
D16*
X54034Y56672D03*
X175194Y120689D03*
X59783Y56584D03*
D12*
X24761Y-90321D03*
X-35770Y-61451D03*
D13*
X15770Y-107769D03*
X-105457Y-15623D03*
X26795Y-110335D03*
D16*
X6593Y-76906D03*
D13*
X-110981Y-15623D03*
X55070Y-95049D03*
X33447Y-97703D03*
D16*
X34209Y-54519D03*
D13*
X-91264Y-15623D03*
X48023Y-37882D03*
D12*
X-36697Y31508D03*
D13*
X33645Y17695D03*
X20949Y44701D03*
X-17401Y46035D03*
X20712Y13919D03*
X88180Y-120260D03*
X22279Y-6895D03*
D16*
X21754Y-21363D03*
D17*
X-47631Y-133467D03*
D13*
X13415Y1394D03*
X-95977Y373D03*
X-102534Y7156D03*
D16*
X11473Y-21397D03*
D13*
X5245Y-1110D03*
X-111745Y14555D03*
X9675Y-7403D03*
X-1217Y27173D03*
X-890Y9179D03*
D17*
X-36613Y-49053D03*
D16*
X-21216Y-54481D03*
D12*
X-70034Y-28429D03*
X-179010Y95085D03*
D13*
X-110261Y63814D03*
X-52510Y-4122D03*
X-44678Y-49871D03*
X-60921Y12578D03*
D12*
X-132415Y-79503D03*
D15*
X-31123Y-35939D02*
X-27575Y-32391D01*
X-88850Y-35939D02*
X-132415Y-79503D01*
X-27575Y-32391D02*
X-27575Y-30610D01*
X-31123Y-35939D02*
X-88850Y-35939D01*
D16*
X-21174Y-24140D03*
D15*
X-27575Y-30610D01*
D13*
X-91683Y-126099D03*
X-102391Y-98578D03*
X-114265Y-80226D03*
X-218547Y-130951D03*
X-176463Y-161750D03*
X-99043Y44076D03*
X-105152Y37966D03*
X-153458Y-149378D03*
D12*
X-49485Y72616D03*
X-75183Y155520D03*
D14*
X-61899Y142237D01*
X-61899Y107330D01*
X-49485Y94915D01*
X-49485Y72616D01*
D12*
X48396Y-9533D03*
X37385Y50939D03*
D16*
X34118Y-49440D03*
D12*
X-33288Y45031D03*
D15*
X-45180Y33139D02*
X-45255Y33062D01*
X-45327Y32983D01*
X-45395Y32900D01*
X-45461Y32816D01*
X-45524Y32729D01*
X-45583Y32640D01*
X-45640Y32548D01*
X-45693Y32455D01*
X-45742Y32360D01*
X-45789Y32264D01*
X-45831Y32165D01*
X-45871Y32065D01*
X-45906Y31964D01*
X-45938Y31862D01*
X-45967Y31759D01*
X-45991Y31654D01*
X-46012Y31549D01*
X-46029Y31443D01*
X-46043Y31337D01*
X-46052Y31230D01*
X-46058Y31123D01*
X-46060Y31016D01*
X-45180Y33139D02*
X-33288Y45031D01*
X9971Y-25294D02*
X34118Y-49440D01*
X9971Y-25294D02*
X4994Y-25294D01*
X-46059Y25760D01*
X-46059Y31016D01*
D13*
X-74770Y73473D03*
X-128468Y135638D03*
X-77068Y49319D03*
X45396Y-57726D03*
D16*
X-49770Y23254D03*
D18*
X-49708Y23254D01*
X32556Y-59010D01*
X44112Y-59010D02*
X45396Y-57726D01*
X44112Y-59010D02*
X32556Y-59010D01*
D13*
X-91445Y125947D03*
M02*
