G04 EAGLE Gerber RS-274X export*
G75*
%MOMM*%
%FSLAX34Y34*%
%LPD*%
%INBottom Copper*%
%IPPOS*%
%AMOC8*
5,1,8,0,0,1.08239X$1,22.5*%
G01*
G04 Define Apertures*
%ADD10C,1.158000*%
%ADD11R,1.066800X1.066800*%
%ADD12C,0.550000*%
%ADD13C,0.400000*%
%ADD14C,0.150000*%
%ADD15C,0.300000*%
%ADD16C,0.450000*%
%ADD17C,0.300000*%
%ADD18C,0.152400*%
G36*
X65504Y-169946D02*
X26888Y-170083D01*
X26610Y-170032D01*
X26355Y-169868D01*
X26183Y-169618D01*
X26123Y-169321D01*
X26123Y-165340D01*
X26134Y-165283D01*
X26123Y-163020D01*
X26123Y-160845D01*
X25283Y-158846D01*
X25281Y-158842D01*
X24449Y-156833D01*
X22908Y-155307D01*
X22905Y-155304D01*
X21368Y-153767D01*
X19356Y-152945D01*
X19352Y-152944D01*
X17347Y-152113D01*
X16527Y-152117D01*
X16248Y-152066D01*
X15993Y-151903D01*
X15821Y-151653D01*
X15761Y-151355D01*
X15761Y-140805D01*
X15656Y-140654D01*
X15585Y-140360D01*
X15634Y-140060D01*
X15796Y-139804D01*
X16046Y-139632D01*
X16343Y-139570D01*
X44831Y-139448D01*
X45198Y-139540D01*
X45341Y-139618D01*
X45830Y-139474D01*
X46042Y-139443D01*
X46551Y-139440D01*
X46666Y-139325D01*
X46991Y-139130D01*
X81777Y-128845D01*
X81993Y-128814D01*
X89122Y-128814D01*
X92160Y-127555D01*
X92433Y-127282D01*
X92434Y-127281D01*
X94212Y-125503D01*
X94212Y-125503D01*
X94574Y-125141D01*
X95929Y-121871D01*
X95929Y-117736D01*
X96051Y-117322D01*
X96076Y-117283D01*
X95946Y-116677D01*
X95929Y-116517D01*
X95929Y-115898D01*
X95896Y-115865D01*
X95690Y-115486D01*
X95680Y-115441D01*
X95160Y-115105D01*
X95035Y-115004D01*
X94597Y-114566D01*
X94551Y-114566D01*
X94137Y-114443D01*
X87115Y-109904D01*
X86830Y-109568D01*
X86767Y-109272D01*
X86422Y-75454D01*
X86422Y-75446D01*
X86422Y-57526D01*
X69862Y-40966D01*
X59897Y-40966D01*
X59623Y-40914D01*
X59367Y-40751D01*
X59196Y-40501D01*
X59135Y-40204D01*
X59135Y-38186D01*
X56924Y-35975D01*
X56818Y-35907D01*
X56647Y-35657D01*
X56586Y-35359D01*
X56586Y-24528D01*
X47167Y-15108D01*
X47014Y-14889D01*
X46944Y-14594D01*
X46995Y-14295D01*
X47158Y-14039D01*
X47408Y-13868D01*
X47706Y-13807D01*
X50166Y-13807D01*
X52670Y-11304D01*
X52670Y-7763D01*
X50166Y-5259D01*
X49426Y-5259D01*
X49140Y-5204D01*
X48887Y-5036D01*
X44473Y-622D01*
X44310Y-380D01*
X44250Y-83D01*
X44250Y48350D01*
X41882Y50718D01*
X41719Y50960D01*
X41659Y51257D01*
X41659Y52709D01*
X39155Y55213D01*
X35614Y55213D01*
X33111Y52709D01*
X33111Y49168D01*
X35614Y46665D01*
X37066Y46665D01*
X37352Y46609D01*
X37605Y46441D01*
X37979Y46068D01*
X38141Y45826D01*
X38202Y45529D01*
X38202Y19961D01*
X38155Y19697D01*
X37995Y19439D01*
X37748Y19264D01*
X37452Y19199D01*
X37154Y19254D01*
X36901Y19422D01*
X35100Y21223D01*
X34849Y21270D01*
X34594Y21433D01*
X34422Y21683D01*
X34362Y21981D01*
X34362Y24629D01*
X31981Y33517D01*
X27380Y41485D01*
X24696Y44170D01*
X24533Y44411D01*
X24473Y44708D01*
X24473Y46160D01*
X22408Y48225D01*
X19489Y48225D01*
X17425Y46160D01*
X17425Y43241D01*
X19489Y41177D01*
X20809Y41177D01*
X21184Y41078D01*
X21413Y40879D01*
X25686Y35310D01*
X25786Y35138D01*
X28746Y27990D01*
X28798Y27798D01*
X29807Y20128D01*
X29814Y20028D01*
X29814Y16753D01*
X29897Y16669D01*
X30060Y16428D01*
X30094Y16262D01*
X32185Y14171D01*
X35104Y14171D01*
X36901Y15967D01*
X37120Y16120D01*
X37415Y16190D01*
X37714Y16139D01*
X37970Y15976D01*
X38141Y15726D01*
X38202Y15428D01*
X38202Y1373D01*
X38155Y1110D01*
X37995Y851D01*
X37748Y676D01*
X37452Y611D01*
X37154Y667D01*
X36901Y834D01*
X30294Y7441D01*
X30131Y7683D01*
X30070Y7980D01*
X30070Y13821D01*
X-52519Y96410D01*
X-52631Y96554D01*
X-52734Y96839D01*
X-52717Y97142D01*
X-52583Y97414D01*
X-52354Y97613D01*
X-52065Y97706D01*
X-51375Y97784D01*
X-51165Y97816D01*
X-50971Y97861D01*
X-50793Y97916D01*
X-49699Y98299D01*
X-49501Y98377D01*
X-49322Y98464D01*
X-49160Y98558D01*
X-48180Y99175D01*
X-48004Y99295D01*
X-47848Y99420D01*
X-47712Y99547D01*
X-46893Y100367D01*
X-46748Y100523D01*
X-46625Y100679D01*
X-46520Y100834D01*
X-45903Y101815D01*
X-45798Y101999D01*
X-45712Y102179D01*
X-45644Y102352D01*
X-45363Y103156D01*
X-45195Y103430D01*
X-44946Y103604D01*
X-44650Y103667D01*
X-44352Y103609D01*
X-41242Y102320D01*
X-35808Y102320D01*
X-30787Y104400D01*
X-26944Y108243D01*
X-24865Y113263D01*
X-24865Y118698D01*
X-26944Y123718D01*
X-30787Y127561D01*
X-35808Y129640D01*
X-41242Y129640D01*
X-46263Y127561D01*
X-49703Y124120D01*
X-49900Y123978D01*
X-50193Y123899D01*
X-50494Y123940D01*
X-50791Y124044D01*
X-50995Y124106D01*
X-51189Y124150D01*
X-51374Y124177D01*
X-52063Y124255D01*
X-52063Y110218D01*
X-61155Y110218D01*
X-61155Y109324D01*
X-60727Y108290D01*
X-60669Y107998D01*
X-60669Y106400D01*
X-60716Y106136D01*
X-60875Y105878D01*
X-61122Y105703D01*
X-61418Y105638D01*
X-61717Y105693D01*
X-61969Y105861D01*
X-87346Y131237D01*
X-87504Y131468D01*
X-87569Y131764D01*
X-87513Y132062D01*
X-87346Y132315D01*
X-86625Y133036D01*
X-86625Y135955D01*
X-88689Y138019D01*
X-91609Y138019D01*
X-93673Y135955D01*
X-93673Y133036D01*
X-92646Y132009D01*
X-92483Y131767D01*
X-92423Y131470D01*
X-92423Y130233D01*
X-92474Y129959D01*
X-92637Y129703D01*
X-92750Y129626D01*
X-94969Y127407D01*
X-94969Y124488D01*
X-92905Y122423D01*
X-91324Y122423D01*
X-91038Y122368D01*
X-90785Y122200D01*
X-89836Y121251D01*
X-89683Y121032D01*
X-89613Y120737D01*
X-89664Y120438D01*
X-89828Y120182D01*
X-90078Y120011D01*
X-90375Y119951D01*
X-102578Y119951D01*
X-102864Y120006D01*
X-103117Y120174D01*
X-118571Y135628D01*
X-118692Y135785D01*
X-119416Y137040D01*
X-120671Y137765D01*
X-120829Y137886D01*
X-120855Y137912D01*
X-125442Y137912D01*
X-125728Y137967D01*
X-125981Y138135D01*
X-127008Y139162D01*
X-129927Y139162D01*
X-131992Y137097D01*
X-131992Y134178D01*
X-129927Y132114D01*
X-127008Y132114D01*
X-125981Y133140D01*
X-125739Y133303D01*
X-125442Y133364D01*
X-123054Y133364D01*
X-122768Y133308D01*
X-122515Y133140D01*
X-104777Y115403D01*
X-88142Y115403D01*
X-87867Y115351D01*
X-87611Y115188D01*
X-87440Y114938D01*
X-87380Y114641D01*
X-87380Y114301D01*
X-68239Y95161D01*
X-68086Y94941D01*
X-68016Y94646D01*
X-68067Y94347D01*
X-68231Y94092D01*
X-68481Y93920D01*
X-68778Y93860D01*
X-72174Y93860D01*
X-74678Y91356D01*
X-74678Y87816D01*
X-72174Y85312D01*
X-68633Y85312D01*
X-66130Y87816D01*
X-66130Y91212D01*
X-66083Y91475D01*
X-65924Y91733D01*
X-65676Y91909D01*
X-65380Y91974D01*
X-65082Y91918D01*
X-64829Y91751D01*
X-53949Y80871D01*
X-53744Y80495D01*
X-53739Y80192D01*
X-53853Y79911D01*
X-54068Y79697D01*
X-54349Y79583D01*
X-72124Y76278D01*
X-72549Y76321D01*
X-72802Y76489D01*
X-73310Y76997D01*
X-76230Y76997D01*
X-78294Y74933D01*
X-78294Y73481D01*
X-78350Y73195D01*
X-78517Y72942D01*
X-79730Y71730D01*
X-79730Y53136D01*
X-79521Y52928D01*
X-79363Y52697D01*
X-79298Y52401D01*
X-79353Y52103D01*
X-79521Y51850D01*
X-80592Y50779D01*
X-80592Y47860D01*
X-78527Y45795D01*
X-78105Y45795D01*
X-77830Y45744D01*
X-77575Y45581D01*
X-77403Y45331D01*
X-77343Y45033D01*
X-77343Y41099D01*
X-77390Y40836D01*
X-77549Y40578D01*
X-77796Y40402D01*
X-78093Y40337D01*
X-78391Y40393D01*
X-78644Y40560D01*
X-78901Y40817D01*
X-78901Y40818D01*
X-84304Y46220D01*
X-85375Y46220D01*
X-85661Y46276D01*
X-85913Y46444D01*
X-87243Y47773D01*
X-87406Y48015D01*
X-87466Y48312D01*
X-87466Y49865D01*
X-91022Y53421D01*
X-91188Y53421D01*
X-91474Y53476D01*
X-91727Y53644D01*
X-101933Y63850D01*
X-107426Y66125D01*
X-107521Y66143D01*
X-107774Y66311D01*
X-108801Y67338D01*
X-111720Y67338D01*
X-113785Y65273D01*
X-113785Y62354D01*
X-113029Y61599D01*
X-112876Y61379D01*
X-112807Y61084D01*
X-112857Y60785D01*
X-113021Y60530D01*
X-113271Y60358D01*
X-113568Y60298D01*
X-130700Y60298D01*
X-130799Y60305D01*
X-137459Y61181D01*
X-137651Y61233D01*
X-143857Y63803D01*
X-144029Y63903D01*
X-149358Y67992D01*
X-149433Y68058D01*
X-161421Y80046D01*
X-161584Y80287D01*
X-161644Y80584D01*
X-161644Y157508D01*
X-161593Y157783D01*
X-161429Y158039D01*
X-161179Y158210D01*
X-160882Y158270D01*
X-105860Y158270D01*
X-105597Y158223D01*
X-105339Y158064D01*
X-105163Y157817D01*
X-105098Y157521D01*
X-105154Y157222D01*
X-105321Y156970D01*
X-106268Y156023D01*
X-106268Y152482D01*
X-103764Y149979D01*
X-100224Y149979D01*
X-97720Y152482D01*
X-97720Y156023D01*
X-98666Y156970D01*
X-98819Y157189D01*
X-98889Y157484D01*
X-98838Y157783D01*
X-98675Y158039D01*
X-98425Y158210D01*
X-98128Y158270D01*
X-80219Y158270D01*
X-79944Y158219D01*
X-79689Y158056D01*
X-79517Y157806D01*
X-79457Y157508D01*
X-79457Y153750D01*
X-76953Y151246D01*
X-73412Y151246D01*
X-70909Y153750D01*
X-70909Y157508D01*
X-70857Y157783D01*
X-70694Y158039D01*
X-70444Y158210D01*
X-70147Y158270D01*
X-61336Y158270D01*
X-60983Y158184D01*
X-60748Y157993D01*
X-60605Y157725D01*
X-60579Y157423D01*
X-60650Y156789D01*
X-60669Y156462D01*
X-60669Y155463D01*
X-60727Y155171D01*
X-61155Y154137D01*
X-61155Y153242D01*
X-44495Y153242D01*
X-44495Y154137D01*
X-44923Y155171D01*
X-44981Y155463D01*
X-44981Y156462D01*
X-44999Y156789D01*
X-45071Y157423D01*
X-45024Y157783D01*
X-44861Y158039D01*
X-44611Y158210D01*
X-44314Y158270D01*
X25064Y158270D01*
X25417Y158184D01*
X25652Y157993D01*
X25795Y157725D01*
X25821Y157423D01*
X25750Y156789D01*
X25731Y156462D01*
X25731Y155463D01*
X25673Y155171D01*
X25245Y154137D01*
X25245Y153242D01*
X41905Y153242D01*
X41905Y154137D01*
X41477Y155171D01*
X41419Y155463D01*
X41419Y156462D01*
X41401Y156789D01*
X41329Y157423D01*
X41376Y157783D01*
X41539Y158039D01*
X41789Y158210D01*
X42086Y158270D01*
X85783Y158270D01*
X86041Y158226D01*
X86300Y158068D01*
X86477Y157822D01*
X86545Y157527D01*
X86491Y157228D01*
X86326Y156974D01*
X86074Y156804D01*
X82456Y155306D01*
X76151Y149000D01*
X72739Y140762D01*
X72739Y131845D01*
X76151Y123606D01*
X81089Y118668D01*
X81249Y118432D01*
X81312Y118135D01*
X81254Y117838D01*
X79659Y113985D01*
X79659Y107821D01*
X81254Y103969D01*
X81312Y103689D01*
X81257Y103391D01*
X81089Y103138D01*
X76151Y98200D01*
X72739Y89962D01*
X72739Y81045D01*
X76151Y72806D01*
X82456Y66501D01*
X90695Y63088D01*
X99612Y63088D01*
X107851Y66501D01*
X110490Y69140D01*
X110720Y69298D01*
X111016Y69363D01*
X111314Y69307D01*
X111567Y69140D01*
X114206Y66501D01*
X122445Y63088D01*
X131362Y63088D01*
X132382Y63511D01*
X132637Y63568D01*
X132937Y63522D01*
X133195Y63363D01*
X133371Y63115D01*
X133436Y62819D01*
X133380Y62521D01*
X133213Y62268D01*
X130026Y59081D01*
X129784Y58918D01*
X129487Y58858D01*
X62101Y58858D01*
X61815Y58914D01*
X61562Y59081D01*
X61035Y59608D01*
X58530Y59608D01*
X57491Y58569D01*
X57261Y58411D01*
X56965Y58346D01*
X56667Y58402D01*
X56414Y58569D01*
X55287Y59696D01*
X52782Y59696D01*
X51010Y57925D01*
X51010Y55420D01*
X52782Y53648D01*
X55287Y53648D01*
X56325Y54687D01*
X56556Y54845D01*
X56852Y54910D01*
X57150Y54855D01*
X57403Y54687D01*
X58530Y53560D01*
X61035Y53560D01*
X61562Y54087D01*
X61804Y54250D01*
X62101Y54310D01*
X131687Y54310D01*
X164473Y87096D01*
X164473Y106437D01*
X164528Y106723D01*
X164696Y106975D01*
X175163Y117442D01*
X175404Y117605D01*
X175701Y117665D01*
X176446Y117665D01*
X178218Y119437D01*
X178218Y121942D01*
X176446Y123713D01*
X173941Y123713D01*
X172170Y121942D01*
X172170Y121197D01*
X172114Y120911D01*
X171947Y120658D01*
X160400Y109111D01*
X160175Y108956D01*
X159879Y108888D01*
X159580Y108941D01*
X159326Y109107D01*
X159157Y109358D01*
X159090Y109520D01*
X158246Y110364D01*
X158088Y110595D01*
X158022Y110891D01*
X158078Y111189D01*
X158246Y111442D01*
X159090Y112286D01*
X161449Y117981D01*
X161449Y124145D01*
X159090Y129840D01*
X154731Y134199D01*
X149789Y136246D01*
X149550Y136403D01*
X149379Y136653D01*
X149319Y136950D01*
X149319Y140762D01*
X145906Y149000D01*
X139601Y155306D01*
X135983Y156804D01*
X135762Y156944D01*
X135582Y157189D01*
X135513Y157484D01*
X135563Y157783D01*
X135727Y158039D01*
X135977Y158210D01*
X136274Y158270D01*
X153702Y158270D01*
X153787Y158266D01*
X166764Y156804D01*
X166930Y156766D01*
X179256Y152453D01*
X179410Y152379D01*
X190467Y145431D01*
X190600Y145325D01*
X199834Y136091D01*
X199940Y135957D01*
X206888Y124900D01*
X206962Y124746D01*
X211275Y112421D01*
X211313Y112254D01*
X212775Y99278D01*
X212780Y99192D01*
X212780Y-110808D01*
X212775Y-110893D01*
X211313Y-123869D01*
X211275Y-124036D01*
X206962Y-136362D01*
X206888Y-136515D01*
X199940Y-147572D01*
X199834Y-147706D01*
X190600Y-156940D01*
X190467Y-157046D01*
X179410Y-163994D01*
X179256Y-164068D01*
X166930Y-168381D01*
X166764Y-168419D01*
X153787Y-169881D01*
X153702Y-169886D01*
X153693Y-169886D01*
X136992Y-169877D01*
X136718Y-169825D01*
X136462Y-169662D01*
X136291Y-169412D01*
X136231Y-169115D01*
X136231Y-165112D01*
X136232Y-165104D01*
X136231Y-162793D01*
X136231Y-160616D01*
X135399Y-158611D01*
X135398Y-158611D01*
X134566Y-156602D01*
X133037Y-155075D01*
X133036Y-155074D01*
X131493Y-153530D01*
X129483Y-152700D01*
X129482Y-152699D01*
X129404Y-152667D01*
X129165Y-152510D01*
X128994Y-152260D01*
X128933Y-151963D01*
X128933Y-140753D01*
X128041Y-139860D01*
X116110Y-139860D01*
X115217Y-140753D01*
X115217Y-151116D01*
X115166Y-151390D01*
X115003Y-151646D01*
X114753Y-151818D01*
X114456Y-151878D01*
X92740Y-151894D01*
X92465Y-151843D01*
X92209Y-151679D01*
X92038Y-151429D01*
X91977Y-151132D01*
X91977Y-140753D01*
X91085Y-139860D01*
X79154Y-139860D01*
X78261Y-140753D01*
X78261Y-151143D01*
X78210Y-151417D01*
X78047Y-151673D01*
X77797Y-151844D01*
X77500Y-151905D01*
X77188Y-151905D01*
X75009Y-151905D01*
X73004Y-152737D01*
X73004Y-152737D01*
X70995Y-153570D01*
X69468Y-155099D01*
X69467Y-155099D01*
X67924Y-156643D01*
X67093Y-158653D01*
X67093Y-158653D01*
X66262Y-160659D01*
X66264Y-162835D01*
X66264Y-169184D01*
X66213Y-169457D01*
X66051Y-169713D01*
X65801Y-169885D01*
X65504Y-169946D01*
G37*
%LPC*%
G36*
X61745Y144294D02*
X65286Y144294D01*
X67790Y146798D01*
X67790Y150338D01*
X65286Y152842D01*
X61745Y152842D01*
X59242Y150338D01*
X59242Y146798D01*
X61745Y144294D01*
G37*
G36*
X32124Y140784D02*
X32813Y140706D01*
X32813Y151718D01*
X25245Y151718D01*
X25245Y150824D01*
X25673Y149790D01*
X25731Y149498D01*
X25731Y148499D01*
X25750Y148172D01*
X25878Y147030D01*
X25910Y146821D01*
X25956Y146626D01*
X26011Y146448D01*
X26394Y145355D01*
X26472Y145157D01*
X26559Y144978D01*
X26653Y144816D01*
X27269Y143835D01*
X27390Y143659D01*
X27515Y143504D01*
X27642Y143368D01*
X28461Y142548D01*
X28617Y142404D01*
X28774Y142280D01*
X28929Y142175D01*
X29910Y141559D01*
X30094Y141453D01*
X30274Y141367D01*
X30447Y141300D01*
X31541Y140917D01*
X31745Y140854D01*
X31939Y140811D01*
X32124Y140784D01*
G37*
G36*
X-54276Y140784D02*
X-53587Y140706D01*
X-53587Y151718D01*
X-61155Y151718D01*
X-61155Y150824D01*
X-60727Y149790D01*
X-60669Y149498D01*
X-60669Y148499D01*
X-60650Y148172D01*
X-60522Y147030D01*
X-60490Y146821D01*
X-60444Y146626D01*
X-60389Y146448D01*
X-60006Y145355D01*
X-59928Y145157D01*
X-59841Y144978D01*
X-59747Y144816D01*
X-59131Y143835D01*
X-59010Y143659D01*
X-58885Y143504D01*
X-58758Y143368D01*
X-57939Y142548D01*
X-57783Y142404D01*
X-57626Y142280D01*
X-57471Y142175D01*
X-56490Y141559D01*
X-56306Y141453D01*
X-56126Y141367D01*
X-55953Y141300D01*
X-54859Y140917D01*
X-54655Y140854D01*
X-54461Y140811D01*
X-54276Y140784D01*
G37*
G36*
X-52063Y151718D02*
X-52063Y140706D01*
X-51375Y140784D01*
X-51165Y140816D01*
X-50971Y140861D01*
X-50793Y140916D01*
X-49699Y141299D01*
X-49501Y141377D01*
X-49322Y141464D01*
X-49160Y141558D01*
X-48180Y142175D01*
X-48004Y142295D01*
X-47848Y142420D01*
X-47712Y142547D01*
X-46893Y143367D01*
X-46748Y143523D01*
X-46625Y143679D01*
X-46520Y143834D01*
X-45903Y144815D01*
X-45798Y144999D01*
X-45712Y145179D01*
X-45644Y145353D01*
X-45261Y146447D01*
X-45199Y146650D01*
X-45155Y146845D01*
X-45128Y147029D01*
X-44999Y148172D01*
X-44981Y148499D01*
X-44981Y149498D01*
X-44923Y149790D01*
X-44495Y150824D01*
X-44495Y151718D01*
X-52063Y151718D01*
G37*
G36*
X34337Y151718D02*
X34337Y140706D01*
X35025Y140784D01*
X35235Y140816D01*
X35429Y140861D01*
X35607Y140916D01*
X36701Y141299D01*
X36899Y141377D01*
X37078Y141464D01*
X37240Y141558D01*
X38220Y142175D01*
X38396Y142295D01*
X38552Y142420D01*
X38688Y142547D01*
X39507Y143367D01*
X39652Y143523D01*
X39775Y143679D01*
X39881Y143834D01*
X40497Y144815D01*
X40603Y144999D01*
X40688Y145179D01*
X40756Y145353D01*
X41139Y146447D01*
X41201Y146650D01*
X41245Y146845D01*
X41272Y147029D01*
X41401Y148172D01*
X41419Y148499D01*
X41419Y149498D01*
X41477Y149790D01*
X41905Y150824D01*
X41905Y151718D01*
X34337Y151718D01*
G37*
G36*
X61646Y130076D02*
X65187Y130076D01*
X67691Y132580D01*
X67691Y136121D01*
X65187Y138624D01*
X61646Y138624D01*
X59143Y136121D01*
X59143Y132580D01*
X61646Y130076D01*
G37*
G36*
X32124Y97784D02*
X32813Y97706D01*
X32813Y124255D01*
X32125Y124177D01*
X31916Y124145D01*
X31721Y124100D01*
X31543Y124045D01*
X31244Y123940D01*
X31004Y123897D01*
X30706Y123953D01*
X30454Y124120D01*
X27013Y127561D01*
X21992Y129640D01*
X16558Y129640D01*
X11537Y127561D01*
X7695Y123718D01*
X5615Y118698D01*
X5615Y113263D01*
X7695Y108243D01*
X11537Y104400D01*
X16558Y102320D01*
X21992Y102320D01*
X25102Y103609D01*
X25419Y103666D01*
X25714Y103596D01*
X25958Y103417D01*
X26113Y103156D01*
X26394Y102354D01*
X26472Y102157D01*
X26559Y101978D01*
X26653Y101816D01*
X27269Y100835D01*
X27390Y100659D01*
X27515Y100504D01*
X27642Y100368D01*
X28461Y99548D01*
X28617Y99404D01*
X28774Y99280D01*
X28929Y99175D01*
X29910Y98559D01*
X30094Y98453D01*
X30274Y98367D01*
X30447Y98300D01*
X31541Y97917D01*
X31745Y97854D01*
X31939Y97811D01*
X32124Y97784D01*
G37*
G36*
X34337Y111742D02*
X41905Y111742D01*
X41905Y112637D01*
X41477Y113671D01*
X41419Y113963D01*
X41419Y116462D01*
X41401Y116789D01*
X41272Y117931D01*
X41240Y118140D01*
X41195Y118334D01*
X41139Y118513D01*
X40757Y119606D01*
X40679Y119804D01*
X40591Y119983D01*
X40497Y120145D01*
X39881Y121126D01*
X39761Y121301D01*
X39636Y121457D01*
X39509Y121593D01*
X38689Y122413D01*
X38533Y122557D01*
X38377Y122681D01*
X38221Y122786D01*
X37241Y123402D01*
X37057Y123508D01*
X36876Y123594D01*
X36703Y123661D01*
X35609Y124044D01*
X35405Y124106D01*
X35211Y124150D01*
X35026Y124177D01*
X34337Y124255D01*
X34337Y111742D01*
G37*
G36*
X-61155Y111742D02*
X-53587Y111742D01*
X-53587Y124255D01*
X-54275Y124177D01*
X-54484Y124145D01*
X-54679Y124100D01*
X-54857Y124045D01*
X-55951Y123662D01*
X-56149Y123584D01*
X-56328Y123497D01*
X-56490Y123402D01*
X-57470Y122786D01*
X-57646Y122666D01*
X-57801Y122541D01*
X-57937Y122414D01*
X-58757Y121594D01*
X-58901Y121438D01*
X-59025Y121282D01*
X-59130Y121127D01*
X-59746Y120146D01*
X-59852Y119962D01*
X-59938Y119782D01*
X-60005Y119608D01*
X-60388Y118514D01*
X-60451Y118310D01*
X-60494Y118116D01*
X-60521Y117932D01*
X-60650Y116789D01*
X-60669Y116462D01*
X-60669Y113963D01*
X-60727Y113671D01*
X-61155Y112637D01*
X-61155Y111742D01*
G37*
G36*
X34337Y110218D02*
X34337Y97706D01*
X35025Y97784D01*
X35235Y97816D01*
X35429Y97861D01*
X35607Y97916D01*
X36701Y98299D01*
X36899Y98377D01*
X37078Y98464D01*
X37240Y98558D01*
X38220Y99175D01*
X38396Y99295D01*
X38552Y99420D01*
X38688Y99547D01*
X39507Y100367D01*
X39652Y100523D01*
X39775Y100679D01*
X39881Y100834D01*
X40497Y101815D01*
X40603Y101999D01*
X40688Y102179D01*
X40756Y102353D01*
X41139Y103447D01*
X41201Y103650D01*
X41245Y103845D01*
X41272Y104029D01*
X41401Y105172D01*
X41419Y105499D01*
X41419Y107998D01*
X41477Y108290D01*
X41905Y109324D01*
X41905Y110218D01*
X34337Y110218D01*
G37*
G36*
X-127772Y92005D02*
X-124853Y92005D01*
X-122788Y94069D01*
X-122788Y96988D01*
X-124853Y99053D01*
X-127772Y99053D01*
X-129836Y96988D01*
X-129836Y94069D01*
X-127772Y92005D01*
G37*
%LPD*%
G36*
X-4868Y9558D02*
X-5164Y9493D01*
X-5462Y9549D01*
X-5715Y9716D01*
X-10619Y14621D01*
X-43687Y14621D01*
X-44000Y14688D01*
X-44264Y14807D01*
X-44626Y14670D01*
X-44895Y14621D01*
X-45282Y14621D01*
X-45486Y14416D01*
X-45755Y14242D01*
X-54777Y10828D01*
X-54889Y10795D01*
X-56478Y10460D01*
X-56909Y10495D01*
X-57165Y10658D01*
X-57336Y10908D01*
X-57397Y11206D01*
X-57397Y14038D01*
X-59461Y16102D01*
X-60549Y16102D01*
X-60896Y16186D01*
X-61133Y16375D01*
X-75106Y33074D01*
X-75208Y33232D01*
X-75283Y33526D01*
X-75237Y33826D01*
X-75077Y34084D01*
X-74830Y34260D01*
X-74534Y34325D01*
X-74236Y34269D01*
X-73983Y34102D01*
X-67656Y27774D01*
X-55832Y27774D01*
X-55635Y27748D01*
X-54128Y27345D01*
X-53786Y27147D01*
X-52683Y26044D01*
X-52486Y25703D01*
X-52412Y25427D01*
X-52386Y25242D01*
X-52441Y24944D01*
X-52609Y24691D01*
X-52794Y24506D01*
X-52794Y22001D01*
X-51022Y20230D01*
X-48517Y20230D01*
X-46746Y22001D01*
X-46746Y24506D01*
X-47261Y25021D01*
X-47423Y25263D01*
X-47484Y25560D01*
X-47484Y26235D01*
X-49721Y30110D01*
X-53595Y32346D01*
X-60660Y32346D01*
X-60924Y32393D01*
X-61182Y32553D01*
X-61357Y32800D01*
X-61422Y33096D01*
X-61367Y33394D01*
X-61199Y33647D01*
X-60408Y34438D01*
X-60408Y37358D01*
X-62473Y39422D01*
X-65392Y39422D01*
X-67456Y37358D01*
X-67456Y35881D01*
X-67503Y35617D01*
X-67663Y35359D01*
X-67910Y35184D01*
X-68206Y35119D01*
X-68504Y35174D01*
X-68757Y35342D01*
X-72548Y39132D01*
X-72710Y39374D01*
X-72771Y39671D01*
X-72771Y50552D01*
X-72783Y50611D01*
X-72783Y52622D01*
X-74958Y54797D01*
X-75121Y55039D01*
X-75182Y55336D01*
X-75182Y69187D01*
X-75130Y69462D01*
X-74967Y69718D01*
X-74717Y69889D01*
X-74420Y69949D01*
X-73310Y69949D01*
X-71657Y71603D01*
X-71538Y71700D01*
X-71257Y71814D01*
X-54660Y74899D01*
X-54246Y74861D01*
X-53991Y74697D01*
X-53819Y74447D01*
X-53759Y74150D01*
X-53759Y70845D01*
X-51255Y68342D01*
X-47715Y68342D01*
X-45211Y70845D01*
X-45211Y74386D01*
X-47804Y76979D01*
X-47806Y76980D01*
X-48039Y77173D01*
X-48179Y77443D01*
X-48202Y77745D01*
X-48106Y78033D01*
X-47658Y78809D01*
X-47658Y81011D01*
X-82608Y115962D01*
X-82771Y116203D01*
X-82832Y116501D01*
X-82832Y118451D01*
X-82785Y118715D01*
X-82625Y118973D01*
X-82378Y119148D01*
X-82082Y119213D01*
X-81784Y119158D01*
X-81531Y118990D01*
X-1966Y39425D01*
X-1813Y39206D01*
X-1743Y38911D01*
X-1794Y38612D01*
X-1957Y38356D01*
X-2207Y38185D01*
X-2505Y38124D01*
X-5959Y38124D01*
X-6245Y38180D01*
X-6498Y38348D01*
X-13654Y45504D01*
X-13817Y45746D01*
X-13877Y46043D01*
X-13877Y47495D01*
X-15941Y49559D01*
X-18861Y49559D01*
X-20925Y47495D01*
X-20925Y44576D01*
X-18861Y42511D01*
X-17409Y42511D01*
X-17123Y42456D01*
X-16870Y42288D01*
X-9603Y35021D01*
X-9450Y34802D01*
X-9380Y34507D01*
X-9431Y34208D01*
X-9595Y33952D01*
X-9845Y33781D01*
X-10142Y33721D01*
X-22514Y33721D01*
X-23279Y32956D01*
X-23520Y32793D01*
X-23818Y32732D01*
X-25465Y32732D01*
X-25750Y32788D01*
X-26003Y32956D01*
X-27610Y34562D01*
X-33391Y34562D01*
X-33677Y34618D01*
X-33930Y34785D01*
X-34927Y35782D01*
X-38467Y35782D01*
X-40971Y33278D01*
X-40971Y29737D01*
X-38467Y27234D01*
X-34927Y27234D01*
X-32370Y29791D01*
X-32128Y29954D01*
X-31831Y30014D01*
X-29809Y30014D01*
X-29523Y29958D01*
X-29270Y29791D01*
X-27664Y28184D01*
X-21618Y28184D01*
X-20853Y28949D01*
X-20611Y29112D01*
X-20314Y29173D01*
X-5503Y29173D01*
X-5229Y29121D01*
X-4973Y28958D01*
X-4802Y28708D01*
X-4741Y28411D01*
X-4741Y25713D01*
X-3715Y24686D01*
X-3552Y24444D01*
X-3491Y24147D01*
X-3491Y11877D01*
X-3547Y11591D01*
X-3715Y11338D01*
X-4414Y10639D01*
X-4414Y10255D01*
X-4461Y9992D01*
X-4620Y9734D01*
X-4868Y9558D01*
G37*
%LPC*%
G36*
X-59346Y46690D02*
X-56426Y46690D01*
X-54362Y48755D01*
X-54362Y51674D01*
X-56426Y53738D01*
X-59346Y53738D01*
X-61410Y51674D01*
X-61410Y48755D01*
X-59346Y46690D01*
G37*
G36*
X-35058Y40757D02*
X-31517Y40757D01*
X-29014Y43261D01*
X-29014Y46801D01*
X-31517Y49305D01*
X-35058Y49305D01*
X-37562Y46801D01*
X-37562Y43261D01*
X-35058Y40757D01*
G37*
%LPD*%
G36*
X21920Y-111793D02*
X21623Y-111853D01*
X18510Y-111853D01*
X18247Y-111806D01*
X17989Y-111647D01*
X17813Y-111399D01*
X17748Y-111103D01*
X17804Y-110805D01*
X17971Y-110552D01*
X19294Y-109229D01*
X19294Y-106309D01*
X17230Y-104245D01*
X14311Y-104245D01*
X12246Y-106309D01*
X12246Y-107036D01*
X12195Y-107311D01*
X12032Y-107567D01*
X11782Y-107738D01*
X11484Y-107798D01*
X-952Y-107798D01*
X-1238Y-107743D01*
X-1252Y-107733D01*
X-56191Y-107733D01*
X-56340Y-107719D01*
X-60113Y-106968D01*
X-60388Y-106854D01*
X-63587Y-104717D01*
X-63703Y-104622D01*
X-64369Y-103956D01*
X-66515Y-103956D01*
X-66664Y-103941D01*
X-69187Y-103439D01*
X-69462Y-103326D01*
X-71601Y-101897D01*
X-71766Y-101746D01*
X-81324Y-90101D01*
X-81407Y-89976D01*
X-88509Y-76690D01*
X-88566Y-76552D01*
X-92939Y-62135D01*
X-92968Y-61989D01*
X-94445Y-46996D01*
X-94448Y-46921D01*
X-94448Y-21701D01*
X-101226Y-14924D01*
X-101379Y-14704D01*
X-101449Y-14409D01*
X-101398Y-14110D01*
X-101234Y-13855D01*
X-100984Y-13683D01*
X-100687Y-13623D01*
X-95550Y-13623D01*
X-95275Y-13674D01*
X-95020Y-13838D01*
X-94848Y-14088D01*
X-94788Y-14385D01*
X-94788Y-17083D01*
X-92723Y-19147D01*
X-89953Y-19147D01*
X-89667Y-19203D01*
X-89414Y-19370D01*
X-51333Y-57451D01*
X-39654Y-57451D01*
X-39390Y-57498D01*
X-39132Y-57657D01*
X-38957Y-57905D01*
X-38892Y-58201D01*
X-38947Y-58499D01*
X-39115Y-58752D01*
X-40044Y-59681D01*
X-40044Y-63222D01*
X-37540Y-65725D01*
X-35027Y-65725D01*
X-34741Y-65781D01*
X-34489Y-65948D01*
X-32490Y-67947D01*
X-32428Y-68017D01*
X-31950Y-68630D01*
X-31873Y-68650D01*
X-31729Y-68745D01*
X-30937Y-68745D01*
X-30844Y-68750D01*
X4389Y-73093D01*
X4559Y-73134D01*
X4817Y-73293D01*
X4993Y-73541D01*
X5058Y-73837D01*
X5002Y-74135D01*
X4835Y-74388D01*
X3569Y-75653D01*
X3569Y-78159D01*
X5340Y-79930D01*
X5893Y-79930D01*
X6179Y-79986D01*
X6432Y-80153D01*
X10926Y-84647D01*
X11089Y-84889D01*
X11150Y-85186D01*
X11150Y-90542D01*
X24320Y-103713D01*
X24483Y-103955D01*
X24543Y-104252D01*
X24543Y-107288D01*
X24488Y-107574D01*
X24320Y-107827D01*
X23271Y-108876D01*
X23271Y-110205D01*
X23216Y-110491D01*
X23048Y-110743D01*
X22162Y-111630D01*
X21920Y-111793D01*
G37*
G36*
X-44204Y-170256D02*
X-44501Y-170315D01*
X-83610Y-170156D01*
X-83882Y-170105D01*
X-84137Y-169942D01*
X-84309Y-169691D01*
X-84369Y-169394D01*
X-84369Y-163054D01*
X-84359Y-160883D01*
X-85190Y-158876D01*
X-85191Y-158873D01*
X-86013Y-156862D01*
X-87550Y-155326D01*
X-87553Y-155323D01*
X-89080Y-153782D01*
X-91087Y-152950D01*
X-91090Y-152949D01*
X-91463Y-152792D01*
X-91698Y-152637D01*
X-91870Y-152387D01*
X-91930Y-152090D01*
X-91930Y-140809D01*
X-92823Y-139916D01*
X-104754Y-139916D01*
X-105646Y-140809D01*
X-105646Y-151296D01*
X-105699Y-151573D01*
X-105863Y-151828D01*
X-106114Y-151999D01*
X-106412Y-152058D01*
X-128128Y-151957D01*
X-128399Y-151906D01*
X-128654Y-151743D01*
X-128826Y-151493D01*
X-128886Y-151195D01*
X-128886Y-140809D01*
X-129779Y-139916D01*
X-141710Y-139916D01*
X-142602Y-140809D01*
X-142602Y-151124D01*
X-142653Y-151398D01*
X-142817Y-151654D01*
X-143067Y-151825D01*
X-143364Y-151886D01*
X-143712Y-151886D01*
X-145886Y-151876D01*
X-147892Y-152707D01*
X-147896Y-152708D01*
X-149906Y-153530D01*
X-151443Y-155067D01*
X-151445Y-155069D01*
X-152986Y-156597D01*
X-153818Y-158604D01*
X-153819Y-158607D01*
X-154659Y-160609D01*
X-154659Y-162784D01*
X-154670Y-165051D01*
X-154659Y-165104D01*
X-154659Y-169124D01*
X-154710Y-169398D01*
X-154874Y-169654D01*
X-155124Y-169825D01*
X-155421Y-169886D01*
X-163974Y-169886D01*
X-166298Y-169886D01*
X-166383Y-169881D01*
X-179360Y-168419D01*
X-179526Y-168381D01*
X-191852Y-164068D01*
X-192006Y-163994D01*
X-203063Y-157046D01*
X-203196Y-156940D01*
X-212430Y-147706D01*
X-212537Y-147572D01*
X-219484Y-136515D01*
X-219558Y-136362D01*
X-219864Y-135488D01*
X-219906Y-135261D01*
X-219855Y-134962D01*
X-219692Y-134707D01*
X-219442Y-134535D01*
X-219145Y-134475D01*
X-217087Y-134475D01*
X-215023Y-132410D01*
X-215023Y-130958D01*
X-214967Y-130672D01*
X-214800Y-130420D01*
X-172436Y-88056D01*
X-172195Y-87893D01*
X-171897Y-87833D01*
X-146093Y-87833D01*
X-137989Y-79729D01*
X-137770Y-79576D01*
X-137475Y-79506D01*
X-137176Y-79557D01*
X-136920Y-79721D01*
X-136749Y-79971D01*
X-136689Y-80268D01*
X-136689Y-81273D01*
X-134185Y-83777D01*
X-130644Y-83777D01*
X-128141Y-81273D01*
X-128141Y-80268D01*
X-128094Y-80005D01*
X-127934Y-79747D01*
X-127687Y-79571D01*
X-127391Y-79506D01*
X-127093Y-79562D01*
X-126840Y-79729D01*
X-124069Y-82500D01*
X-117291Y-82500D01*
X-117005Y-82556D01*
X-116752Y-82724D01*
X-115725Y-83750D01*
X-112490Y-83750D01*
X-112490Y-83751D01*
X-112402Y-83742D01*
X-112113Y-83831D01*
X-111881Y-84027D01*
X-111743Y-84297D01*
X-111722Y-84600D01*
X-112101Y-87472D01*
X-112152Y-87664D01*
X-115047Y-94654D01*
X-115147Y-94827D01*
X-119752Y-100829D01*
X-119818Y-100904D01*
X-120707Y-101793D01*
X-120707Y-101793D01*
X-125437Y-106523D01*
X-125481Y-106564D01*
X-127259Y-108082D01*
X-127355Y-108152D01*
X-129799Y-109649D01*
X-129905Y-109703D01*
X-132553Y-110800D01*
X-132667Y-110837D01*
X-135454Y-111506D01*
X-135572Y-111525D01*
X-138548Y-111759D01*
X-138608Y-111762D01*
X-140683Y-111762D01*
X-156326Y-127405D01*
X-156326Y-131333D01*
X-156346Y-131504D01*
X-156472Y-131780D01*
X-156747Y-132159D01*
X-156824Y-132250D01*
X-164632Y-140057D01*
X-164632Y-140057D01*
X-178737Y-154163D01*
X-178737Y-158724D01*
X-178793Y-159010D01*
X-178960Y-159263D01*
X-179987Y-160290D01*
X-179987Y-163209D01*
X-177923Y-165274D01*
X-175004Y-165274D01*
X-172939Y-163209D01*
X-172939Y-160290D01*
X-173966Y-159263D01*
X-174129Y-159022D01*
X-174189Y-158724D01*
X-174189Y-156362D01*
X-174134Y-156076D01*
X-173966Y-155824D01*
X-158071Y-139929D01*
X-157852Y-139776D01*
X-157557Y-139706D01*
X-157258Y-139757D01*
X-157002Y-139920D01*
X-156831Y-140170D01*
X-156770Y-140467D01*
X-156770Y-147392D01*
X-156826Y-147678D01*
X-156982Y-147912D01*
X-156982Y-150838D01*
X-154917Y-152902D01*
X-151998Y-152902D01*
X-149934Y-150838D01*
X-149934Y-147918D01*
X-151999Y-145853D01*
X-152162Y-145611D01*
X-152222Y-145314D01*
X-152222Y-141870D01*
X-152208Y-141721D01*
X-151550Y-138414D01*
X-151436Y-138139D01*
X-149563Y-135335D01*
X-149468Y-135220D01*
X-148802Y-134554D01*
X-148802Y-133612D01*
X-148787Y-133463D01*
X-148290Y-130962D01*
X-148176Y-130687D01*
X-146759Y-128567D01*
X-146664Y-128451D01*
X-137770Y-119557D01*
X-137528Y-119394D01*
X-137231Y-119334D01*
X-134986Y-119334D01*
X-128219Y-117520D01*
X-122151Y-114017D01*
X-114372Y-106238D01*
X-114153Y-106085D01*
X-113858Y-106016D01*
X-113559Y-106066D01*
X-113303Y-106230D01*
X-113132Y-106480D01*
X-113071Y-106777D01*
X-113071Y-111239D01*
X-109815Y-119100D01*
X-103799Y-125116D01*
X-95937Y-128373D01*
X-94708Y-128373D01*
X-94422Y-128428D01*
X-94170Y-128596D01*
X-93143Y-129623D01*
X-90223Y-129623D01*
X-88159Y-127558D01*
X-88159Y-124639D01*
X-90223Y-122575D01*
X-93143Y-122575D01*
X-93668Y-123099D01*
X-94052Y-123307D01*
X-94355Y-123308D01*
X-97985Y-122586D01*
X-98259Y-122472D01*
X-103476Y-118987D01*
X-103686Y-118777D01*
X-107171Y-113560D01*
X-107285Y-113286D01*
X-108300Y-108182D01*
X-108259Y-107747D01*
X-108092Y-107494D01*
X-102923Y-102325D01*
X-102681Y-102162D01*
X-102384Y-102102D01*
X-100932Y-102102D01*
X-98867Y-100038D01*
X-98867Y-97118D01*
X-100932Y-95054D01*
X-103769Y-95054D01*
X-104129Y-94964D01*
X-104362Y-94770D01*
X-104502Y-94501D01*
X-104525Y-94199D01*
X-104429Y-93911D01*
X-104042Y-93241D01*
X-102156Y-86203D01*
X-102156Y-67807D01*
X-102047Y-67414D01*
X-101843Y-67191D01*
X-101567Y-67065D01*
X-101264Y-67056D01*
X-100981Y-67167D01*
X-100764Y-67378D01*
X-100647Y-67658D01*
X-99301Y-74423D01*
X-93723Y-87891D01*
X-85624Y-100011D01*
X-69235Y-116401D01*
X23823Y-116401D01*
X26141Y-114082D01*
X26383Y-113920D01*
X26680Y-113859D01*
X28255Y-113859D01*
X30319Y-111795D01*
X30319Y-108876D01*
X29315Y-107871D01*
X29152Y-107629D01*
X29091Y-107332D01*
X29091Y-102052D01*
X22934Y-95895D01*
X22781Y-95676D01*
X22712Y-95381D01*
X22762Y-95082D01*
X22926Y-94826D01*
X23176Y-94655D01*
X23473Y-94595D01*
X26532Y-94595D01*
X29035Y-92091D01*
X29035Y-88550D01*
X26532Y-86047D01*
X22991Y-86047D01*
X21241Y-87797D01*
X21093Y-87911D01*
X20808Y-88012D01*
X20505Y-87994D01*
X19946Y-87844D01*
X19604Y-87647D01*
X19121Y-87164D01*
X18924Y-86822D01*
X18747Y-86163D01*
X18721Y-85966D01*
X18721Y-72795D01*
X17621Y-70888D01*
X15859Y-69871D01*
X15850Y-69864D01*
X15841Y-69861D01*
X15714Y-69788D01*
X14800Y-69788D01*
X14706Y-69782D01*
X-24762Y-64917D01*
X-24920Y-64880D01*
X-25181Y-64725D01*
X-25360Y-64481D01*
X-25430Y-64185D01*
X-25379Y-63886D01*
X-25216Y-63631D01*
X-24966Y-63460D01*
X-24669Y-63399D01*
X-23281Y-63399D01*
X-19379Y-61783D01*
X-18679Y-61083D01*
X-18491Y-60945D01*
X-18199Y-60862D01*
X32007Y-56971D01*
X32352Y-57024D01*
X32605Y-57192D01*
X32957Y-57543D01*
X35462Y-57543D01*
X37233Y-55772D01*
X37233Y-53267D01*
X36440Y-52473D01*
X36282Y-52242D01*
X36216Y-51946D01*
X36272Y-51648D01*
X36440Y-51395D01*
X37177Y-50658D01*
X37189Y-50592D01*
X37348Y-50334D01*
X37595Y-50158D01*
X37892Y-50093D01*
X38190Y-50149D01*
X38443Y-50316D01*
X39742Y-51616D01*
X52406Y-51616D01*
X52692Y-51672D01*
X52945Y-51839D01*
X56200Y-55094D01*
X65891Y-55094D01*
X69047Y-51937D01*
X69277Y-51779D01*
X69574Y-51714D01*
X69872Y-51770D01*
X70125Y-51937D01*
X72077Y-53889D01*
X72172Y-54005D01*
X77019Y-61260D01*
X77133Y-61535D01*
X78836Y-70093D01*
X78850Y-70242D01*
X78850Y-114146D01*
X84433Y-119729D01*
X84596Y-119970D01*
X84656Y-120267D01*
X84656Y-121720D01*
X85902Y-122965D01*
X86055Y-123184D01*
X86124Y-123479D01*
X86074Y-123778D01*
X85910Y-124034D01*
X85660Y-124205D01*
X85363Y-124266D01*
X82325Y-124266D01*
X81961Y-124173D01*
X81812Y-124092D01*
X81330Y-124234D01*
X81114Y-124266D01*
X80611Y-124266D01*
X80491Y-124386D01*
X80168Y-124578D01*
X45370Y-134867D01*
X45157Y-134898D01*
X-42392Y-135274D01*
X-42693Y-135214D01*
X-42943Y-135042D01*
X-43643Y-134319D01*
X-43797Y-134086D01*
X-43857Y-133789D01*
X-43857Y-131903D01*
X-46068Y-129693D01*
X-49194Y-129693D01*
X-51405Y-131903D01*
X-51405Y-135030D01*
X-49194Y-137241D01*
X-47467Y-137241D01*
X-47169Y-137301D01*
X-46919Y-137473D01*
X-46160Y-138258D01*
X-46089Y-138365D01*
X-45301Y-139146D01*
X-45290Y-139157D01*
X-44637Y-139832D01*
X-43699Y-139828D01*
X-43683Y-139828D01*
X-42562Y-139846D01*
X-42447Y-139822D01*
X-35676Y-139793D01*
X-35398Y-139845D01*
X-35143Y-140008D01*
X-34971Y-140258D01*
X-34911Y-140555D01*
X-34911Y-151812D01*
X-34963Y-152089D01*
X-35127Y-152344D01*
X-35378Y-152515D01*
X-37015Y-153202D01*
X-37018Y-153204D01*
X-39027Y-154036D01*
X-40554Y-155578D01*
X-40556Y-155580D01*
X-42093Y-157118D01*
X-42915Y-159130D01*
X-42917Y-159133D01*
X-43747Y-161138D01*
X-43736Y-163310D01*
X-43736Y-169553D01*
X-43789Y-169830D01*
X-43953Y-170085D01*
X-44204Y-170256D01*
G37*
%LPC*%
G36*
X43936Y-61250D02*
X46856Y-61250D01*
X48920Y-59186D01*
X48920Y-56266D01*
X46856Y-54202D01*
X43936Y-54202D01*
X41872Y-56266D01*
X41872Y-59186D01*
X43936Y-61250D01*
G37*
G36*
X31988Y-101227D02*
X34907Y-101227D01*
X36971Y-99162D01*
X36971Y-98369D01*
X37023Y-98094D01*
X37186Y-97838D01*
X37436Y-97667D01*
X37733Y-97607D01*
X52329Y-97607D01*
X52615Y-97662D01*
X52868Y-97830D01*
X53611Y-98573D01*
X56530Y-98573D01*
X58594Y-96508D01*
X58594Y-93589D01*
X56530Y-91525D01*
X53611Y-91525D01*
X52300Y-92835D01*
X52058Y-92998D01*
X51761Y-93059D01*
X34876Y-93059D01*
X33979Y-93956D01*
X33737Y-94118D01*
X33440Y-94179D01*
X31988Y-94179D01*
X29923Y-96243D01*
X29923Y-99162D01*
X31988Y-101227D01*
G37*
%LPD*%
G36*
X-54004Y121648D02*
X-52825Y121781D01*
X-51645Y121648D01*
X-50525Y121256D01*
X-49520Y120624D01*
X-48681Y119785D01*
X-48049Y118780D01*
X-47657Y117660D01*
X-47525Y116483D01*
X-47525Y105478D01*
X-47657Y104301D01*
X-48049Y103181D01*
X-48681Y102176D01*
X-49520Y101336D01*
X-50525Y100705D01*
X-51645Y100313D01*
X-52825Y100180D01*
X-54004Y100313D01*
X-55125Y100705D01*
X-56130Y101336D01*
X-56969Y102176D01*
X-57600Y103181D01*
X-57992Y104301D01*
X-58125Y105478D01*
X-58125Y116483D01*
X-57992Y117660D01*
X-57600Y118780D01*
X-56969Y119785D01*
X-56130Y120624D01*
X-55125Y121256D01*
X-54004Y121648D01*
G37*
G36*
X-54004Y121648D02*
X-52825Y121781D01*
X-51645Y121648D01*
X-50525Y121256D01*
X-49520Y120624D01*
X-48681Y119785D01*
X-48049Y118780D01*
X-47657Y117660D01*
X-47525Y116483D01*
X-47525Y105478D01*
X-47657Y104301D01*
X-48049Y103181D01*
X-48681Y102176D01*
X-49520Y101336D01*
X-50525Y100705D01*
X-51645Y100313D01*
X-52825Y100180D01*
X-54004Y100313D01*
X-55125Y100705D01*
X-56130Y101336D01*
X-56969Y102176D01*
X-57600Y103181D01*
X-57992Y104301D01*
X-58125Y105478D01*
X-58125Y116483D01*
X-57992Y117660D01*
X-57600Y118780D01*
X-56969Y119785D01*
X-56130Y120624D01*
X-55125Y121256D01*
X-54004Y121648D01*
G37*
G36*
X32396Y121648D02*
X33575Y121781D01*
X34755Y121648D01*
X35875Y121256D01*
X36880Y120624D01*
X37719Y119785D01*
X38351Y118780D01*
X38743Y117660D01*
X38875Y116483D01*
X38875Y105478D01*
X38743Y104301D01*
X38351Y103181D01*
X37719Y102176D01*
X36880Y101336D01*
X35875Y100705D01*
X34755Y100313D01*
X33575Y100180D01*
X32396Y100313D01*
X31275Y100705D01*
X30271Y101336D01*
X29431Y102176D01*
X28800Y103181D01*
X28408Y104301D01*
X28275Y105478D01*
X28275Y116483D01*
X28408Y117660D01*
X28800Y118780D01*
X29431Y119785D01*
X30271Y120624D01*
X31275Y121256D01*
X32396Y121648D01*
G37*
G36*
X32396Y121648D02*
X33575Y121781D01*
X34755Y121648D01*
X35875Y121256D01*
X36880Y120624D01*
X37719Y119785D01*
X38351Y118780D01*
X38743Y117660D01*
X38875Y116483D01*
X38875Y105478D01*
X38743Y104301D01*
X38351Y103181D01*
X37719Y102176D01*
X36880Y101336D01*
X35875Y100705D01*
X34755Y100313D01*
X33575Y100180D01*
X32396Y100313D01*
X31275Y100705D01*
X30271Y101336D01*
X29431Y102176D01*
X28800Y103181D01*
X28408Y104301D01*
X28275Y105478D01*
X28275Y116483D01*
X28408Y117660D01*
X28800Y118780D01*
X29431Y119785D01*
X30271Y120624D01*
X31275Y121256D01*
X32396Y121648D01*
G37*
G36*
X-54004Y161648D02*
X-52825Y161781D01*
X-51645Y161648D01*
X-50525Y161256D01*
X-49520Y160624D01*
X-48681Y159785D01*
X-48049Y158780D01*
X-47657Y157660D01*
X-47525Y156483D01*
X-47525Y148478D01*
X-47657Y147301D01*
X-48049Y146181D01*
X-48681Y145176D01*
X-49520Y144336D01*
X-50525Y143705D01*
X-51645Y143313D01*
X-52825Y143180D01*
X-54004Y143313D01*
X-55125Y143705D01*
X-56130Y144336D01*
X-56969Y145176D01*
X-57600Y146181D01*
X-57992Y147301D01*
X-58125Y148478D01*
X-58125Y156483D01*
X-57992Y157660D01*
X-57600Y158780D01*
X-56969Y159785D01*
X-56130Y160624D01*
X-55125Y161256D01*
X-54004Y161648D01*
G37*
G36*
X-54004Y161648D02*
X-52825Y161781D01*
X-51645Y161648D01*
X-50525Y161256D01*
X-49520Y160624D01*
X-48681Y159785D01*
X-48049Y158780D01*
X-47657Y157660D01*
X-47525Y156483D01*
X-47525Y148478D01*
X-47657Y147301D01*
X-48049Y146181D01*
X-48681Y145176D01*
X-49520Y144336D01*
X-50525Y143705D01*
X-51645Y143313D01*
X-52825Y143180D01*
X-54004Y143313D01*
X-55125Y143705D01*
X-56130Y144336D01*
X-56969Y145176D01*
X-57600Y146181D01*
X-57992Y147301D01*
X-58125Y148478D01*
X-58125Y156483D01*
X-57992Y157660D01*
X-57600Y158780D01*
X-56969Y159785D01*
X-56130Y160624D01*
X-55125Y161256D01*
X-54004Y161648D01*
G37*
G36*
X32396Y161648D02*
X33575Y161781D01*
X34755Y161648D01*
X35875Y161256D01*
X36880Y160624D01*
X37719Y159785D01*
X38351Y158780D01*
X38743Y157660D01*
X38875Y156483D01*
X38875Y148478D01*
X38743Y147301D01*
X38351Y146181D01*
X37719Y145176D01*
X36880Y144336D01*
X35875Y143705D01*
X34755Y143313D01*
X33575Y143180D01*
X32396Y143313D01*
X31275Y143705D01*
X30271Y144336D01*
X29431Y145176D01*
X28800Y146181D01*
X28408Y147301D01*
X28275Y148478D01*
X28275Y156483D01*
X28408Y157660D01*
X28800Y158780D01*
X29431Y159785D01*
X30271Y160624D01*
X31275Y161256D01*
X32396Y161648D01*
G37*
G36*
X32396Y161648D02*
X33575Y161781D01*
X34755Y161648D01*
X35875Y161256D01*
X36880Y160624D01*
X37719Y159785D01*
X38351Y158780D01*
X38743Y157660D01*
X38875Y156483D01*
X38875Y148478D01*
X38743Y147301D01*
X38351Y146181D01*
X37719Y145176D01*
X36880Y144336D01*
X35875Y143705D01*
X34755Y143313D01*
X33575Y143180D01*
X32396Y143313D01*
X31275Y143705D01*
X30271Y144336D01*
X29431Y145176D01*
X28800Y146181D01*
X28408Y147301D01*
X28275Y148478D01*
X28275Y156483D01*
X28408Y157660D01*
X28800Y158780D01*
X29431Y159785D01*
X30271Y160624D01*
X31275Y161256D01*
X32396Y161648D01*
G37*
D10*
X33575Y152480D03*
X-52825Y152480D03*
X33575Y110980D03*
X-52825Y110980D03*
D11*
X-98788Y-146774D03*
X-135744Y-146774D03*
X8903Y-146790D03*
X-28053Y-146790D03*
X122075Y-146718D03*
X85119Y-146718D03*
D12*
X31265Y-145843D03*
X-74683Y-148185D03*
X-186499Y-132437D03*
X144488Y-146925D03*
X40263Y66993D03*
X5001Y-101488D03*
X-110665Y80025D03*
X62851Y-77190D03*
X48032Y1168D03*
X-31130Y37312D03*
D13*
X-44538Y55002D03*
X-72423Y56416D03*
D12*
X-22443Y79477D03*
X-2857Y80988D03*
X-115680Y116403D03*
D13*
X-126312Y95529D03*
D12*
X-70404Y89586D03*
X-101994Y154253D03*
D14*
X42179Y-11345D02*
X44248Y-15406D01*
X54312Y-25470D01*
D13*
X55611Y-39645D03*
D14*
X54312Y-38346D02*
X54312Y-25470D01*
X54312Y-38346D02*
X55611Y-39645D01*
X42179Y-11345D02*
X42179Y-7942D01*
X37452Y-3214D01*
X37452Y-2933D01*
X27796Y6723D01*
D15*
X34209Y-34594D03*
D14*
X27796Y6723D02*
X27796Y12879D01*
X-90149Y130824D01*
D13*
X-90149Y134495D03*
D14*
X-90149Y130824D01*
D13*
X-63932Y35898D03*
X61719Y-48546D03*
X-57886Y50214D03*
D15*
X34196Y-44181D03*
D12*
X-33631Y-19736D03*
X63417Y134350D03*
X-33631Y-29883D03*
X63516Y148568D03*
D15*
X6558Y-21520D03*
X54034Y56672D03*
X175194Y120689D03*
D14*
X162199Y107694D01*
X162199Y88038D01*
D15*
X59783Y56584D03*
D14*
X130745Y56584D01*
X162199Y88038D01*
D12*
X24761Y-90321D03*
X-35770Y-61451D03*
D14*
X-30750Y-66471D01*
X20802Y-90321D02*
X24761Y-90321D01*
X14613Y-72062D02*
X-30750Y-66471D01*
X14613Y-72062D02*
X14698Y-72064D01*
X14782Y-72070D01*
X14866Y-72080D01*
X14950Y-72093D01*
X15033Y-72111D01*
X15115Y-72132D01*
X15196Y-72157D01*
X15276Y-72186D01*
X15354Y-72218D01*
X15430Y-72254D01*
X15505Y-72294D01*
X15578Y-72337D01*
X15649Y-72383D01*
X15718Y-72432D01*
X15785Y-72485D01*
X15849Y-72541D01*
X15910Y-72599D01*
X15968Y-72660D01*
X16024Y-72724D01*
X16077Y-72791D01*
X16126Y-72860D01*
X16172Y-72931D01*
X16215Y-73004D01*
X16255Y-73079D01*
X16291Y-73155D01*
X16323Y-73233D01*
X16352Y-73313D01*
X16377Y-73394D01*
X16398Y-73476D01*
X16416Y-73559D01*
X16429Y-73643D01*
X16439Y-73727D01*
X16445Y-73811D01*
X16447Y-73896D01*
X16447Y-85966D01*
X16449Y-86095D01*
X16455Y-86224D01*
X16464Y-86353D01*
X16478Y-86481D01*
X16495Y-86609D01*
X16516Y-86736D01*
X16540Y-86863D01*
X16569Y-86989D01*
X16601Y-87114D01*
X16637Y-87238D01*
X16676Y-87361D01*
X16720Y-87482D01*
X16766Y-87603D01*
X16817Y-87722D01*
X16870Y-87839D01*
X16928Y-87955D01*
X16988Y-88069D01*
X17052Y-88181D01*
X17119Y-88291D01*
X17190Y-88399D01*
X17264Y-88505D01*
X17340Y-88609D01*
X17420Y-88710D01*
X17503Y-88809D01*
X17589Y-88906D01*
X17677Y-88999D01*
X17769Y-89091D01*
X17862Y-89179D01*
X17959Y-89265D01*
X18058Y-89348D01*
X18159Y-89428D01*
X18263Y-89504D01*
X18369Y-89578D01*
X18477Y-89649D01*
X18587Y-89716D01*
X18699Y-89780D01*
X18813Y-89840D01*
X18929Y-89898D01*
X19046Y-89951D01*
X19165Y-90002D01*
X19286Y-90048D01*
X19407Y-90092D01*
X19530Y-90131D01*
X19654Y-90167D01*
X19779Y-90199D01*
X19905Y-90228D01*
X20032Y-90252D01*
X20159Y-90273D01*
X20287Y-90290D01*
X20415Y-90304D01*
X20544Y-90313D01*
X20673Y-90319D01*
X20802Y-90321D01*
X-73325Y-103410D02*
X-74653Y-102049D01*
X-75948Y-100658D01*
X-77211Y-99236D01*
X-78438Y-97784D01*
X-79631Y-96304D01*
X-80789Y-94795D01*
X-81910Y-93260D01*
X-82994Y-91698D01*
X-84041Y-90111D01*
X-85050Y-88500D01*
X-86020Y-86865D01*
X-86951Y-85207D01*
X-87842Y-83527D01*
X-88693Y-81827D01*
X-89504Y-80107D01*
X-90273Y-78369D01*
X-91001Y-76612D01*
X-91686Y-74839D01*
X-92329Y-73049D01*
X-92930Y-71246D01*
X-93487Y-69428D01*
X-94001Y-67597D01*
X-94471Y-65755D01*
X-94897Y-63902D01*
X-95279Y-62040D01*
X-95617Y-60169D01*
X-95910Y-58290D01*
X-96158Y-56405D01*
X-96361Y-54515D01*
X-96519Y-52620D01*
X-96633Y-50722D01*
X-96700Y-48822D01*
X-96723Y-46921D01*
X-73324Y-103410D02*
X-73160Y-103570D01*
X-72992Y-103726D01*
X-72821Y-103878D01*
X-72646Y-104026D01*
X-72467Y-104170D01*
X-72285Y-104309D01*
X-72100Y-104445D01*
X-71912Y-104575D01*
X-71721Y-104701D01*
X-71527Y-104823D01*
X-71329Y-104940D01*
X-71130Y-105052D01*
X-70927Y-105160D01*
X-70722Y-105262D01*
X-70515Y-105360D01*
X-70305Y-105453D01*
X-70094Y-105540D01*
X-69880Y-105623D01*
X-69664Y-105700D01*
X-69447Y-105773D01*
X-69228Y-105840D01*
X-69007Y-105902D01*
X-68785Y-105959D01*
X-68562Y-106010D01*
X-68337Y-106056D01*
X-68112Y-106097D01*
X-67885Y-106132D01*
X-67658Y-106162D01*
X-67430Y-106186D01*
X-67202Y-106205D01*
X-66973Y-106219D01*
X-66744Y-106227D01*
X-66515Y-106230D01*
X-65311Y-106230D01*
X-65091Y-106444D01*
X-64866Y-106653D01*
X-64637Y-106857D01*
X-64402Y-107055D01*
X-64163Y-107248D01*
X-63920Y-107435D01*
X-63672Y-107616D01*
X-63420Y-107791D01*
X-63164Y-107960D01*
X-62903Y-108123D01*
X-62640Y-108279D01*
X-62372Y-108429D01*
X-62101Y-108573D01*
X-61826Y-108711D01*
X-61549Y-108842D01*
X-61268Y-108966D01*
X-60984Y-109083D01*
X-60698Y-109194D01*
X-60409Y-109298D01*
X-60118Y-109395D01*
X-59825Y-109485D01*
X-59529Y-109568D01*
X-59232Y-109643D01*
X-58932Y-109712D01*
X-58632Y-109774D01*
X-58330Y-109828D01*
X-58026Y-109876D01*
X-57722Y-109916D01*
X-57417Y-109949D01*
X-57111Y-109974D01*
X-56805Y-109992D01*
X-56498Y-110003D01*
X-56191Y-110007D01*
D13*
X15770Y-107769D03*
D14*
X-2274Y-110007D02*
X-56191Y-110007D01*
X-2274Y-110007D02*
X-2209Y-110072D01*
X13467Y-110072D01*
X15770Y-107769D01*
D13*
X-105457Y-15623D03*
D14*
X-96722Y-22643D02*
X-96722Y-46921D01*
X-96722Y-22643D02*
X-103742Y-15623D01*
X-105457Y-15623D01*
X-100972Y-24210D02*
X-100908Y-24212D01*
X-100844Y-24217D01*
X-100781Y-24227D01*
X-100718Y-24240D01*
X-100656Y-24256D01*
X-100595Y-24276D01*
X-100536Y-24300D01*
X-100478Y-24327D01*
X-100422Y-24358D01*
X-100367Y-24391D01*
X-100315Y-24428D01*
X-100264Y-24468D01*
X-100216Y-24510D01*
X-100171Y-24555D01*
X-100129Y-24603D01*
X-100089Y-24654D01*
X-100052Y-24706D01*
X-100019Y-24761D01*
X-99988Y-24817D01*
X-99961Y-24875D01*
X-99937Y-24934D01*
X-99917Y-24995D01*
X-99901Y-25057D01*
X-99888Y-25120D01*
X-99878Y-25183D01*
X-99873Y-25247D01*
X-99871Y-25311D01*
X-99871Y-52838D01*
X-99851Y-54545D01*
X-99790Y-56251D01*
X-99688Y-57955D01*
X-99546Y-59656D01*
X-99364Y-61353D01*
X-99141Y-63046D01*
X-98878Y-64732D01*
X-98575Y-66412D01*
X-98232Y-68085D01*
X-97849Y-69748D01*
X-97427Y-71402D01*
X-96966Y-73046D01*
X-96465Y-74678D01*
X-95926Y-76298D01*
X-95349Y-77904D01*
X-94733Y-79496D01*
X-94080Y-81073D01*
X-93389Y-82634D01*
X-92662Y-84179D01*
X-91897Y-85705D01*
X-91097Y-87213D01*
X-90261Y-88702D01*
X-89390Y-90170D01*
X-88485Y-91617D01*
X-87545Y-93042D01*
X-86571Y-94444D01*
X-85564Y-95822D01*
X-84525Y-97177D01*
X-83454Y-98506D01*
X-82352Y-99809D01*
X-81218Y-101086D01*
X-80055Y-102335D01*
X-78863Y-103557D01*
X-68293Y-114127D01*
X22881Y-114127D01*
X26817Y-110190D01*
X13424Y-83929D02*
X6729Y-77234D01*
X13424Y-83929D02*
X13424Y-89600D01*
X26817Y-102994D02*
X26817Y-110190D01*
X26817Y-102994D02*
X13424Y-89600D01*
D13*
X26795Y-110335D03*
D14*
X26817Y-110313D02*
X26817Y-110190D01*
X26817Y-110313D02*
X26795Y-110335D01*
D15*
X6593Y-76906D03*
D13*
X-110981Y-15623D03*
D14*
X-109731Y-17393D02*
X-107227Y-19897D01*
X-105285Y-19897D02*
X-100972Y-24210D01*
X-105285Y-19897D02*
X-107227Y-19897D01*
X-109731Y-17393D02*
X-109731Y-16873D01*
X-110981Y-15623D01*
X6593Y-76906D02*
X6595Y-76946D01*
X6600Y-76987D01*
X6609Y-77026D01*
X6621Y-77065D01*
X6636Y-77102D01*
X6655Y-77138D01*
X6677Y-77172D01*
X6702Y-77204D01*
X6729Y-77234D01*
D13*
X55070Y-95049D03*
D14*
X54786Y-95333D01*
D13*
X33447Y-97703D03*
D14*
X35818Y-95333D01*
X54786Y-95333D01*
X-19494Y-58681D02*
X-19636Y-58820D01*
X-19781Y-58955D01*
X-19930Y-59087D01*
X-20081Y-59215D01*
X-20236Y-59340D01*
X-20393Y-59461D01*
X-20554Y-59578D01*
X-20717Y-59691D01*
X-20882Y-59801D01*
X-21051Y-59906D01*
X-21222Y-60007D01*
X-21395Y-60104D01*
X-21570Y-60198D01*
X-21748Y-60286D01*
X-21927Y-60371D01*
X-22109Y-60451D01*
X-22292Y-60527D01*
X-22477Y-60599D01*
X-22664Y-60666D01*
X-22853Y-60729D01*
X-23043Y-60787D01*
X-23234Y-60841D01*
X-23426Y-60890D01*
X-23620Y-60934D01*
X-23814Y-60974D01*
X-24009Y-61009D01*
X-24206Y-61040D01*
X-24403Y-61066D01*
X-24600Y-61087D01*
X-24798Y-61104D01*
X-24996Y-61116D01*
X-25194Y-61123D01*
X-25393Y-61125D01*
X-25726Y-60792D01*
X-25726Y-57826D01*
X-28375Y-55177D01*
D15*
X34209Y-54519D03*
D14*
X-19494Y-58682D01*
X-28375Y-55177D02*
X-50391Y-55177D01*
D13*
X-91264Y-15623D03*
D14*
X-89945Y-15623D01*
X-50391Y-55177D01*
X29683Y558D02*
X30603Y-383D01*
X31499Y-1346D01*
X32372Y-2330D01*
X33222Y-3334D01*
X34047Y-4358D01*
X34848Y-5402D01*
X35624Y-6465D01*
X36374Y-7545D01*
X37099Y-8643D01*
X37797Y-9759D01*
X38468Y-10890D01*
X39112Y-12037D01*
X39729Y-13199D01*
X40318Y-14376D01*
X40879Y-15566D01*
X41411Y-16769D01*
X41914Y-17984D01*
X42389Y-19211D01*
X42834Y-20449D01*
X43249Y-21698D01*
X43635Y-22955D01*
X43990Y-24222D01*
X44316Y-25497D01*
X44611Y-26779D01*
X44875Y-28068D01*
X45109Y-29362D01*
X45311Y-30662D01*
X45483Y-31966D01*
X45624Y-33274D01*
X45733Y-34586D01*
X45811Y-35899D01*
X45858Y-37214D01*
X45874Y-38529D01*
X46522Y-37882D01*
D13*
X48023Y-37882D03*
D14*
X46522Y-37882D01*
X-22560Y30458D02*
X-26722Y30458D01*
X-28552Y32288D01*
X-34814Y32288D01*
D12*
X-36697Y31508D03*
D14*
X-36698Y31508D02*
X-36626Y31577D01*
X-36552Y31643D01*
X-36475Y31707D01*
X-36396Y31767D01*
X-36315Y31825D01*
X-36231Y31880D01*
X-36146Y31931D01*
X-36059Y31979D01*
X-35970Y32024D01*
X-35879Y32066D01*
X-35787Y32104D01*
X-35694Y32139D01*
X-35599Y32170D01*
X-35504Y32197D01*
X-35407Y32221D01*
X-35309Y32242D01*
X-35211Y32258D01*
X-35112Y32271D01*
X-35013Y32281D01*
X-34914Y32286D01*
X-34814Y32288D01*
X-21572Y31447D02*
X553Y31447D01*
X-21572Y31447D02*
X-22560Y30458D01*
X20597Y9645D02*
X29684Y559D01*
X20597Y9645D02*
X18941Y9645D01*
X16438Y12149D01*
X16438Y15562D01*
X553Y31447D01*
D13*
X33645Y17695D03*
D14*
X32088Y20028D02*
X32079Y20806D01*
X32051Y21583D01*
X32005Y22359D01*
X31940Y23134D01*
X31857Y23907D01*
X31755Y24678D01*
X31636Y25446D01*
X31498Y26211D01*
X31341Y26973D01*
X31167Y27731D01*
X30975Y28484D01*
X30765Y29233D01*
X30537Y29976D01*
X30291Y30714D01*
X30028Y31446D01*
X29748Y32171D01*
X29450Y32889D01*
X29135Y33600D01*
X28804Y34304D01*
X28456Y34999D01*
X28092Y35686D01*
X27711Y36364D01*
X27314Y37033D01*
X26901Y37692D01*
X26473Y38341D01*
X26030Y38980D01*
X25571Y39608D01*
X25098Y40224D01*
X24610Y40830D01*
X24108Y41424D01*
X23592Y42005D01*
X23062Y42574D01*
X22519Y43131D01*
X20949Y44701D01*
D13*
X20949Y44701D03*
D14*
X32088Y17695D02*
X33645Y17695D01*
X32088Y17695D02*
X32088Y20028D01*
D13*
X-17401Y46035D03*
D14*
X-7216Y35850D01*
D13*
X20712Y13919D03*
D14*
X426Y35850D02*
X-7216Y35850D01*
X426Y35850D02*
X20712Y15565D01*
X20712Y13919D01*
X31486Y-22052D02*
X31952Y-22529D01*
X32407Y-23017D01*
X32849Y-23516D01*
X33280Y-24025D01*
X33699Y-24544D01*
X34105Y-25073D01*
X34498Y-25612D01*
X34878Y-26160D01*
X35245Y-26717D01*
X35599Y-27282D01*
X35940Y-27856D01*
X36266Y-28437D01*
X36579Y-29026D01*
X36877Y-29623D01*
X37162Y-30226D01*
X37431Y-30836D01*
X37687Y-31452D01*
X37927Y-32074D01*
X38153Y-32702D01*
X38363Y-33334D01*
X38559Y-33972D01*
X38739Y-34614D01*
X38904Y-35260D01*
X39054Y-35910D01*
X39188Y-36564D01*
X39306Y-37220D01*
X39409Y-37879D01*
X39496Y-38540D01*
X39567Y-39203D01*
X39623Y-39868D01*
X39662Y-40534D01*
X39686Y-41200D01*
X39694Y-41867D01*
X67025Y-48109D02*
X67177Y-48111D01*
X67329Y-48117D01*
X67481Y-48126D01*
X67633Y-48140D01*
X67784Y-48157D01*
X67935Y-48178D01*
X68085Y-48203D01*
X68234Y-48232D01*
X68383Y-48264D01*
X68531Y-48301D01*
X68678Y-48341D01*
X68823Y-48384D01*
X68968Y-48432D01*
X69111Y-48483D01*
X69253Y-48538D01*
X69394Y-48596D01*
X69533Y-48658D01*
X69670Y-48723D01*
X69806Y-48792D01*
X69940Y-48864D01*
X70072Y-48939D01*
X70202Y-49018D01*
X70331Y-49100D01*
X70457Y-49186D01*
X70580Y-49274D01*
X70702Y-49366D01*
X70821Y-49460D01*
X70938Y-49558D01*
X71052Y-49659D01*
X71164Y-49762D01*
X71273Y-49868D01*
X71272Y-49869D02*
X73685Y-52281D01*
X74107Y-52714D01*
X74519Y-53156D01*
X74920Y-53609D01*
X75310Y-54070D01*
X75690Y-54541D01*
X76058Y-55020D01*
X76414Y-55509D01*
X76759Y-56005D01*
X77092Y-56510D01*
X77413Y-57022D01*
X77721Y-57542D01*
X78017Y-58069D01*
X78300Y-58603D01*
X78571Y-59144D01*
X78829Y-59690D01*
X79073Y-60243D01*
X79305Y-60802D01*
X79523Y-61366D01*
X79727Y-61934D01*
X79918Y-62508D01*
X80095Y-63086D01*
X80259Y-63668D01*
X80408Y-64254D01*
X80544Y-64843D01*
X80665Y-65435D01*
X80772Y-66030D01*
X80865Y-66627D01*
X80944Y-67227D01*
X81009Y-67828D01*
X81059Y-68430D01*
X81095Y-69033D01*
X81117Y-69638D01*
X81124Y-70242D01*
D13*
X88180Y-120260D03*
D14*
X81124Y-113204D01*
X81124Y-70242D01*
X67025Y-50744D02*
X67025Y-48109D01*
X31486Y-22052D02*
X22678Y-13244D01*
D13*
X22279Y-6895D03*
D14*
X22678Y-7294D02*
X22678Y-13244D01*
X22678Y-7294D02*
X22279Y-6895D01*
X39693Y-47174D02*
X39105Y-47762D01*
X39693Y-47174D02*
X39693Y-41867D01*
X64949Y-52820D02*
X67025Y-50744D01*
X40684Y-49342D02*
X39105Y-47762D01*
X40684Y-49342D02*
X53664Y-49342D01*
X57142Y-52820D01*
X64949Y-52820D01*
X34626Y-15036D02*
X25943Y-1271D01*
X84148Y-58468D02*
X84148Y-75461D01*
X84509Y-110927D01*
X93655Y-116840D01*
X93655Y-120101D01*
X93654Y-120101D02*
X93652Y-120259D01*
X93646Y-120416D01*
X93637Y-120573D01*
X93624Y-120731D01*
X93607Y-120887D01*
X93587Y-121044D01*
X93562Y-121199D01*
X93534Y-121354D01*
X93503Y-121509D01*
X93467Y-121662D01*
X93428Y-121815D01*
X93386Y-121967D01*
X93340Y-122118D01*
X93290Y-122267D01*
X93236Y-122415D01*
X93180Y-122563D01*
X93119Y-122708D01*
X93055Y-122852D01*
X92988Y-122995D01*
X92918Y-123136D01*
X92844Y-123275D01*
X92767Y-123412D01*
X92686Y-123548D01*
X92603Y-123682D01*
X92516Y-123813D01*
X92426Y-123943D01*
X92333Y-124070D01*
X92237Y-124195D01*
X92138Y-124318D01*
X92036Y-124438D01*
X91932Y-124556D01*
X91824Y-124671D01*
X91714Y-124784D01*
X91715Y-124785D02*
X91606Y-124891D01*
X91495Y-124994D01*
X91381Y-125094D01*
X91264Y-125192D01*
X91145Y-125286D01*
X91024Y-125378D01*
X90901Y-125466D01*
X90775Y-125551D01*
X90647Y-125633D01*
X90517Y-125712D01*
X90385Y-125787D01*
X90252Y-125859D01*
X90116Y-125928D01*
X89979Y-125993D01*
X89840Y-126054D01*
X89700Y-126112D01*
X89558Y-126167D01*
X89415Y-126218D01*
X89271Y-126265D01*
X89126Y-126309D01*
X88979Y-126349D01*
X88832Y-126385D01*
X88683Y-126417D01*
X88534Y-126446D01*
X88384Y-126471D01*
X88234Y-126492D01*
X88083Y-126509D01*
X87932Y-126523D01*
X87781Y-126532D01*
X87629Y-126538D01*
X87477Y-126540D01*
X81553Y-126540D01*
X45600Y-137171D01*
X-43677Y-137554D01*
X37555Y-24674D02*
X34626Y-15036D01*
X40443Y-29949D02*
X41953Y-34597D01*
X42717Y-39423D01*
X40443Y-27562D02*
X37555Y-24674D01*
X40443Y-27562D02*
X40443Y-29949D01*
X57809Y-44951D02*
X59521Y-43240D01*
X68920Y-43240D01*
X84148Y-58468D01*
X50810Y-44951D02*
X49567Y-43708D01*
X50810Y-44951D02*
X57809Y-44951D01*
X49567Y-43708D02*
X46346Y-43708D01*
X42717Y-40079D02*
X42717Y-39423D01*
X42717Y-40079D02*
X46346Y-43708D01*
X20586Y-20299D02*
X17831Y-17544D01*
X17831Y-11198D01*
X17762Y-11128D01*
X20399Y-1271D02*
X25943Y-1271D01*
X20399Y-1271D02*
X16973Y-4697D01*
X16973Y-10339D02*
X16975Y-10393D01*
X16980Y-10446D01*
X16990Y-10500D01*
X17002Y-10552D01*
X17019Y-10603D01*
X17038Y-10653D01*
X17061Y-10702D01*
X17088Y-10749D01*
X17117Y-10794D01*
X17150Y-10837D01*
X17185Y-10878D01*
X17223Y-10916D01*
X17264Y-10951D01*
X17307Y-10984D01*
X17352Y-11013D01*
X17399Y-11040D01*
X17448Y-11063D01*
X17498Y-11082D01*
X17549Y-11099D01*
X17601Y-11111D01*
X17655Y-11121D01*
X17708Y-11126D01*
X17762Y-11128D01*
X16973Y-10339D02*
X16973Y-4697D01*
D15*
X21754Y-21363D03*
D16*
X-47631Y-133467D03*
D14*
X-43677Y-137554D01*
X21754Y-21363D02*
X20586Y-20299D01*
D13*
X13415Y1394D03*
X-95977Y373D03*
D14*
X13415Y1394D02*
X13423Y1319D01*
X-89708Y6642D02*
X-95977Y373D01*
X-89708Y6642D02*
X-89623Y6723D01*
X-89536Y6802D01*
X-89446Y6878D01*
X-89354Y6952D01*
X-89260Y7022D01*
X-89163Y7088D01*
X-89064Y7152D01*
X-88964Y7213D01*
X-88861Y7270D01*
X-88756Y7323D01*
X-88650Y7374D01*
X-88542Y7420D01*
X-88433Y7464D01*
X-88322Y7503D01*
X-88210Y7539D01*
X-88097Y7572D01*
X-87983Y7600D01*
X-87868Y7625D01*
X-87752Y7646D01*
X-87636Y7663D01*
X-87519Y7677D01*
X-87402Y7686D01*
X-87285Y7692D01*
X-87167Y7694D01*
X-65480Y7694D01*
X-65044Y7258D01*
X-60648Y7258D01*
X-54191Y8618D01*
X-44340Y12347D01*
X-11561Y12347D01*
X-2705Y3491D01*
X11251Y3491D01*
X13423Y1319D01*
X-101565Y-5159D02*
X-101658Y-5157D01*
X-101750Y-5151D01*
X-101842Y-5141D01*
X-101934Y-5128D01*
X-102025Y-5110D01*
X-102115Y-5089D01*
X-102205Y-5063D01*
X-102293Y-5034D01*
X-102379Y-5002D01*
X-102465Y-4965D01*
X-102548Y-4925D01*
X-102630Y-4882D01*
X-102710Y-4835D01*
X-102788Y-4784D01*
X-102864Y-4731D01*
X-102937Y-4674D01*
X-103008Y-4614D01*
X-103076Y-4552D01*
X-103142Y-4486D01*
X-103204Y-4418D01*
X-103264Y-4347D01*
X-103321Y-4274D01*
X-103374Y-4198D01*
X-103425Y-4120D01*
X-103472Y-4040D01*
X-103515Y-3958D01*
X-103555Y-3875D01*
X-103592Y-3789D01*
X-103624Y-3703D01*
X-103653Y-3615D01*
X-103679Y-3525D01*
X-103700Y-3435D01*
X-103718Y-3344D01*
X-103731Y-3252D01*
X-103741Y-3160D01*
X-103747Y-3068D01*
X-103749Y-2975D01*
X-101565Y-5159D02*
X-88137Y-5159D01*
X-79719Y-1967D01*
D13*
X-102534Y7156D03*
D14*
X-103749Y5941D02*
X-103749Y-2975D01*
X-103749Y5941D02*
X-102534Y7156D01*
X-79719Y-1967D02*
X-67202Y3226D01*
X14327Y-13198D02*
X14327Y-18781D01*
X14327Y-13198D02*
X13949Y-12820D01*
X5168Y-1738D02*
X5061Y-1738D01*
X-58151Y4350D02*
X-67202Y3226D01*
X-58151Y4350D02*
X-44195Y8276D01*
X-23405Y8276D01*
X-13083Y2460D01*
X-13084Y2460D02*
X-13082Y2374D01*
X-13076Y2288D01*
X-13067Y2203D01*
X-13054Y2118D01*
X-13037Y2033D01*
X-13017Y1950D01*
X-12993Y1867D01*
X-12965Y1786D01*
X-12934Y1706D01*
X-12899Y1627D01*
X-12861Y1550D01*
X-12820Y1475D01*
X-12775Y1401D01*
X-12728Y1329D01*
X-12677Y1260D01*
X-12623Y1193D01*
X-12566Y1128D01*
X-12507Y1066D01*
X-12445Y1007D01*
X-12380Y950D01*
X-12313Y896D01*
X-12244Y845D01*
X-12172Y798D01*
X-12099Y753D01*
X-12023Y712D01*
X-11946Y674D01*
X-11867Y639D01*
X-11787Y608D01*
X-11706Y580D01*
X-11623Y556D01*
X-11540Y536D01*
X-11455Y519D01*
X-11370Y506D01*
X-11285Y497D01*
X-11199Y491D01*
X-11113Y489D01*
X-11113Y490D02*
X-3981Y490D01*
X-3860Y369D01*
X2954Y369D01*
X5061Y-1738D01*
X5168Y-1738D02*
X5245Y-1661D01*
X5168Y-1738D02*
X10055Y-1738D01*
D15*
X11473Y-21397D03*
D13*
X5245Y-1110D03*
D14*
X5245Y-1661D01*
X13949Y-5632D02*
X13949Y-12820D01*
X13949Y-5632D02*
X10055Y-1738D01*
X14327Y-18781D02*
X11879Y-21229D01*
X11846Y-21259D01*
X11810Y-21287D01*
X11773Y-21312D01*
X11734Y-21334D01*
X11693Y-21353D01*
X11650Y-21369D01*
X11607Y-21381D01*
X11563Y-21390D01*
X11518Y-21395D01*
X11473Y-21397D01*
D13*
X-111745Y14555D03*
D14*
X-107996Y10807D01*
X-4600Y-6286D02*
X-4381Y-6499D01*
X-4157Y-6708D01*
X-3928Y-6911D01*
X-3694Y-7109D01*
X-3456Y-7300D01*
X-3213Y-7487D01*
X-2966Y-7667D01*
X-2715Y-7842D01*
X-2459Y-8010D01*
X-2200Y-8172D01*
X-1937Y-8329D01*
X-1670Y-8478D01*
X-1400Y-8622D01*
X-1126Y-8759D01*
X-850Y-8889D01*
X-570Y-9013D01*
X-287Y-9130D01*
X-2Y-9240D01*
X286Y-9344D01*
X577Y-9441D01*
X869Y-9530D01*
X1164Y-9613D01*
X1460Y-9689D01*
X1758Y-9757D01*
X2058Y-9819D01*
X2359Y-9873D01*
X2661Y-9920D01*
X2965Y-9960D01*
X3269Y-9993D01*
X3574Y-10018D01*
X3879Y-10036D01*
X4185Y-10047D01*
X4491Y-10051D01*
X-81800Y-8325D02*
X-105605Y-8325D01*
X-107996Y-5933D02*
X-107996Y10807D01*
X-107997Y-5933D02*
X-107995Y-6029D01*
X-107989Y-6125D01*
X-107980Y-6221D01*
X-107966Y-6317D01*
X-107949Y-6411D01*
X-107927Y-6505D01*
X-107903Y-6598D01*
X-107874Y-6690D01*
X-107842Y-6781D01*
X-107806Y-6871D01*
X-107766Y-6958D01*
X-107723Y-7045D01*
X-107677Y-7129D01*
X-107627Y-7211D01*
X-107574Y-7292D01*
X-107517Y-7370D01*
X-107458Y-7446D01*
X-107395Y-7519D01*
X-107330Y-7590D01*
X-107262Y-7658D01*
X-107191Y-7723D01*
X-107118Y-7786D01*
X-107042Y-7845D01*
X-106964Y-7902D01*
X-106883Y-7955D01*
X-106801Y-8005D01*
X-106717Y-8051D01*
X-106630Y-8094D01*
X-106543Y-8134D01*
X-106453Y-8170D01*
X-106362Y-8202D01*
X-106270Y-8231D01*
X-106177Y-8255D01*
X-106083Y-8277D01*
X-105989Y-8294D01*
X-105893Y-8308D01*
X-105797Y-8317D01*
X-105701Y-8323D01*
X-105605Y-8325D01*
X-81800Y-8325D02*
X-71124Y-2367D01*
X-65722Y-142D01*
X-53000Y1446D01*
X-44800Y4935D01*
X-24563Y4935D01*
X-16107Y183D01*
X-16107Y-1202D01*
X-14775Y-2535D01*
X-8350Y-2535D01*
X-4599Y-6285D01*
X4491Y-10051D02*
X7027Y-10051D01*
X9675Y-7403D01*
D13*
X9675Y-7403D03*
X-1217Y27173D03*
D14*
X-1217Y9507D01*
D13*
X-890Y9179D03*
D14*
X-1217Y9507D01*
X-25280Y-50344D02*
X-35113Y-50344D01*
X-25280Y-50344D02*
X-21267Y-54357D01*
D16*
X-36613Y-49053D03*
D15*
X-21216Y-54481D03*
D14*
X-35113Y-50344D02*
X-36613Y-49053D01*
X-21267Y-54357D02*
X-21252Y-54374D01*
X-21239Y-54394D01*
X-21229Y-54414D01*
X-21222Y-54436D01*
X-21217Y-54458D01*
X-21216Y-54481D01*
D12*
X-70034Y-28429D03*
D14*
X-87114Y-11349D01*
X-109688Y-11349D01*
X-111020Y-10017D01*
X-116019Y12785D02*
X-116019Y16326D01*
X-113709Y18635D01*
X-113709Y23365D01*
X-111020Y7787D02*
X-111020Y-10017D01*
X-111020Y7787D02*
X-116019Y12785D01*
X-113709Y23365D02*
X-95925Y41149D01*
X-95473Y41149D01*
X-95367Y41258D01*
X-95263Y41370D01*
X-95162Y41484D01*
X-95064Y41600D01*
X-94969Y41719D01*
X-94877Y41840D01*
X-94788Y41964D01*
X-94702Y42089D01*
X-94619Y42217D01*
X-94539Y42347D01*
X-94462Y42478D01*
X-94389Y42611D01*
X-94318Y42747D01*
X-94252Y42883D01*
X-94188Y43022D01*
X-94128Y43162D01*
X-94072Y43303D01*
X-94019Y43446D01*
X-93969Y43590D01*
X-93923Y43735D01*
X-93881Y43881D01*
X-93842Y44029D01*
X-93807Y44177D01*
X-93775Y44326D01*
X-93747Y44475D01*
X-93723Y44626D01*
X-93703Y44777D01*
X-93686Y44928D01*
X-93673Y45080D01*
X-93663Y45232D01*
X-93658Y45384D01*
X-93656Y45536D01*
X-93656Y46017D01*
X-93657Y46017D02*
X-93659Y46123D01*
X-93665Y46229D01*
X-93674Y46335D01*
X-93687Y46441D01*
X-93704Y46546D01*
X-93725Y46650D01*
X-93750Y46753D01*
X-93778Y46856D01*
X-93809Y46957D01*
X-93845Y47058D01*
X-93884Y47157D01*
X-93926Y47254D01*
X-93972Y47350D01*
X-94021Y47444D01*
X-94074Y47537D01*
X-94130Y47627D01*
X-94189Y47715D01*
X-94251Y47802D01*
X-94316Y47886D01*
X-94384Y47967D01*
X-94455Y48046D01*
X-94529Y48123D01*
X-99291Y52885D01*
X-99292Y52885D02*
X-99600Y53186D01*
X-99916Y53479D01*
X-100238Y53764D01*
X-100568Y54041D01*
X-100904Y54311D01*
X-101246Y54571D01*
X-101595Y54824D01*
X-101951Y55067D01*
X-102311Y55302D01*
X-102678Y55528D01*
X-103050Y55745D01*
X-103427Y55952D01*
X-103810Y56151D01*
X-104197Y56339D01*
X-104588Y56519D01*
X-104984Y56688D01*
X-105384Y56848D01*
X-105787Y56998D01*
X-106194Y57138D01*
X-106605Y57269D01*
X-107019Y57388D01*
X-107435Y57498D01*
X-107854Y57598D01*
X-108275Y57687D01*
X-108698Y57766D01*
X-109124Y57834D01*
X-109550Y57892D01*
X-109978Y57940D01*
X-110407Y57976D01*
X-110837Y58003D01*
X-111267Y58019D01*
X-111698Y58024D01*
X-130700Y58024D01*
X-131385Y58032D01*
X-132069Y58057D01*
X-132752Y58097D01*
X-133434Y58154D01*
X-134115Y58227D01*
X-134794Y58317D01*
X-135470Y58422D01*
X-136144Y58544D01*
X-136815Y58681D01*
X-137482Y58835D01*
X-138145Y59004D01*
X-138804Y59189D01*
X-139459Y59390D01*
X-140108Y59606D01*
X-140753Y59838D01*
X-141391Y60085D01*
X-142024Y60347D01*
X-142650Y60624D01*
X-143269Y60915D01*
X-143881Y61222D01*
X-144486Y61543D01*
X-145083Y61878D01*
X-145672Y62227D01*
X-146252Y62591D01*
X-146824Y62967D01*
X-147386Y63358D01*
X-147939Y63762D01*
X-148482Y64178D01*
X-149015Y64608D01*
X-149538Y65050D01*
X-150050Y65505D01*
X-150551Y65971D01*
X-151041Y66449D01*
D12*
X-179010Y95085D03*
D14*
X-179010Y94419D02*
X-151041Y66450D01*
X-179010Y94419D02*
X-179010Y95085D01*
D13*
X-110261Y63814D03*
D14*
X-110260Y63813D02*
X-109964Y63809D01*
X-109669Y63799D01*
X-109373Y63781D01*
X-109079Y63757D01*
X-108785Y63725D01*
X-108491Y63687D01*
X-108199Y63641D01*
X-107908Y63588D01*
X-107618Y63529D01*
X-107330Y63463D01*
X-107044Y63390D01*
X-106759Y63310D01*
X-106476Y63223D01*
X-106196Y63130D01*
X-105917Y63029D01*
X-105641Y62923D01*
X-105368Y62810D01*
X-105098Y62690D01*
X-104830Y62564D01*
X-104566Y62432D01*
X-104304Y62293D01*
X-104047Y62148D01*
X-103792Y61997D01*
X-103541Y61840D01*
X-103295Y61677D01*
X-103052Y61509D01*
X-102813Y61334D01*
X-102578Y61154D01*
X-102348Y60969D01*
X-102122Y60778D01*
X-101901Y60581D01*
X-101684Y60380D01*
X-101473Y60173D01*
X-81398Y40099D02*
X-81256Y39954D01*
X-81118Y39805D01*
X-80983Y39653D01*
X-80851Y39498D01*
X-80724Y39339D01*
X-80600Y39178D01*
X-80480Y39014D01*
X-80364Y38847D01*
X-80253Y38677D01*
X-80145Y38505D01*
X-80041Y38330D01*
X-79941Y38153D01*
X-79846Y37974D01*
X-79755Y37792D01*
X-79669Y37608D01*
X-79586Y37422D01*
X-79509Y37235D01*
X-79435Y37045D01*
X-79367Y36854D01*
X-79302Y36661D01*
X-79243Y36467D01*
X-79188Y36271D01*
X-79138Y36074D01*
X-79092Y35876D01*
X-79051Y35677D01*
X-79015Y35477D01*
X-78984Y35276D01*
X-78957Y35075D01*
X-78936Y34873D01*
X-78919Y34670D01*
X-78907Y34467D01*
X-78899Y34264D01*
X-78897Y34061D01*
D13*
X-52510Y-4122D03*
D14*
X-86632Y43946D02*
X-89740Y47054D01*
X-86632Y43946D02*
X-85246Y43946D01*
X-81398Y40099D01*
X-49324Y-8722D02*
X-49324Y-44854D01*
X-49324Y-8722D02*
X-52510Y-5535D01*
X-52510Y-4122D01*
X-49324Y-44854D02*
X-44678Y-49499D01*
D13*
X-44678Y-49871D03*
D14*
X-44678Y-49499D01*
D13*
X-60921Y12578D03*
D14*
X-78897Y34061D01*
X-92446Y51147D02*
X-101473Y60174D01*
X-92446Y51147D02*
X-91964Y51147D01*
X-89740Y48923D01*
X-89740Y47054D01*
D12*
X-132415Y-79503D03*
D15*
X-21174Y-24140D03*
D14*
X-110797Y-106984D02*
X-110791Y-107446D01*
X-110775Y-107907D01*
X-110747Y-108369D01*
X-110708Y-108829D01*
X-110658Y-109288D01*
X-110596Y-109746D01*
X-110524Y-110202D01*
X-110441Y-110656D01*
X-110347Y-111108D01*
X-110242Y-111558D01*
X-110126Y-112005D01*
X-109999Y-112450D01*
X-109861Y-112891D01*
X-109713Y-113328D01*
X-109555Y-113762D01*
X-109386Y-114192D01*
X-109207Y-114617D01*
X-109017Y-115039D01*
X-108817Y-115455D01*
X-108608Y-115867D01*
X-108388Y-116273D01*
X-108159Y-116674D01*
X-107920Y-117069D01*
X-107671Y-117459D01*
X-107414Y-117842D01*
X-107147Y-118219D01*
X-106871Y-118589D01*
X-106586Y-118953D01*
X-106292Y-119310D01*
X-105990Y-119659D01*
X-105680Y-120001D01*
X-105361Y-120335D01*
X-105034Y-120662D01*
X-104700Y-120981D01*
X-104358Y-121291D01*
X-104009Y-121593D01*
X-103652Y-121887D01*
X-103288Y-122172D01*
X-102918Y-122448D01*
X-102541Y-122715D01*
X-102158Y-122972D01*
X-101768Y-123221D01*
X-101373Y-123460D01*
X-100972Y-123689D01*
X-100566Y-123909D01*
X-100154Y-124118D01*
X-99738Y-124318D01*
X-99316Y-124508D01*
X-98891Y-124687D01*
X-98461Y-124856D01*
X-98027Y-125014D01*
X-97590Y-125162D01*
X-97149Y-125300D01*
X-96704Y-125427D01*
X-96257Y-125543D01*
X-95807Y-125648D01*
X-95355Y-125742D01*
X-94901Y-125825D01*
X-94445Y-125897D01*
X-93987Y-125959D01*
X-93528Y-126009D01*
X-93068Y-126048D01*
X-92606Y-126076D01*
X-92145Y-126092D01*
X-91683Y-126098D01*
D13*
X-91683Y-126099D03*
X-102391Y-98578D03*
D14*
X-110797Y-106984D01*
D13*
X-114265Y-80226D03*
X-218547Y-130951D03*
D14*
X-173155Y-85559D01*
X-134923Y-73447D02*
X-129906Y-73447D01*
X-147035Y-85559D02*
X-173155Y-85559D01*
X-147035Y-85559D02*
X-134923Y-73447D01*
X-129906Y-73447D02*
X-123127Y-80226D01*
X-114265Y-80226D01*
X-121669Y36320D02*
X-121667Y36502D01*
X-121660Y36683D01*
X-121649Y36864D01*
X-121634Y37045D01*
X-121614Y37225D01*
X-121590Y37405D01*
X-121562Y37585D01*
X-121529Y37763D01*
X-121492Y37941D01*
X-121451Y38118D01*
X-121405Y38293D01*
X-121355Y38468D01*
X-121301Y38641D01*
X-121243Y38813D01*
X-121181Y38984D01*
X-121114Y39153D01*
X-121044Y39320D01*
X-120969Y39486D01*
X-120891Y39649D01*
X-120809Y39811D01*
X-120722Y39971D01*
X-120632Y40128D01*
X-120538Y40284D01*
X-120441Y40437D01*
X-120339Y40587D01*
X-120234Y40735D01*
X-120126Y40881D01*
X-120014Y41024D01*
X-119899Y41164D01*
X-119780Y41301D01*
X-119658Y41436D01*
X-119533Y41567D01*
X-119404Y41696D01*
X-119273Y41821D01*
X-119138Y41943D01*
X-119001Y42062D01*
X-118861Y42177D01*
X-118718Y42289D01*
X-118572Y42397D01*
X-118424Y42502D01*
X-118274Y42604D01*
X-118121Y42701D01*
X-117965Y42795D01*
X-117808Y42885D01*
X-117648Y42972D01*
X-117486Y43054D01*
X-117323Y43132D01*
X-117157Y43207D01*
X-116990Y43277D01*
X-116821Y43344D01*
X-116650Y43406D01*
X-116478Y43464D01*
X-116305Y43518D01*
X-116130Y43568D01*
X-115955Y43614D01*
X-115778Y43655D01*
X-115600Y43692D01*
X-115422Y43725D01*
X-115242Y43753D01*
X-115062Y43777D01*
X-114882Y43797D01*
X-114701Y43812D01*
X-114520Y43823D01*
X-114339Y43830D01*
X-114157Y43832D01*
X-108832Y-32701D02*
X-108832Y-79872D01*
X-108832Y-32701D02*
X-108834Y-32578D01*
X-108840Y-32454D01*
X-108849Y-32331D01*
X-108863Y-32208D01*
X-108880Y-32086D01*
X-108902Y-31964D01*
X-108927Y-31843D01*
X-108955Y-31723D01*
X-108988Y-31604D01*
X-109024Y-31486D01*
X-109064Y-31369D01*
X-109108Y-31254D01*
X-109155Y-31140D01*
X-109206Y-31027D01*
X-109260Y-30916D01*
X-109318Y-30807D01*
X-109379Y-30700D01*
X-109444Y-30595D01*
X-109512Y-30491D01*
X-109583Y-30390D01*
X-109657Y-30292D01*
X-109734Y-30195D01*
X-109814Y-30101D01*
X-109897Y-30010D01*
X-109983Y-29921D01*
X-110072Y-29835D01*
X-110163Y-29752D01*
X-110257Y-29672D01*
X-110354Y-29595D01*
X-110452Y-29521D01*
X-110553Y-29450D01*
X-110657Y-29382D01*
X-110762Y-29317D01*
X-110869Y-29256D01*
X-110978Y-29198D01*
X-111089Y-29144D01*
X-111202Y-29093D01*
X-111316Y-29046D01*
X-111431Y-29002D01*
X-111548Y-28962D01*
X-111666Y-28926D01*
X-111785Y-28893D01*
X-111905Y-28865D01*
X-112026Y-28840D01*
X-112148Y-28818D01*
X-112270Y-28801D01*
X-112393Y-28787D01*
X-112516Y-28778D01*
X-112640Y-28772D01*
X-112763Y-28770D01*
X-117895Y-28770D01*
X-118016Y-28768D01*
X-118137Y-28762D01*
X-118257Y-28753D01*
X-118378Y-28739D01*
X-118497Y-28722D01*
X-118616Y-28700D01*
X-118735Y-28675D01*
X-118852Y-28647D01*
X-118969Y-28614D01*
X-119084Y-28578D01*
X-119198Y-28538D01*
X-119311Y-28494D01*
X-119423Y-28447D01*
X-119532Y-28396D01*
X-119641Y-28342D01*
X-119747Y-28284D01*
X-119851Y-28223D01*
X-119954Y-28159D01*
X-120054Y-28091D01*
X-120152Y-28021D01*
X-120248Y-27947D01*
X-120341Y-27870D01*
X-120432Y-27790D01*
X-120521Y-27707D01*
X-120606Y-27622D01*
X-120689Y-27533D01*
X-120769Y-27442D01*
X-120846Y-27349D01*
X-120920Y-27253D01*
X-120990Y-27155D01*
X-121058Y-27055D01*
X-121122Y-26952D01*
X-121183Y-26848D01*
X-121241Y-26742D01*
X-121295Y-26633D01*
X-121346Y-26524D01*
X-121393Y-26412D01*
X-121437Y-26299D01*
X-121477Y-26185D01*
X-121513Y-26070D01*
X-121546Y-25953D01*
X-121574Y-25836D01*
X-121599Y-25717D01*
X-121621Y-25598D01*
X-121638Y-25479D01*
X-121652Y-25358D01*
X-121661Y-25238D01*
X-121667Y-25117D01*
X-121669Y-24996D01*
X-108833Y-79872D02*
X-108842Y-80634D01*
X-108869Y-81395D01*
X-108915Y-82156D01*
X-108978Y-82915D01*
X-109059Y-83673D01*
X-109159Y-84428D01*
X-109276Y-85181D01*
X-109412Y-85931D01*
X-109565Y-86678D01*
X-109736Y-87420D01*
X-109924Y-88159D01*
X-110130Y-88892D01*
X-110353Y-89621D01*
X-110594Y-90344D01*
X-110852Y-91061D01*
X-111126Y-91772D01*
X-111418Y-92475D01*
X-111726Y-93172D01*
X-112051Y-93862D01*
X-112392Y-94543D01*
X-112749Y-95216D01*
X-113122Y-95880D01*
X-113511Y-96536D01*
X-113916Y-97182D01*
X-114335Y-97818D01*
X-114770Y-98444D01*
X-115219Y-99059D01*
X-115683Y-99664D01*
X-116161Y-100257D01*
X-116653Y-100839D01*
X-117159Y-101409D01*
X-117678Y-101966D01*
X-118211Y-102511D01*
X-154052Y-132319D02*
X-155047Y-133689D01*
X-139741Y-114036D02*
X-138488Y-114036D01*
X-135155Y-113773D01*
X-154052Y-128347D02*
X-154052Y-132319D01*
X-154052Y-128347D02*
X-139741Y-114036D01*
X-135155Y-113773D02*
X-131904Y-112993D01*
X-128814Y-111713D01*
X-125963Y-109966D01*
X-123914Y-108215D01*
X-118210Y-102512D01*
D13*
X-176463Y-161750D03*
D14*
X-176463Y-155105D02*
X-163913Y-142554D01*
X-176463Y-155105D02*
X-176463Y-161750D01*
X-163913Y-142554D02*
X-155047Y-133689D01*
X-121669Y-24996D02*
X-121669Y9882D01*
X-122067Y10280D01*
X-122067Y18831D01*
X-121669Y19229D01*
X-121669Y36320D01*
D13*
X-99043Y44076D03*
D14*
X-99287Y43832D02*
X-114157Y43832D01*
X-99287Y43832D02*
X-99043Y44076D01*
X-151076Y-133612D02*
X-151276Y-133818D01*
X-151471Y-134028D01*
X-151661Y-134242D01*
X-151845Y-134462D01*
X-152024Y-134685D01*
X-152198Y-134913D01*
X-152366Y-135146D01*
X-152528Y-135382D01*
X-152684Y-135622D01*
X-152835Y-135866D01*
X-152979Y-136114D01*
X-153117Y-136365D01*
X-153249Y-136619D01*
X-153375Y-136877D01*
X-153494Y-137138D01*
X-153607Y-137401D01*
X-153713Y-137667D01*
X-153813Y-137936D01*
X-153907Y-138207D01*
X-153993Y-138480D01*
X-154073Y-138755D01*
X-154146Y-139032D01*
X-154212Y-139311D01*
X-154272Y-139592D01*
X-154324Y-139874D01*
X-154370Y-140156D01*
X-154408Y-140440D01*
X-154440Y-140725D01*
X-154464Y-141011D01*
X-154482Y-141297D01*
X-154492Y-141583D01*
X-154496Y-141870D01*
X-117907Y24554D02*
X-104823Y37637D01*
X-117907Y-18123D02*
X-117905Y-18300D01*
X-117898Y-18478D01*
X-117888Y-18655D01*
X-117873Y-18832D01*
X-117853Y-19008D01*
X-117830Y-19184D01*
X-117802Y-19360D01*
X-117770Y-19534D01*
X-117734Y-19708D01*
X-117694Y-19881D01*
X-117649Y-20053D01*
X-117600Y-20223D01*
X-117548Y-20393D01*
X-117491Y-20561D01*
X-117430Y-20728D01*
X-117365Y-20893D01*
X-117296Y-21056D01*
X-117223Y-21218D01*
X-117146Y-21378D01*
X-117066Y-21536D01*
X-116981Y-21693D01*
X-116893Y-21847D01*
X-116801Y-21999D01*
X-116706Y-22148D01*
X-116607Y-22295D01*
X-116504Y-22440D01*
X-116398Y-22583D01*
X-116289Y-22722D01*
X-116176Y-22859D01*
X-116060Y-22994D01*
X-115941Y-23125D01*
X-115818Y-23254D01*
X-115693Y-23379D01*
X-115564Y-23502D01*
X-115433Y-23621D01*
X-115298Y-23737D01*
X-115161Y-23850D01*
X-115022Y-23959D01*
X-114879Y-24065D01*
X-114734Y-24168D01*
X-114587Y-24267D01*
X-114438Y-24362D01*
X-114286Y-24454D01*
X-114132Y-24542D01*
X-113975Y-24627D01*
X-113817Y-24707D01*
X-113657Y-24784D01*
X-113495Y-24857D01*
X-113332Y-24926D01*
X-113167Y-24991D01*
X-113000Y-25052D01*
X-112832Y-25109D01*
X-112662Y-25161D01*
X-112492Y-25210D01*
X-112320Y-25255D01*
X-112147Y-25295D01*
X-111973Y-25331D01*
X-111799Y-25363D01*
X-111623Y-25391D01*
X-111447Y-25414D01*
X-111271Y-25434D01*
X-111094Y-25449D01*
X-110917Y-25459D01*
X-110739Y-25466D01*
X-110562Y-25468D01*
X-110407Y-25470D01*
X-110251Y-25476D01*
X-110096Y-25486D01*
X-109942Y-25499D01*
X-109787Y-25517D01*
X-109633Y-25539D01*
X-109480Y-25564D01*
X-109328Y-25594D01*
X-109176Y-25627D01*
X-109025Y-25664D01*
X-108875Y-25705D01*
X-108726Y-25749D01*
X-108579Y-25798D01*
X-108432Y-25850D01*
X-108287Y-25905D01*
X-108144Y-25965D01*
X-108002Y-26028D01*
X-107862Y-26095D01*
X-107723Y-26165D01*
X-107586Y-26239D01*
X-107451Y-26316D01*
X-107318Y-26396D01*
X-107188Y-26480D01*
X-107059Y-26567D01*
X-106933Y-26657D01*
X-106809Y-26751D01*
X-106687Y-26848D01*
X-106568Y-26947D01*
X-106451Y-27050D01*
X-106337Y-27156D01*
X-106226Y-27264D01*
X-106118Y-27375D01*
X-106012Y-27489D01*
X-105909Y-27606D01*
X-105810Y-27725D01*
X-105713Y-27847D01*
X-105619Y-27971D01*
X-105529Y-28097D01*
X-105442Y-28226D01*
X-105358Y-28356D01*
X-105278Y-28489D01*
X-105201Y-28624D01*
X-105127Y-28761D01*
X-105057Y-28900D01*
X-104990Y-29040D01*
X-104927Y-29182D01*
X-104867Y-29325D01*
X-104812Y-29470D01*
X-104760Y-29617D01*
X-104711Y-29764D01*
X-104667Y-29913D01*
X-104626Y-30063D01*
X-104589Y-30214D01*
X-104556Y-30366D01*
X-104526Y-30518D01*
X-104501Y-30671D01*
X-104479Y-30825D01*
X-104461Y-30980D01*
X-104448Y-31134D01*
X-104438Y-31289D01*
X-104432Y-31445D01*
X-104430Y-31600D01*
X-104430Y-82559D01*
X-104437Y-83163D01*
X-104459Y-83768D01*
X-104495Y-84371D01*
X-104545Y-84973D01*
X-104610Y-85574D01*
X-104689Y-86174D01*
X-104782Y-86771D01*
X-104889Y-87366D01*
X-105010Y-87958D01*
X-105146Y-88547D01*
X-105295Y-89133D01*
X-105459Y-89715D01*
X-105636Y-90293D01*
X-105827Y-90867D01*
X-106031Y-91435D01*
X-106249Y-91999D01*
X-106481Y-92558D01*
X-106725Y-93111D01*
X-106983Y-93657D01*
X-107254Y-94198D01*
X-107537Y-94732D01*
X-107833Y-95259D01*
X-108141Y-95779D01*
X-108462Y-96291D01*
X-108795Y-96796D01*
X-109140Y-97292D01*
X-109496Y-97781D01*
X-109864Y-98260D01*
X-110244Y-98731D01*
X-110634Y-99192D01*
X-111035Y-99645D01*
X-111447Y-100087D01*
X-111869Y-100520D01*
X-111870Y-100520D02*
X-121282Y-109933D01*
X-121696Y-110338D01*
X-122120Y-110732D01*
X-122553Y-111117D01*
X-122995Y-111491D01*
X-123446Y-111854D01*
X-123906Y-112207D01*
X-124373Y-112548D01*
X-124849Y-112878D01*
X-125333Y-113197D01*
X-125823Y-113504D01*
X-126322Y-113800D01*
X-126826Y-114084D01*
X-127338Y-114355D01*
X-127856Y-114614D01*
X-128380Y-114861D01*
X-128909Y-115095D01*
X-129444Y-115317D01*
X-129984Y-115526D01*
X-130529Y-115722D01*
X-131079Y-115905D01*
X-131633Y-116074D01*
X-132190Y-116231D01*
X-132751Y-116374D01*
X-133316Y-116504D01*
X-133883Y-116620D01*
X-134453Y-116723D01*
X-135025Y-116812D01*
X-135599Y-116888D01*
X-136175Y-116950D01*
X-136752Y-116998D01*
X-137330Y-117032D01*
X-137909Y-117053D01*
X-138488Y-117060D01*
X-148272Y-126843D01*
X-148272Y-126844D02*
X-148432Y-127007D01*
X-148587Y-127173D01*
X-148738Y-127344D01*
X-148885Y-127518D01*
X-149028Y-127695D01*
X-149167Y-127876D01*
X-149301Y-128060D01*
X-149431Y-128247D01*
X-149556Y-128437D01*
X-149677Y-128630D01*
X-149794Y-128826D01*
X-149905Y-129025D01*
X-150012Y-129226D01*
X-150114Y-129430D01*
X-150211Y-129636D01*
X-150303Y-129844D01*
X-150390Y-130054D01*
X-150472Y-130267D01*
X-150550Y-130481D01*
X-150621Y-130697D01*
X-150688Y-130915D01*
X-150750Y-131135D01*
X-150806Y-131355D01*
X-150857Y-131577D01*
X-150903Y-131800D01*
X-150943Y-132025D01*
X-150979Y-132250D01*
X-151008Y-132476D01*
X-151033Y-132702D01*
X-151052Y-132929D01*
X-151065Y-133157D01*
X-151073Y-133384D01*
X-151076Y-133612D01*
X-117907Y18714D02*
X-117907Y24554D01*
X-117907Y18714D02*
X-119043Y17578D01*
X-119043Y11532D01*
X-117907Y10396D01*
X-117907Y-18123D01*
D13*
X-105152Y37966D03*
D14*
X-104823Y37637D02*
X-104823Y37637D01*
X-105152Y37966D01*
D13*
X-153458Y-149378D03*
D14*
X-154496Y-148339D01*
X-154496Y-141870D01*
D12*
X-49485Y72616D03*
X-75183Y155520D03*
X48396Y-9533D03*
X37385Y50939D03*
D17*
X48396Y-8821D02*
X48396Y-9533D01*
X41226Y47097D02*
X37385Y50939D01*
X41226Y-1651D02*
X48396Y-8821D01*
X41226Y-1651D02*
X41226Y47097D01*
D15*
X34118Y-49440D03*
D12*
X-33288Y45031D03*
D14*
X-87756Y117677D02*
X-103835Y117677D01*
D13*
X-74770Y73473D03*
D14*
X-87756Y117677D02*
X-87654Y117679D01*
X-87553Y117685D01*
X-87452Y117694D01*
X-87351Y117708D01*
X-87251Y117725D01*
X-87152Y117747D01*
X-87054Y117772D01*
X-86956Y117800D01*
X-86860Y117833D01*
X-86765Y117869D01*
X-86672Y117909D01*
X-86580Y117952D01*
X-86490Y117999D01*
X-86402Y118049D01*
X-86316Y118103D01*
X-86231Y118159D01*
X-86150Y118219D01*
X-86070Y118283D01*
X-85993Y118349D01*
X-85918Y118418D01*
X-85847Y118489D01*
X-85778Y118564D01*
X-85712Y118641D01*
X-85648Y118721D01*
X-85588Y118802D01*
X-85532Y118887D01*
X-85478Y118973D01*
X-85428Y119061D01*
X-85381Y119151D01*
X-85338Y119243D01*
X-85298Y119336D01*
X-85262Y119431D01*
X-85229Y119527D01*
X-85201Y119625D01*
X-85176Y119723D01*
X-85154Y119822D01*
X-85137Y119922D01*
X-85123Y120023D01*
X-85114Y120124D01*
X-85108Y120225D01*
X-85106Y120327D01*
D13*
X-128468Y135638D03*
D14*
X-120819Y134660D02*
X-103835Y117677D01*
X-120819Y134660D02*
X-120821Y134721D01*
X-120827Y134782D01*
X-120836Y134843D01*
X-120850Y134903D01*
X-120867Y134962D01*
X-120888Y135020D01*
X-120912Y135076D01*
X-120940Y135131D01*
X-120971Y135184D01*
X-121006Y135234D01*
X-121043Y135283D01*
X-121084Y135329D01*
X-121127Y135372D01*
X-121173Y135413D01*
X-121222Y135450D01*
X-121272Y135485D01*
X-121325Y135516D01*
X-121380Y135544D01*
X-121436Y135568D01*
X-121494Y135589D01*
X-121553Y135606D01*
X-121613Y135620D01*
X-121674Y135629D01*
X-121735Y135635D01*
X-121796Y135637D01*
X-121796Y135638D02*
X-128468Y135638D01*
D18*
X-75057Y49336D02*
X-75057Y38409D01*
X-66709Y30060D01*
X-55832Y30060D01*
D13*
X-77068Y49319D03*
D18*
X-77051Y49336D02*
X-75057Y49336D01*
X-77051Y49336D02*
X-77068Y49319D01*
D13*
X45396Y-57726D03*
D14*
X-52361Y77640D02*
X-74770Y73473D01*
X-52361Y77639D02*
X-52263Y77641D01*
X-52165Y77647D01*
X-52068Y77657D01*
X-51971Y77670D01*
X-51875Y77688D01*
X-51779Y77710D01*
X-51685Y77735D01*
X-51591Y77764D01*
X-51499Y77797D01*
X-51409Y77833D01*
X-51319Y77874D01*
X-51232Y77917D01*
X-51146Y77965D01*
X-51062Y78015D01*
X-50981Y78069D01*
X-50901Y78126D01*
X-50824Y78187D01*
X-50750Y78250D01*
X-50678Y78316D01*
X-50608Y78386D01*
X-50542Y78458D01*
X-50479Y78532D01*
X-50418Y78609D01*
X-50361Y78689D01*
X-50307Y78770D01*
X-50257Y78854D01*
X-50209Y78940D01*
X-50166Y79027D01*
X-50125Y79117D01*
X-50089Y79207D01*
X-50056Y79299D01*
X-50027Y79393D01*
X-50002Y79487D01*
X-49980Y79583D01*
X-49962Y79679D01*
X-49949Y79776D01*
X-49939Y79873D01*
X-49933Y79971D01*
X-49931Y80069D01*
X-49932Y80069D02*
X-85106Y115243D01*
X-85106Y120327D01*
X-75057Y51680D02*
X-75057Y49336D01*
X-75057Y51680D02*
X-77456Y54078D01*
X-77456Y70788D01*
X-74770Y73473D01*
D15*
X-49770Y23254D03*
D18*
X-49770Y23998D02*
X-49772Y24152D01*
X-49778Y24305D01*
X-49788Y24458D01*
X-49801Y24611D01*
X-49819Y24764D01*
X-49840Y24916D01*
X-49865Y25067D01*
X-49894Y25218D01*
X-49927Y25368D01*
X-49964Y25517D01*
X-50004Y25666D01*
X-50048Y25813D01*
X-50096Y25959D01*
X-50147Y26103D01*
X-50203Y26247D01*
X-50261Y26389D01*
X-50324Y26529D01*
X-50390Y26668D01*
X-50459Y26805D01*
X-50532Y26940D01*
X-50608Y27073D01*
X-50688Y27205D01*
X-50770Y27334D01*
X-50857Y27461D01*
X-50946Y27586D01*
X-51038Y27709D01*
X-51134Y27829D01*
X-51232Y27947D01*
X-51334Y28062D01*
X-51438Y28175D01*
X-51546Y28284D01*
X-51655Y28392D01*
X-51768Y28496D01*
X-51883Y28598D01*
X-52001Y28696D01*
X-52121Y28792D01*
X-52244Y28884D01*
X-52369Y28973D01*
X-52496Y29060D01*
X-52625Y29142D01*
X-52757Y29222D01*
X-52890Y29298D01*
X-53025Y29371D01*
X-53162Y29440D01*
X-53301Y29506D01*
X-53441Y29569D01*
X-53583Y29627D01*
X-53727Y29683D01*
X-53871Y29734D01*
X-54017Y29782D01*
X-54164Y29826D01*
X-54313Y29866D01*
X-54462Y29903D01*
X-54612Y29936D01*
X-54763Y29965D01*
X-54914Y29990D01*
X-55066Y30011D01*
X-55219Y30029D01*
X-55372Y30042D01*
X-55525Y30052D01*
X-55678Y30058D01*
X-55832Y30060D01*
X-49770Y23998D02*
X-49770Y23254D01*
D14*
X-85106Y120327D02*
X-85696Y120327D01*
D13*
X-91445Y125947D03*
D14*
X-91316Y125947D02*
X-85696Y120327D01*
X-91316Y125947D02*
X-91445Y125947D01*
M02*
