G04 EAGLE Gerber RS-274X export*
G75*
%MOMM*%
%FSLAX34Y34*%
%LPD*%
%INSoldermask Bottom*%
%IPPOS*%
%AMOC8*
5,1,8,0,0,1.08239X$1,22.5*%
G01*
G04 Define Apertures*
%ADD10C,0.903200*%
%ADD11C,1.361200*%
%ADD12C,2.654200*%
%ADD13C,1.270200*%
%ADD14R,1.270000X1.270000*%
%ADD15C,0.753200*%
%ADD16C,0.603200*%
%ADD17C,0.503200*%
%ADD18C,0.653200*%
G36*
X-54054Y122660D02*
X-52825Y122781D01*
X-51596Y122660D01*
X-50414Y122301D01*
X-49325Y121719D01*
X-48370Y120935D01*
X-47586Y119981D01*
X-47004Y118891D01*
X-46646Y117710D01*
X-46525Y116483D01*
X-46525Y105478D01*
X-46646Y104251D01*
X-47004Y103069D01*
X-47586Y101980D01*
X-48370Y101026D01*
X-49325Y100242D01*
X-50414Y99660D01*
X-51596Y99301D01*
X-52825Y99180D01*
X-54054Y99301D01*
X-55236Y99660D01*
X-56325Y100242D01*
X-57280Y101026D01*
X-58063Y101980D01*
X-58645Y103069D01*
X-59004Y104251D01*
X-59125Y105478D01*
X-59125Y116483D01*
X-59004Y117710D01*
X-58645Y118891D01*
X-58063Y119981D01*
X-57280Y120935D01*
X-56325Y121719D01*
X-55236Y122301D01*
X-54054Y122660D01*
G37*
G36*
X32346Y122660D02*
X33575Y122781D01*
X34804Y122660D01*
X35986Y122301D01*
X37075Y121719D01*
X38030Y120935D01*
X38814Y119981D01*
X39396Y118891D01*
X39754Y117710D01*
X39875Y116483D01*
X39875Y105478D01*
X39754Y104251D01*
X39396Y103069D01*
X38814Y101980D01*
X38030Y101026D01*
X37075Y100242D01*
X35986Y99660D01*
X34804Y99301D01*
X33575Y99180D01*
X32346Y99301D01*
X31164Y99660D01*
X30075Y100242D01*
X29120Y101026D01*
X28337Y101980D01*
X27755Y103069D01*
X27396Y104251D01*
X27275Y105478D01*
X27275Y116483D01*
X27396Y117710D01*
X27755Y118891D01*
X28337Y119981D01*
X29120Y120935D01*
X30075Y121719D01*
X31164Y122301D01*
X32346Y122660D01*
G37*
G36*
X-54054Y162660D02*
X-52825Y162781D01*
X-51596Y162660D01*
X-50414Y162301D01*
X-49325Y161719D01*
X-48370Y160935D01*
X-47586Y159981D01*
X-47004Y158891D01*
X-46646Y157710D01*
X-46525Y156483D01*
X-46525Y148478D01*
X-46646Y147251D01*
X-47004Y146069D01*
X-47586Y144980D01*
X-48370Y144026D01*
X-49325Y143242D01*
X-50414Y142660D01*
X-51596Y142301D01*
X-52825Y142180D01*
X-54054Y142301D01*
X-55236Y142660D01*
X-56325Y143242D01*
X-57280Y144026D01*
X-58063Y144980D01*
X-58645Y146069D01*
X-59004Y147251D01*
X-59125Y148478D01*
X-59125Y156483D01*
X-59004Y157710D01*
X-58645Y158891D01*
X-58063Y159981D01*
X-57280Y160935D01*
X-56325Y161719D01*
X-55236Y162301D01*
X-54054Y162660D01*
G37*
G36*
X32346Y162660D02*
X33575Y162781D01*
X34804Y162660D01*
X35986Y162301D01*
X37075Y161719D01*
X38030Y160935D01*
X38814Y159981D01*
X39396Y158891D01*
X39754Y157710D01*
X39875Y156483D01*
X39875Y148478D01*
X39754Y147251D01*
X39396Y146069D01*
X38814Y144980D01*
X38030Y144026D01*
X37075Y143242D01*
X35986Y142660D01*
X34804Y142301D01*
X33575Y142180D01*
X32346Y142301D01*
X31164Y142660D01*
X30075Y143242D01*
X29120Y144026D01*
X28337Y144980D01*
X27755Y146069D01*
X27396Y147251D01*
X27275Y148478D01*
X27275Y156483D01*
X27396Y157710D01*
X27755Y158891D01*
X28337Y159981D01*
X29120Y160935D01*
X30075Y161719D01*
X31164Y162301D01*
X32346Y162660D01*
G37*
D10*
X19275Y115980D03*
X-38525Y115980D03*
D11*
X33575Y152480D03*
X-52825Y152480D03*
X33575Y110980D03*
X-52825Y110980D03*
D12*
X95154Y85503D03*
D13*
X95154Y110903D03*
D12*
X95154Y136303D03*
X126904Y85503D03*
X126904Y136303D03*
D13*
X145954Y100743D03*
X145954Y121063D03*
D14*
X-98788Y-146774D03*
X-135744Y-146774D03*
X8903Y-146790D03*
X-28053Y-146790D03*
X122075Y-146718D03*
X85119Y-146718D03*
D15*
X31265Y-145843D03*
X-74683Y-148185D03*
X-186499Y-132437D03*
X144488Y-146925D03*
X40263Y66993D03*
X5001Y-101488D03*
X-110665Y80025D03*
X62851Y-77190D03*
X48032Y1168D03*
X-31130Y37312D03*
D16*
X-44538Y55002D03*
X-72423Y56416D03*
D15*
X-22443Y79477D03*
X-2857Y80988D03*
X-115680Y116403D03*
D16*
X-126312Y95529D03*
D15*
X-70404Y89586D03*
X-101994Y154253D03*
D16*
X55611Y-39645D03*
D17*
X34209Y-34594D03*
D16*
X-90149Y134495D03*
X-63932Y35898D03*
X61719Y-48546D03*
X-57886Y50214D03*
D17*
X34196Y-44181D03*
D15*
X-33631Y-19736D03*
X63417Y134350D03*
X-33631Y-29883D03*
X63516Y148568D03*
D17*
X6558Y-21520D03*
X54034Y56672D03*
X175194Y120689D03*
X59783Y56584D03*
D15*
X24761Y-90321D03*
X-35770Y-61451D03*
D16*
X15770Y-107769D03*
X-105457Y-15623D03*
X26795Y-110335D03*
D17*
X6593Y-76906D03*
D16*
X-110981Y-15623D03*
X55070Y-95049D03*
X33447Y-97703D03*
D17*
X34209Y-54519D03*
D16*
X-91264Y-15623D03*
X48023Y-37882D03*
D15*
X-36697Y31508D03*
D16*
X33645Y17695D03*
X20949Y44701D03*
X-17401Y46035D03*
X20712Y13919D03*
X88180Y-120260D03*
X22279Y-6895D03*
D17*
X21754Y-21363D03*
D18*
X-47631Y-133467D03*
D16*
X13415Y1394D03*
X-95977Y373D03*
X-102534Y7156D03*
D17*
X11473Y-21397D03*
D16*
X5245Y-1110D03*
X-111745Y14555D03*
X9675Y-7403D03*
X-1217Y27173D03*
X-890Y9179D03*
D18*
X-36613Y-49053D03*
D17*
X-21216Y-54481D03*
D15*
X-70034Y-28429D03*
X-179010Y95085D03*
D16*
X-110261Y63814D03*
X-52510Y-4122D03*
X-44678Y-49871D03*
X-60921Y12578D03*
D15*
X-132415Y-79503D03*
D17*
X-21174Y-24140D03*
D16*
X-91683Y-126099D03*
X-102391Y-98578D03*
X-114265Y-80226D03*
X-218547Y-130951D03*
X-176463Y-161750D03*
X-99043Y44076D03*
X-105152Y37966D03*
X-153458Y-149378D03*
D15*
X-49485Y72616D03*
X-75183Y155520D03*
X48396Y-9533D03*
X37385Y50939D03*
D17*
X34118Y-49440D03*
D15*
X-33288Y45031D03*
D16*
X-74770Y73473D03*
X-128468Y135638D03*
X-77068Y49319D03*
X45396Y-57726D03*
D17*
X-49770Y23254D03*
D16*
X-91445Y125947D03*
M02*
