G04 EAGLE Gerber RS-274X export*
G75*
%MOMM*%
%FSLAX34Y34*%
%LPD*%
%INSolderpaste Top*%
%IPPOS*%
%AMOC8*
5,1,8,0,0,1.08239X$1,22.5*%
G01*
G04 Define Apertures*
%ADD10R,1.150000X1.800000*%
%ADD11R,0.280000X0.430000*%
%ADD12R,0.430000X0.280000*%
%ADD13R,0.700000X0.900000*%
%ADD14R,0.900000X0.700000*%
%ADD15R,0.220000X0.230000*%
%ADD16R,0.230000X0.220000*%
%ADD17R,0.600000X1.200000*%
%ADD18R,0.800000X1.150000*%
%ADD19C,0.200000*%
%ADD20C,0.250000*%
%ADD21R,0.350000X0.300000*%
%ADD22R,0.300000X0.350000*%
%ADD23C,0.216000*%
%ADD24R,0.700000X0.300000*%
%ADD25R,1.000000X0.300000*%
%ADD26R,0.300000X1.150000*%
%ADD27R,0.600000X1.150000*%
%ADD28C,0.783000*%
%ADD29R,2.200000X1.200000*%
%ADD30R,1.200000X2.200000*%
%ADD31R,0.800000X0.900000*%
%ADD32R,0.500000X1.050000*%
%ADD33R,0.350000X0.250000*%
%ADD34R,0.250000X0.350000*%
%ADD35R,1.600200X1.168400*%
%ADD36R,0.711200X1.092200*%
%ADD37R,1.397000X1.092200*%
%ADD38C,0.300000*%
%ADD39R,4.850000X4.850000*%
%ADD40R,0.820000X0.560000*%
%ADD41C,0.067500*%
%ADD42R,0.950000X0.850000*%
%ADD43R,1.800000X1.000000*%
G36*
X-140443Y-156426D02*
X-140443Y-149568D01*
X-128759Y-149568D01*
X-128759Y-156426D01*
X-140443Y-156426D01*
G37*
G36*
X-105773Y-156426D02*
X-105773Y-149568D01*
X-94089Y-149568D01*
X-94089Y-156426D01*
X-105773Y-156426D01*
G37*
G36*
X-32752Y-156442D02*
X-32752Y-149584D01*
X-21068Y-149584D01*
X-21068Y-156442D01*
X-32752Y-156442D01*
G37*
G36*
X1918Y-156442D02*
X1918Y-149584D01*
X13602Y-149584D01*
X13602Y-156442D01*
X1918Y-156442D01*
G37*
G36*
X80420Y-156370D02*
X80420Y-149512D01*
X92104Y-149512D01*
X92104Y-156370D01*
X80420Y-156370D01*
G37*
G36*
X115090Y-156370D02*
X115090Y-149512D01*
X126774Y-149512D01*
X126774Y-156370D01*
X115090Y-156370D01*
G37*
D10*
X-219034Y96956D03*
X-189034Y96956D03*
D11*
X-33735Y-79226D03*
X-38835Y-79226D03*
X-33710Y-69895D03*
X-38810Y-69895D03*
X-45525Y-73166D03*
X-50625Y-73166D03*
D12*
X-1753Y-87020D03*
X-1753Y-92120D03*
D13*
X-29175Y-103959D03*
X-16175Y-103959D03*
D14*
X111575Y-99443D03*
X111575Y-112443D03*
X125133Y-99342D03*
X125133Y-112342D03*
D11*
X59922Y-87549D03*
X54822Y-87549D03*
X52734Y-64658D03*
X47634Y-64658D03*
X-71360Y37701D03*
X-76460Y37701D03*
X-169258Y-113556D03*
X-174358Y-113556D03*
D12*
X-34266Y-87815D03*
X-34266Y-92915D03*
D13*
X51730Y-20340D03*
X64730Y-20340D03*
D14*
X37383Y-8993D03*
X37383Y4007D03*
D12*
X-62789Y-30438D03*
X-62789Y-25338D03*
D15*
X-115223Y100678D03*
X-118923Y100678D03*
D11*
X-114458Y108221D03*
X-119558Y108221D03*
D12*
X-152378Y124585D03*
X-152378Y129685D03*
D13*
X-201988Y-98037D03*
X-214988Y-98037D03*
D15*
X-94960Y92963D03*
X-91260Y92963D03*
X-127672Y-120930D03*
X-123972Y-120930D03*
D11*
X-46861Y-60258D03*
X-51961Y-60258D03*
D15*
X76811Y-132141D03*
X80511Y-132141D03*
X-29954Y-132117D03*
X-33654Y-132117D03*
D16*
X-38690Y17729D03*
X-38690Y21429D03*
D12*
X-144614Y124266D03*
X-144614Y129366D03*
D15*
X-70344Y24583D03*
X-66644Y24583D03*
X-76721Y106470D03*
X-73021Y106470D03*
D16*
X-69676Y137413D03*
X-69676Y133713D03*
D12*
X-60734Y88585D03*
X-60734Y83485D03*
X-55468Y-30754D03*
X-55468Y-25654D03*
D16*
X39352Y78336D03*
X39352Y82036D03*
D12*
X47954Y82883D03*
X47954Y77783D03*
D11*
X47287Y-76793D03*
X52387Y-76793D03*
D14*
X45867Y-102171D03*
X45867Y-89171D03*
D12*
X-30182Y-5386D03*
X-30182Y-286D03*
X-37546Y-4990D03*
X-37546Y110D03*
X-51368Y-38464D03*
X-51368Y-43564D03*
D17*
X10489Y69158D03*
X989Y69158D03*
X-8511Y69158D03*
X-8511Y44158D03*
X989Y44158D03*
X10489Y44158D03*
D18*
X-184742Y-150316D03*
X-184742Y-115316D03*
X-195917Y-115161D03*
X-195917Y-150161D03*
X-207281Y-149913D03*
X-207281Y-114913D03*
D12*
X-107188Y22306D03*
X-107188Y27406D03*
D11*
X-97232Y-51212D03*
X-102332Y-51212D03*
X-109911Y-55182D03*
X-115011Y-55182D03*
X-125707Y-67583D03*
X-120607Y-67583D03*
D12*
X-115561Y22188D03*
X-115561Y27288D03*
D11*
X-97300Y-21100D03*
X-102400Y-21100D03*
X-97324Y-31191D03*
X-102424Y-31191D03*
X-110396Y-36213D03*
X-115496Y-36213D03*
X-97090Y-40867D03*
X-102190Y-40867D03*
D12*
X-96159Y-65912D03*
X-96159Y-60812D03*
D19*
X-83601Y129740D03*
X-79601Y129740D03*
X-83601Y125740D03*
X-79601Y125740D03*
X-83601Y121740D03*
X-79601Y121740D03*
X-83601Y117740D03*
X-79601Y117740D03*
D20*
X-44996Y28028D03*
X-44996Y23028D03*
X-44996Y18028D03*
X-49996Y28028D03*
X-49996Y23028D03*
X-49996Y18028D03*
X-54996Y28028D03*
X-54996Y23028D03*
X-54996Y18028D03*
D21*
X-65312Y57642D03*
X-65312Y52642D03*
X-65312Y47642D03*
X-65312Y42642D03*
D22*
X-60062Y42392D03*
X-55062Y42392D03*
D21*
X-49812Y42642D03*
X-49812Y47642D03*
X-49812Y52642D03*
X-49812Y57642D03*
D22*
X-55062Y57892D03*
X-60062Y57892D03*
D23*
X-127251Y102217D03*
X-131251Y102217D03*
X-135251Y102217D03*
X-127251Y106217D03*
X-131251Y106217D03*
X-135251Y106217D03*
X-127251Y110217D03*
X-131251Y110217D03*
X-135251Y110217D03*
X-127251Y114217D03*
X-131251Y114217D03*
X-135251Y114217D03*
X-127251Y118217D03*
X-131251Y118217D03*
X-135251Y118217D03*
D24*
X-124120Y53931D03*
X-124120Y48931D03*
X-124120Y43931D03*
X-124120Y38931D03*
X-124120Y33931D03*
X-124120Y28931D03*
X-124120Y23931D03*
X-124120Y18931D03*
X-124120Y13931D03*
X-124120Y8931D03*
X-124120Y3931D03*
X-124120Y-1069D03*
X-124120Y-6069D03*
X-124120Y-11069D03*
X-124120Y-16069D03*
X-124120Y-21069D03*
X-124120Y-26069D03*
X-124120Y-31069D03*
X-124120Y-36069D03*
X-124120Y-41069D03*
X-124120Y-46069D03*
X-124120Y-51069D03*
X-124120Y-56069D03*
X-124120Y-61069D03*
D25*
X-150620Y61831D03*
X-150620Y-68969D03*
D26*
X-7125Y105230D03*
X-2125Y105230D03*
X2875Y105230D03*
X7875Y105230D03*
X-12125Y105230D03*
X-17125Y105230D03*
X-22125Y105230D03*
X-27125Y105230D03*
D27*
X22375Y105230D03*
X14375Y105230D03*
X-33625Y105230D03*
X-41625Y105230D03*
D28*
X107854Y104553D03*
X107854Y117253D03*
X120554Y104553D03*
X120554Y117253D03*
X133264Y104553D03*
X133264Y117253D03*
D29*
X-70160Y-66825D03*
X-70160Y-46265D03*
D30*
X131307Y-52486D03*
X110747Y-52486D03*
X110830Y-77768D03*
X131390Y-77768D03*
X-165645Y-95800D03*
X-186205Y-95800D03*
D29*
X-155779Y92913D03*
X-155779Y113473D03*
D31*
X-124492Y-89551D03*
X-143492Y-89551D03*
X-133992Y-110551D03*
D32*
X-160686Y-120523D03*
X-147686Y-120523D03*
X-154186Y-99523D03*
D33*
X-137699Y123656D03*
X-137699Y129156D03*
X-131129Y123796D03*
X-131129Y129296D03*
D34*
X-152908Y-132206D03*
X-147408Y-132206D03*
D33*
X5089Y88330D03*
X5089Y93830D03*
X-123444Y128932D03*
X-123444Y123432D03*
X-167527Y-120036D03*
X-167527Y-125536D03*
X-27153Y92117D03*
X-27153Y86617D03*
D34*
X-71158Y63440D03*
X-65658Y63440D03*
D33*
X-116962Y129175D03*
X-116962Y123675D03*
D34*
X81307Y-124786D03*
X75807Y-124786D03*
D33*
X-116710Y-121816D03*
X-116710Y-116316D03*
X-40561Y-133292D03*
X-40561Y-127792D03*
X-83727Y107067D03*
X-83727Y112567D03*
X-133076Y-87225D03*
X-133076Y-92725D03*
X-152755Y-144197D03*
X-152755Y-138697D03*
D35*
X-166778Y-135045D03*
X-166778Y-150285D03*
D36*
X-103264Y-133249D03*
X-131268Y-133249D03*
D37*
X-117266Y-131725D03*
D36*
X4427Y-133265D03*
X-23577Y-133265D03*
D37*
X-9575Y-131741D03*
D36*
X117599Y-133193D03*
X89595Y-133193D03*
D37*
X103597Y-131669D03*
D38*
X16658Y-21826D03*
X11658Y-21826D03*
X26658Y-21826D03*
X6658Y-21826D03*
X1658Y-21826D03*
X-3342Y-21826D03*
X-8342Y-21826D03*
X-13342Y-21826D03*
X-25842Y-21826D03*
X-25842Y-26826D03*
X-20842Y-29326D03*
X-20842Y-16826D03*
X-15842Y-16826D03*
X-10842Y-16826D03*
X-5842Y-16826D03*
X-842Y-16826D03*
X34158Y-16826D03*
X29158Y-16826D03*
X24158Y-16826D03*
X19158Y-16826D03*
X14158Y-16826D03*
X4158Y-16826D03*
X9158Y-16826D03*
X34158Y-24326D03*
X34158Y-29326D03*
X39158Y-31826D03*
X39158Y-36826D03*
X34158Y-39326D03*
X39158Y-41826D03*
X34158Y-44326D03*
X39158Y-46826D03*
X34158Y-49326D03*
X39158Y-51826D03*
X34158Y-54326D03*
X39158Y-56826D03*
X34158Y-59326D03*
X39158Y-61826D03*
X34158Y-64326D03*
X34158Y-69326D03*
X39158Y-71826D03*
X39158Y-76826D03*
X31658Y-76826D03*
X26658Y-76826D03*
X21658Y-76826D03*
X16658Y-76826D03*
X11658Y-76826D03*
X6658Y-76826D03*
X1658Y-76826D03*
X-3342Y-76826D03*
X-8342Y-76826D03*
X-25842Y-31826D03*
X-25842Y-36826D03*
X-20842Y-34326D03*
X-20842Y-39326D03*
X-25842Y-41826D03*
X-20842Y-44326D03*
X-25842Y-46826D03*
X-25842Y-76826D03*
X-20842Y-69326D03*
X-25842Y-66826D03*
X-20842Y-64326D03*
X-25842Y-51826D03*
X-20842Y-59326D03*
X-25842Y-56826D03*
X19158Y-81826D03*
X14158Y-81826D03*
X9158Y-81826D03*
X4158Y-81826D03*
X-842Y-81826D03*
X-5842Y-81826D03*
X-10842Y-81826D03*
X-15842Y-81826D03*
X-20842Y-81826D03*
D39*
X6658Y-49326D03*
D40*
X-92341Y72344D03*
D41*
X-85854Y78731D02*
X-85854Y85657D01*
X-83828Y85657D01*
X-83828Y78731D01*
X-85854Y78731D01*
X-85854Y79372D02*
X-83828Y79372D01*
X-83828Y80013D02*
X-85854Y80013D01*
X-85854Y80654D02*
X-83828Y80654D01*
X-83828Y81295D02*
X-85854Y81295D01*
X-85854Y81936D02*
X-83828Y81936D01*
X-83828Y82577D02*
X-85854Y82577D01*
X-85854Y83218D02*
X-83828Y83218D01*
X-83828Y83859D02*
X-85854Y83859D01*
X-85854Y84500D02*
X-83828Y84500D01*
X-83828Y85141D02*
X-85854Y85141D01*
X-90854Y85657D02*
X-90854Y78731D01*
X-90854Y85657D02*
X-88828Y85657D01*
X-88828Y78731D01*
X-90854Y78731D01*
X-90854Y79372D02*
X-88828Y79372D01*
X-88828Y80013D02*
X-90854Y80013D01*
X-90854Y80654D02*
X-88828Y80654D01*
X-88828Y81295D02*
X-90854Y81295D01*
X-90854Y81936D02*
X-88828Y81936D01*
X-88828Y82577D02*
X-90854Y82577D01*
X-90854Y83218D02*
X-88828Y83218D01*
X-88828Y83859D02*
X-90854Y83859D01*
X-90854Y84500D02*
X-88828Y84500D01*
X-88828Y85141D02*
X-90854Y85141D01*
X-95854Y85657D02*
X-95854Y78731D01*
X-95854Y85657D02*
X-93828Y85657D01*
X-93828Y78731D01*
X-95854Y78731D01*
X-95854Y79372D02*
X-93828Y79372D01*
X-93828Y80013D02*
X-95854Y80013D01*
X-95854Y80654D02*
X-93828Y80654D01*
X-93828Y81295D02*
X-95854Y81295D01*
X-95854Y81936D02*
X-93828Y81936D01*
X-93828Y82577D02*
X-95854Y82577D01*
X-95854Y83218D02*
X-93828Y83218D01*
X-93828Y83859D02*
X-95854Y83859D01*
X-95854Y84500D02*
X-93828Y84500D01*
X-93828Y85141D02*
X-95854Y85141D01*
X-100854Y85657D02*
X-100854Y78731D01*
X-100854Y85657D02*
X-98828Y85657D01*
X-98828Y78731D01*
X-100854Y78731D01*
X-100854Y79372D02*
X-98828Y79372D01*
X-98828Y80013D02*
X-100854Y80013D01*
X-100854Y80654D02*
X-98828Y80654D01*
X-98828Y81295D02*
X-100854Y81295D01*
X-100854Y81936D02*
X-98828Y81936D01*
X-98828Y82577D02*
X-100854Y82577D01*
X-100854Y83218D02*
X-98828Y83218D01*
X-98828Y83859D02*
X-100854Y83859D01*
X-100854Y84500D02*
X-98828Y84500D01*
X-98828Y85141D02*
X-100854Y85141D01*
X-100854Y65957D02*
X-100854Y59031D01*
X-100854Y65957D02*
X-98828Y65957D01*
X-98828Y59031D01*
X-100854Y59031D01*
X-100854Y59672D02*
X-98828Y59672D01*
X-98828Y60313D02*
X-100854Y60313D01*
X-100854Y60954D02*
X-98828Y60954D01*
X-98828Y61595D02*
X-100854Y61595D01*
X-100854Y62236D02*
X-98828Y62236D01*
X-98828Y62877D02*
X-100854Y62877D01*
X-100854Y63518D02*
X-98828Y63518D01*
X-98828Y64159D02*
X-100854Y64159D01*
X-100854Y64800D02*
X-98828Y64800D01*
X-98828Y65441D02*
X-100854Y65441D01*
X-95854Y65957D02*
X-95854Y59031D01*
X-95854Y65957D02*
X-93828Y65957D01*
X-93828Y59031D01*
X-95854Y59031D01*
X-95854Y59672D02*
X-93828Y59672D01*
X-93828Y60313D02*
X-95854Y60313D01*
X-95854Y60954D02*
X-93828Y60954D01*
X-93828Y61595D02*
X-95854Y61595D01*
X-95854Y62236D02*
X-93828Y62236D01*
X-93828Y62877D02*
X-95854Y62877D01*
X-95854Y63518D02*
X-93828Y63518D01*
X-93828Y64159D02*
X-95854Y64159D01*
X-95854Y64800D02*
X-93828Y64800D01*
X-93828Y65441D02*
X-95854Y65441D01*
X-90854Y65957D02*
X-90854Y59031D01*
X-90854Y65957D02*
X-88828Y65957D01*
X-88828Y59031D01*
X-90854Y59031D01*
X-90854Y59672D02*
X-88828Y59672D01*
X-88828Y60313D02*
X-90854Y60313D01*
X-90854Y60954D02*
X-88828Y60954D01*
X-88828Y61595D02*
X-90854Y61595D01*
X-90854Y62236D02*
X-88828Y62236D01*
X-88828Y62877D02*
X-90854Y62877D01*
X-90854Y63518D02*
X-88828Y63518D01*
X-88828Y64159D02*
X-90854Y64159D01*
X-90854Y64800D02*
X-88828Y64800D01*
X-88828Y65441D02*
X-90854Y65441D01*
X-85854Y65957D02*
X-85854Y59031D01*
X-85854Y65957D02*
X-83828Y65957D01*
X-83828Y59031D01*
X-85854Y59031D01*
X-85854Y59672D02*
X-83828Y59672D01*
X-83828Y60313D02*
X-85854Y60313D01*
X-85854Y60954D02*
X-83828Y60954D01*
X-83828Y61595D02*
X-85854Y61595D01*
X-85854Y62236D02*
X-83828Y62236D01*
X-83828Y62877D02*
X-85854Y62877D01*
X-85854Y63518D02*
X-83828Y63518D01*
X-83828Y64159D02*
X-85854Y64159D01*
X-85854Y64800D02*
X-83828Y64800D01*
X-83828Y65441D02*
X-85854Y65441D01*
D42*
X-50556Y-91446D03*
X-65056Y-91446D03*
X-65056Y-102946D03*
X-50556Y-102946D03*
D43*
X78725Y-86405D03*
X78725Y-61405D03*
D12*
X-9634Y-94200D03*
X-9634Y-89100D03*
M02*
