G04 EAGLE Gerber RS-274X export*
G75*
%MOMM*%
%FSLAX34Y34*%
%LPD*%
%INSoldermask Top*%
%IPPOS*%
%AMOC8*
5,1,8,0,0,1.08239X$1,22.5*%
G01*
G04 Define Apertures*
%ADD10R,1.353200X2.003200*%
%ADD11R,0.483200X0.633200*%
%ADD12R,0.633200X0.483200*%
%ADD13R,0.903200X1.103200*%
%ADD14R,1.103200X0.903200*%
%ADD15R,0.423200X0.433200*%
%ADD16R,0.433200X0.423200*%
%ADD17R,0.803200X1.403200*%
%ADD18R,1.003200X1.353200*%
%ADD19C,0.403200*%
%ADD20C,0.453200*%
%ADD21R,0.553200X0.503200*%
%ADD22R,0.503200X0.553200*%
%ADD23C,0.419200*%
%ADD24R,0.903200X0.503200*%
%ADD25R,1.203200X0.503200*%
%ADD26R,0.503200X1.353200*%
%ADD27C,0.903200*%
%ADD28R,0.803200X1.353200*%
%ADD29C,1.361200*%
%ADD30C,0.986200*%
%ADD31C,2.654200*%
%ADD32C,1.270200*%
%ADD33R,2.403200X1.403200*%
%ADD34R,1.403200X2.403200*%
%ADD35R,1.003200X1.103200*%
%ADD36R,0.703200X1.253200*%
%ADD37R,0.553200X0.453200*%
%ADD38R,0.453200X0.553200*%
%ADD39R,1.828800X0.152400*%
%ADD40R,1.803400X1.371600*%
%ADD41R,0.914400X1.295400*%
%ADD42R,1.270000X1.270000*%
%ADD43R,1.600200X1.295400*%
%ADD44C,2.203200*%
%ADD45C,0.375000*%
%ADD46R,4.950000X4.950000*%
%ADD47C,0.269722*%
%ADD48R,1.503200X1.103200*%
%ADD49R,1.153200X1.053200*%
%ADD50R,2.003200X1.203200*%
%ADD51C,0.753200*%
%ADD52C,0.603200*%
%ADD53C,0.503200*%
%ADD54C,0.653200*%
G36*
X-54054Y122660D02*
X-52825Y122781D01*
X-51596Y122660D01*
X-50414Y122301D01*
X-49325Y121719D01*
X-48370Y120935D01*
X-47586Y119981D01*
X-47004Y118891D01*
X-46646Y117710D01*
X-46525Y116483D01*
X-46525Y105478D01*
X-46646Y104251D01*
X-47004Y103069D01*
X-47586Y101980D01*
X-48370Y101026D01*
X-49325Y100242D01*
X-50414Y99660D01*
X-51596Y99301D01*
X-52825Y99180D01*
X-54054Y99301D01*
X-55236Y99660D01*
X-56325Y100242D01*
X-57280Y101026D01*
X-58063Y101980D01*
X-58645Y103069D01*
X-59004Y104251D01*
X-59125Y105478D01*
X-59125Y116483D01*
X-59004Y117710D01*
X-58645Y118891D01*
X-58063Y119981D01*
X-57280Y120935D01*
X-56325Y121719D01*
X-55236Y122301D01*
X-54054Y122660D01*
G37*
G36*
X32346Y122660D02*
X33575Y122781D01*
X34804Y122660D01*
X35986Y122301D01*
X37075Y121719D01*
X38030Y120935D01*
X38814Y119981D01*
X39396Y118891D01*
X39754Y117710D01*
X39875Y116483D01*
X39875Y105478D01*
X39754Y104251D01*
X39396Y103069D01*
X38814Y101980D01*
X38030Y101026D01*
X37075Y100242D01*
X35986Y99660D01*
X34804Y99301D01*
X33575Y99180D01*
X32346Y99301D01*
X31164Y99660D01*
X30075Y100242D01*
X29120Y101026D01*
X28337Y101980D01*
X27755Y103069D01*
X27396Y104251D01*
X27275Y105478D01*
X27275Y116483D01*
X27396Y117710D01*
X27755Y118891D01*
X28337Y119981D01*
X29120Y120935D01*
X30075Y121719D01*
X31164Y122301D01*
X32346Y122660D01*
G37*
G36*
X-54054Y162660D02*
X-52825Y162781D01*
X-51596Y162660D01*
X-50414Y162301D01*
X-49325Y161719D01*
X-48370Y160935D01*
X-47586Y159981D01*
X-47004Y158891D01*
X-46646Y157710D01*
X-46525Y156483D01*
X-46525Y148478D01*
X-46646Y147251D01*
X-47004Y146069D01*
X-47586Y144980D01*
X-48370Y144026D01*
X-49325Y143242D01*
X-50414Y142660D01*
X-51596Y142301D01*
X-52825Y142180D01*
X-54054Y142301D01*
X-55236Y142660D01*
X-56325Y143242D01*
X-57280Y144026D01*
X-58063Y144980D01*
X-58645Y146069D01*
X-59004Y147251D01*
X-59125Y148478D01*
X-59125Y156483D01*
X-59004Y157710D01*
X-58645Y158891D01*
X-58063Y159981D01*
X-57280Y160935D01*
X-56325Y161719D01*
X-55236Y162301D01*
X-54054Y162660D01*
G37*
G36*
X32346Y162660D02*
X33575Y162781D01*
X34804Y162660D01*
X35986Y162301D01*
X37075Y161719D01*
X38030Y160935D01*
X38814Y159981D01*
X39396Y158891D01*
X39754Y157710D01*
X39875Y156483D01*
X39875Y148478D01*
X39754Y147251D01*
X39396Y146069D01*
X38814Y144980D01*
X38030Y144026D01*
X37075Y143242D01*
X35986Y142660D01*
X34804Y142301D01*
X33575Y142180D01*
X32346Y142301D01*
X31164Y142660D01*
X30075Y143242D01*
X29120Y144026D01*
X28337Y144980D01*
X27755Y146069D01*
X27396Y147251D01*
X27275Y148478D01*
X27275Y156483D01*
X27396Y157710D01*
X27755Y158891D01*
X28337Y159981D01*
X29120Y160935D01*
X30075Y161719D01*
X31164Y162301D01*
X32346Y162660D01*
G37*
G36*
X-140443Y-156426D02*
X-140443Y-149568D01*
X-128759Y-149568D01*
X-128759Y-156426D01*
X-140443Y-156426D01*
G37*
G36*
X-105773Y-156426D02*
X-105773Y-149568D01*
X-94089Y-149568D01*
X-94089Y-156426D01*
X-105773Y-156426D01*
G37*
G36*
X-32752Y-156442D02*
X-32752Y-149584D01*
X-21068Y-149584D01*
X-21068Y-156442D01*
X-32752Y-156442D01*
G37*
G36*
X1918Y-156442D02*
X1918Y-149584D01*
X13602Y-149584D01*
X13602Y-156442D01*
X1918Y-156442D01*
G37*
G36*
X80420Y-156370D02*
X80420Y-149512D01*
X92104Y-149512D01*
X92104Y-156370D01*
X80420Y-156370D01*
G37*
G36*
X115090Y-156370D02*
X115090Y-149512D01*
X126774Y-149512D01*
X126774Y-156370D01*
X115090Y-156370D01*
G37*
D10*
X-219034Y96956D03*
X-189034Y96956D03*
D11*
X-33735Y-79226D03*
X-38835Y-79226D03*
X-33710Y-69895D03*
X-38810Y-69895D03*
X-45525Y-73166D03*
X-50625Y-73166D03*
D12*
X-1753Y-87020D03*
X-1753Y-92120D03*
D13*
X-29175Y-103959D03*
X-16175Y-103959D03*
D14*
X111575Y-99443D03*
X111575Y-112443D03*
X125133Y-99342D03*
X125133Y-112342D03*
D11*
X59922Y-87549D03*
X54822Y-87549D03*
X52734Y-64658D03*
X47634Y-64658D03*
X-71360Y37701D03*
X-76460Y37701D03*
X-169258Y-113556D03*
X-174358Y-113556D03*
D12*
X-34266Y-87815D03*
X-34266Y-92915D03*
D13*
X51730Y-20340D03*
X64730Y-20340D03*
D14*
X37383Y-8993D03*
X37383Y4007D03*
D12*
X-62789Y-30438D03*
X-62789Y-25338D03*
D15*
X-115223Y100678D03*
X-118923Y100678D03*
D11*
X-114458Y108221D03*
X-119558Y108221D03*
D12*
X-152378Y124585D03*
X-152378Y129685D03*
D13*
X-201988Y-98037D03*
X-214988Y-98037D03*
D15*
X-94960Y92963D03*
X-91260Y92963D03*
X-127672Y-120930D03*
X-123972Y-120930D03*
D11*
X-46861Y-60258D03*
X-51961Y-60258D03*
D15*
X76811Y-132141D03*
X80511Y-132141D03*
X-29954Y-132117D03*
X-33654Y-132117D03*
D16*
X-38690Y17729D03*
X-38690Y21429D03*
D12*
X-144614Y124266D03*
X-144614Y129366D03*
D15*
X-70344Y24583D03*
X-66644Y24583D03*
X-76721Y106470D03*
X-73021Y106470D03*
D16*
X-69676Y137413D03*
X-69676Y133713D03*
D12*
X-60734Y88585D03*
X-60734Y83485D03*
X-55468Y-30754D03*
X-55468Y-25654D03*
D16*
X39352Y78336D03*
X39352Y82036D03*
D12*
X47954Y82883D03*
X47954Y77783D03*
D11*
X47287Y-76793D03*
X52387Y-76793D03*
D14*
X45867Y-102171D03*
X45867Y-89171D03*
D12*
X-30182Y-5386D03*
X-30182Y-286D03*
X-37546Y-4990D03*
X-37546Y110D03*
X-51368Y-38464D03*
X-51368Y-43564D03*
D17*
X10489Y69158D03*
X989Y69158D03*
X-8511Y69158D03*
X-8511Y44158D03*
X989Y44158D03*
X10489Y44158D03*
D18*
X-184742Y-150316D03*
X-184742Y-115316D03*
X-195917Y-115161D03*
X-195917Y-150161D03*
X-207281Y-149913D03*
X-207281Y-114913D03*
D12*
X-107188Y22306D03*
X-107188Y27406D03*
D11*
X-97232Y-51212D03*
X-102332Y-51212D03*
X-109911Y-55182D03*
X-115011Y-55182D03*
X-125707Y-67583D03*
X-120607Y-67583D03*
D12*
X-115561Y22188D03*
X-115561Y27288D03*
D11*
X-97300Y-21100D03*
X-102400Y-21100D03*
X-97324Y-31191D03*
X-102424Y-31191D03*
X-110396Y-36213D03*
X-115496Y-36213D03*
X-97090Y-40867D03*
X-102190Y-40867D03*
D12*
X-96159Y-65912D03*
X-96159Y-60812D03*
D19*
X-83601Y129740D03*
X-79601Y129740D03*
X-83601Y125740D03*
X-79601Y125740D03*
X-83601Y121740D03*
X-79601Y121740D03*
X-83601Y117740D03*
X-79601Y117740D03*
D20*
X-44996Y28028D03*
X-44996Y23028D03*
X-44996Y18028D03*
X-49996Y28028D03*
X-49996Y23028D03*
X-49996Y18028D03*
X-54996Y28028D03*
X-54996Y23028D03*
X-54996Y18028D03*
D21*
X-65312Y57642D03*
X-65312Y52642D03*
X-65312Y47642D03*
X-65312Y42642D03*
D22*
X-60062Y42392D03*
X-55062Y42392D03*
D21*
X-49812Y42642D03*
X-49812Y47642D03*
X-49812Y52642D03*
X-49812Y57642D03*
D22*
X-55062Y57892D03*
X-60062Y57892D03*
D23*
X-127251Y102217D03*
X-131251Y102217D03*
X-135251Y102217D03*
X-127251Y106217D03*
X-131251Y106217D03*
X-135251Y106217D03*
X-127251Y110217D03*
X-131251Y110217D03*
X-135251Y110217D03*
X-127251Y114217D03*
X-131251Y114217D03*
X-135251Y114217D03*
X-127251Y118217D03*
X-131251Y118217D03*
X-135251Y118217D03*
D24*
X-124120Y53931D03*
X-124120Y48931D03*
X-124120Y43931D03*
X-124120Y38931D03*
X-124120Y33931D03*
X-124120Y28931D03*
X-124120Y23931D03*
X-124120Y18931D03*
X-124120Y13931D03*
X-124120Y8931D03*
X-124120Y3931D03*
X-124120Y-1069D03*
X-124120Y-6069D03*
X-124120Y-11069D03*
X-124120Y-16069D03*
X-124120Y-21069D03*
X-124120Y-26069D03*
X-124120Y-31069D03*
X-124120Y-36069D03*
X-124120Y-41069D03*
X-124120Y-46069D03*
X-124120Y-51069D03*
X-124120Y-56069D03*
X-124120Y-61069D03*
D25*
X-150620Y61831D03*
X-150620Y-68969D03*
D26*
X-7125Y105230D03*
X-2125Y105230D03*
X2875Y105230D03*
X7875Y105230D03*
X-12125Y105230D03*
X-17125Y105230D03*
X-22125Y105230D03*
X-27125Y105230D03*
D27*
X19275Y115980D03*
X-38525Y115980D03*
D28*
X22375Y105230D03*
X14375Y105230D03*
X-33625Y105230D03*
X-41625Y105230D03*
D29*
X33575Y152480D03*
X-52825Y152480D03*
X33575Y110980D03*
X-52825Y110980D03*
D30*
X107854Y104553D03*
X107854Y117253D03*
X120554Y104553D03*
X120554Y117253D03*
X133264Y104553D03*
X133264Y117253D03*
D31*
X95154Y85503D03*
D32*
X95154Y110903D03*
D31*
X95154Y136303D03*
X126904Y85503D03*
X126904Y136303D03*
D32*
X145954Y100743D03*
X145954Y121063D03*
D33*
X-70160Y-66825D03*
X-70160Y-46265D03*
D34*
X131307Y-52486D03*
X110747Y-52486D03*
X110830Y-77768D03*
X131390Y-77768D03*
X-165645Y-95800D03*
X-186205Y-95800D03*
D33*
X-155779Y92913D03*
X-155779Y113473D03*
D35*
X-124492Y-89551D03*
X-143492Y-89551D03*
X-133992Y-110551D03*
D36*
X-160686Y-120523D03*
X-147686Y-120523D03*
X-154186Y-99523D03*
D37*
X-137699Y123656D03*
X-137699Y129156D03*
X-131129Y123796D03*
X-131129Y129296D03*
D38*
X-152908Y-132206D03*
X-147408Y-132206D03*
D37*
X5089Y88330D03*
X5089Y93830D03*
X-123444Y128932D03*
X-123444Y123432D03*
X-167527Y-120036D03*
X-167527Y-125536D03*
X-27153Y92117D03*
X-27153Y86617D03*
D38*
X-71158Y63440D03*
X-65658Y63440D03*
D37*
X-116962Y129175D03*
X-116962Y123675D03*
D38*
X81307Y-124786D03*
X75807Y-124786D03*
D37*
X-116710Y-121816D03*
X-116710Y-116316D03*
X-40561Y-133292D03*
X-40561Y-127792D03*
X-83727Y107067D03*
X-83727Y112567D03*
X-133076Y-87225D03*
X-133076Y-92725D03*
X-152755Y-144197D03*
X-152755Y-138697D03*
D39*
X-166778Y-142665D03*
D40*
X-166778Y-135045D03*
X-166778Y-150285D03*
D41*
X-103264Y-133249D03*
X-131268Y-133249D03*
D42*
X-98788Y-146774D03*
X-135744Y-146774D03*
D43*
X-117266Y-131725D03*
D41*
X4427Y-133265D03*
X-23577Y-133265D03*
D42*
X8903Y-146790D03*
X-28053Y-146790D03*
D43*
X-9575Y-131741D03*
D41*
X117599Y-133193D03*
X89595Y-133193D03*
D42*
X122075Y-146718D03*
X85119Y-146718D03*
D43*
X103597Y-131669D03*
D44*
X76008Y-39262D03*
X-85619Y23973D03*
X-21405Y20187D03*
X-148308Y148270D03*
X-98382Y110392D03*
X-88041Y148019D03*
X-114625Y147517D03*
D45*
X19158Y-81826D03*
X14158Y-81826D03*
X9158Y-81826D03*
X4158Y-81826D03*
X-842Y-81826D03*
X-5842Y-81826D03*
X-10842Y-81826D03*
X-15842Y-81826D03*
X-20842Y-81826D03*
X39158Y-76826D03*
X31658Y-76826D03*
X39158Y-71826D03*
X34158Y-69326D03*
X39158Y-61826D03*
X34158Y-64326D03*
X39158Y-56826D03*
X39158Y-51826D03*
X39158Y-31826D03*
X39158Y-36826D03*
X39158Y-46826D03*
X39158Y-41826D03*
X34158Y-59326D03*
X34158Y-54326D03*
X34158Y-24326D03*
X34158Y-29326D03*
X34158Y-39326D03*
X34158Y-44326D03*
X34158Y-49326D03*
X34158Y-16826D03*
X29158Y-16826D03*
X24158Y-16826D03*
X26658Y-21826D03*
X19158Y-16826D03*
X14158Y-16826D03*
X16658Y-21826D03*
X11658Y-21826D03*
X9158Y-16826D03*
X4158Y-16826D03*
X6658Y-21826D03*
X-842Y-16826D03*
X1658Y-21826D03*
X-5842Y-16826D03*
X-13342Y-21826D03*
X-8342Y-21826D03*
X-3342Y-21826D03*
X-10842Y-16826D03*
X-15842Y-16826D03*
X-20842Y-16826D03*
X-25842Y-21826D03*
X-20842Y-29326D03*
X-25842Y-26826D03*
X-20842Y-34326D03*
X-25842Y-31826D03*
X-20842Y-39326D03*
X-25842Y-36826D03*
X-20842Y-44326D03*
X-25842Y-41826D03*
X-25842Y-46826D03*
X-25842Y-51826D03*
X-20842Y-59326D03*
X-25842Y-56826D03*
X-20842Y-64326D03*
X-25842Y-66826D03*
X-20842Y-69326D03*
X-25842Y-76826D03*
X26658Y-76826D03*
X21658Y-76826D03*
X16658Y-76826D03*
X11658Y-76826D03*
X6658Y-76826D03*
X1658Y-76826D03*
X-3342Y-76826D03*
X-8342Y-76826D03*
D46*
X6658Y-49326D03*
D47*
X-85859Y78726D02*
X-85859Y85662D01*
X-83823Y85662D01*
X-83823Y78726D01*
X-85859Y78726D01*
X-85859Y81288D02*
X-83823Y81288D01*
X-83823Y83850D02*
X-85859Y83850D01*
X-90859Y85662D02*
X-90859Y78726D01*
X-90859Y85662D02*
X-88823Y85662D01*
X-88823Y78726D01*
X-90859Y78726D01*
X-90859Y81288D02*
X-88823Y81288D01*
X-88823Y83850D02*
X-90859Y83850D01*
X-95859Y85662D02*
X-95859Y78726D01*
X-95859Y85662D02*
X-93823Y85662D01*
X-93823Y78726D01*
X-95859Y78726D01*
X-95859Y81288D02*
X-93823Y81288D01*
X-93823Y83850D02*
X-95859Y83850D01*
X-100859Y85662D02*
X-100859Y78726D01*
X-100859Y85662D02*
X-98823Y85662D01*
X-98823Y78726D01*
X-100859Y78726D01*
X-100859Y81288D02*
X-98823Y81288D01*
X-98823Y83850D02*
X-100859Y83850D01*
X-100859Y65962D02*
X-100859Y59026D01*
X-100859Y65962D02*
X-98823Y65962D01*
X-98823Y59026D01*
X-100859Y59026D01*
X-100859Y61588D02*
X-98823Y61588D01*
X-98823Y64150D02*
X-100859Y64150D01*
X-95859Y65962D02*
X-95859Y59026D01*
X-95859Y65962D02*
X-93823Y65962D01*
X-93823Y59026D01*
X-95859Y59026D01*
X-95859Y61588D02*
X-93823Y61588D01*
X-93823Y64150D02*
X-95859Y64150D01*
X-90859Y65962D02*
X-90859Y59026D01*
X-90859Y65962D02*
X-88823Y65962D01*
X-88823Y59026D01*
X-90859Y59026D01*
X-90859Y61588D02*
X-88823Y61588D01*
X-88823Y64150D02*
X-90859Y64150D01*
X-85859Y65962D02*
X-85859Y59026D01*
X-85859Y65962D02*
X-83823Y65962D01*
X-83823Y59026D01*
X-85859Y59026D01*
X-85859Y61588D02*
X-83823Y61588D01*
X-83823Y64150D02*
X-85859Y64150D01*
D48*
X-92341Y72344D03*
D49*
X-50556Y-91446D03*
X-65056Y-91446D03*
X-65056Y-102946D03*
X-50556Y-102946D03*
D50*
X78725Y-86405D03*
X78725Y-61405D03*
D44*
X44142Y34852D03*
X68639Y109529D03*
X160969Y144408D03*
X185093Y136158D03*
X63440Y71375D03*
X63579Y15386D03*
D12*
X-9634Y-94200D03*
X-9634Y-89100D03*
D51*
X31265Y-145843D03*
X-74683Y-148185D03*
X-186499Y-132437D03*
X144488Y-146925D03*
X40263Y66993D03*
X5001Y-101488D03*
X-110665Y80025D03*
X62851Y-77190D03*
X48032Y1168D03*
X-31130Y37312D03*
D52*
X-44538Y55002D03*
X-72423Y56416D03*
D51*
X-22443Y79477D03*
X-2857Y80988D03*
X-115680Y116403D03*
D52*
X-126312Y95529D03*
D51*
X-70404Y89586D03*
X-101994Y154253D03*
D52*
X55611Y-39645D03*
D53*
X34209Y-34594D03*
D52*
X-90149Y134495D03*
X-63932Y35898D03*
X61719Y-48546D03*
X-57886Y50214D03*
D53*
X34196Y-44181D03*
D51*
X-33631Y-19736D03*
X63417Y134350D03*
X-33631Y-29883D03*
X63516Y148568D03*
D53*
X6558Y-21520D03*
X54034Y56672D03*
X175194Y120689D03*
X59783Y56584D03*
D51*
X24761Y-90321D03*
X-35770Y-61451D03*
D52*
X15770Y-107769D03*
X-105457Y-15623D03*
X26795Y-110335D03*
D53*
X6593Y-76906D03*
D52*
X-110981Y-15623D03*
X55070Y-95049D03*
X33447Y-97703D03*
D53*
X34209Y-54519D03*
D52*
X-91264Y-15623D03*
X48023Y-37882D03*
D51*
X-36697Y31508D03*
D52*
X33645Y17695D03*
X20949Y44701D03*
X-17401Y46035D03*
X20712Y13919D03*
X88180Y-120260D03*
X22279Y-6895D03*
D53*
X21754Y-21363D03*
D54*
X-47631Y-133467D03*
D52*
X13415Y1394D03*
X-95977Y373D03*
X-102534Y7156D03*
D53*
X11473Y-21397D03*
D52*
X5245Y-1110D03*
X-111745Y14555D03*
X9675Y-7403D03*
X-1217Y27173D03*
X-890Y9179D03*
D54*
X-36613Y-49053D03*
D53*
X-21216Y-54481D03*
D51*
X-70034Y-28429D03*
X-179010Y95085D03*
D52*
X-110261Y63814D03*
X-52510Y-4122D03*
X-44678Y-49871D03*
X-60921Y12578D03*
D51*
X-132415Y-79503D03*
D53*
X-21174Y-24140D03*
D52*
X-91683Y-126099D03*
X-102391Y-98578D03*
X-114265Y-80226D03*
X-218547Y-130951D03*
X-176463Y-161750D03*
X-99043Y44076D03*
X-105152Y37966D03*
X-153458Y-149378D03*
D51*
X-49485Y72616D03*
X-75183Y155520D03*
X48396Y-9533D03*
X37385Y50939D03*
D53*
X34118Y-49440D03*
D51*
X-33288Y45031D03*
D52*
X-74770Y73473D03*
X-128468Y135638D03*
X-77068Y49319D03*
X45396Y-57726D03*
D53*
X-49770Y23254D03*
D52*
X-91445Y125947D03*
M02*
